<svg xmlns="http://www.w3.org/2000/svg" viewBox="0 0 2585.87 1558.07"><defs><style>.cls-1,.cls-19,.cls-22{fill:none;}.cls-1{stroke:#e4e4e4;stroke-width:4px;stroke-dasharray:32.09 32.09;}.cls-1,.cls-19,.cls-22,.cls-8{stroke-miterlimit:10;}.cls-2{fill:#f6f5f5;}.cls-3{fill:#a9bae6;}.cls-4{fill:#e4e4e4;}.cls-5,.cls-8{fill:#fff;}.cls-6{fill:#708cd5;}.cls-7{fill:#d3dfff;}.cls-8{stroke:#708cd5;stroke-width:6px;}.cls-9{fill:#ee6f57;}.cls-10{fill:#f9b384;}.cls-11,.cls-15{fill:#1f3c88;}.cls-12,.cls-16{fill:#e28b6d;}.cls-13,.cls-14{fill:#102048;}.cls-14,.cls-16,.cls-21{opacity:0.6;}.cls-15,.cls-19{opacity:0.3;}.cls-17,.cls-21{fill:#6f3428;}.cls-18{fill:#fbc343;}.cls-19{stroke:#6f3428;}.cls-19,.cls-22{stroke-width:8px;}.cls-20{fill:#fc8879;opacity:0.4;}.cls-22{stroke:#102048;}</style></defs><g id="Слой_2" data-name="Слой 2"><g id="Layer_1" data-name="Layer 1"><path class="cls-1" d="M2471.58,1063c125.27,224.17-56,664-1205.64,358.33-576.41-153.26-1007,192-1095.7-49C-36.42,811,807.58,161.71,1276.91,615,1705.9,1029.41,2243.58,655,2471.58,1063Z"/><path class="cls-2" d="M2465,1556.48H120.9c73.36-542,570.08-961.24,1172-961.24S2391.62,1014.48,2465,1556.48Z"/><rect class="cls-3" x="1203.42" y="138.36" width="1030.33" height="1413.36" rx="74.32"/><rect class="cls-2" x="1296.54" y="195.32" width="848.04" height="1231.88"/><path class="cls-4" d="M2144.57,195.33c.27,480.36,15.78,1059.71-38.18,1188-237.67,23.16-516,30.59-809.87,32L1408.24,199Z"/><path class="cls-5" d="M2068.4,1344.49c-370.44,59.29-618,62.42-818.82,47.51,26-277,36.45-737.18,46.94-1196.62l446.39,1,404,26.67C2152.8,699.89,2153.44,1140.36,2068.4,1344.49Z"/><rect class="cls-6" x="1490.53" y="314.17" width="446.24" height="67.97" transform="translate(8.67 -40.22) rotate(1.35)"/><rect class="cls-6" x="1620.7" y="480.98" width="402.51" height="31.11" transform="translate(12.19 -42.73) rotate(1.35)"/><rect class="cls-7" x="1619.12" y="547.28" width="273.59" height="31.11" transform="translate(13.73 -41.16) rotate(1.35)"/><rect class="cls-8" x="1397.93" y="473.96" width="95.29" height="95.29" transform="translate(12.67 -33.87) rotate(1.35)"/><path class="cls-9" d="M1414.59,497.91c2.94,11.26,8.37,58.43,32,45.24,5.44-3,10.06-11.08,14.13-15.71l22-24.94,44-49.9c3.75-4.26-12.82-15-17.54-9.6L1470,487.35l-19.53,22.18c-4.52,5.13-15,21.67-21.67,23.14l10.94,3.53c2.57,2.11-2.21-12.87-2.32-13.28q-2.73-10.42-5.45-20.87c-1.5-5.74-19.64-12.65-17.41-4.14Z"/><rect class="cls-6" x="1616.63" y="653.33" width="331.46" height="31.11" transform="translate(16.23 -41.75) rotate(1.35)"/><rect class="cls-7" x="1615.02" y="721.98" width="402.51" height="31.11" transform="matrix(1, 0.02, -0.02, 1, 17.86, -42.53)"/><rect class="cls-8" x="1393.85" y="647.15" width="95.29" height="95.29" transform="translate(16.75 -33.72) rotate(1.35)"/><path class="cls-9" d="M1410.45,673.79c2.94,11.26,8.37,58.43,32,45.24,5.45-3,10.06-11.08,14.13-15.71q11-12.47,22-25l44-49.89c3.75-4.26-12.82-15-17.54-9.6l-39.06,44.35-19.53,22.17c-4.52,5.13-15,21.68-21.67,23.15l10.94,3.53c2.57,2.11-2.21-12.87-2.32-13.28q-2.73-10.42-5.45-20.87c-1.5-5.74-19.64-12.65-17.41-4.14Z"/><rect class="cls-6" x="1612.54" y="827.36" width="402.51" height="31.11" transform="translate(20.33 -42.44) rotate(1.35)"/><rect class="cls-7" x="1610.98" y="892.56" width="180.01" height="31.11" transform="translate(21.84 -39.77) rotate(1.35)"/><rect class="cls-8" x="1389.77" y="820.34" width="95.29" height="95.29" transform="translate(20.82 -33.58) rotate(1.35)"/><path class="cls-9" d="M1407.66,848.21c2.94,11.26,8.38,58.43,32,45.24,5.44-3,10-11.08,14.13-15.71l22-24.94,44-49.9c3.75-4.26-12.83-14.95-17.54-9.6l-39.06,44.35-19.53,22.18c-4.52,5.13-15,21.67-21.67,23.14l10.93,3.53c2.58,2.11-2.21-12.87-2.31-13.28q-2.73-10.43-5.45-20.87c-1.5-5.74-19.64-12.65-17.42-4.14Z"/><rect class="cls-6" x="1608.47" y="1000.55" width="402.51" height="31.11" transform="matrix(1, 0.02, -0.02, 1, 24.41, -42.3)"/><rect class="cls-7" x="1606.88" y="1067.37" width="317.97" height="31.11" transform="translate(25.97 -41.25) rotate(1.35)"/><rect class="cls-8" x="1385.7" y="993.53" width="95.29" height="95.29" transform="translate(24.89 -33.44) rotate(1.35)"/><path class="cls-9" d="M1403.61,1020.27c2.94,11.26,8.38,58.42,32,45.23,5.44-3,10.06-11.08,14.13-15.7l22-25,44-49.89c3.75-4.26-12.83-15-17.54-9.6l-39.06,44.35-19.53,22.17c-4.52,5.13-15,21.68-21.67,23.14l10.93,3.53c2.58,2.12-2.21-12.86-2.31-13.27q-2.73-10.44-5.45-20.87c-1.5-5.75-19.64-12.66-17.42-4.14Z"/><rect class="cls-6" x="1604.46" y="1169.57" width="159.55" height="31.11" transform="translate(28.35 -39.3) rotate(1.35)"/><path class="cls-7" d="M2005.65,1245l-402.4-9.47-.73,31.1c155.68,3.65,353.91,10.94,394.35,4.74C2003,1264.38,2006.32,1255.81,2005.65,1245Z"/><rect class="cls-8" x="1382.98" y="1165.44" width="95.29" height="95.29" transform="translate(28.94 -33.32) rotate(1.35)"/><path class="cls-9" d="M1399.6,1190.82c2.94,11.26,8.37,58.42,32,45.23,5.45-3,10.06-11.08,14.14-15.7l22-24.95,43.94-49.89c3.76-4.27-12.82-15-17.53-9.61l-39.06,44.35q-9.77,11.1-19.54,22.18c-4.51,5.13-15,21.67-21.67,23.14l10.94,3.53c2.58,2.12-2.21-12.87-2.32-13.27q-2.71-10.44-5.45-20.87c-1.5-5.75-19.63-12.66-17.41-4.14Z"/><path class="cls-9" d="M1909.58,146.92V242h-382V146.92a54.88,54.88,0,0,1,16.08-38.84,45.49,45.49,0,0,1,3.88-3.48,54.52,54.52,0,0,1,35-12.6,64.68,64.68,0,0,0,28.08-6.4,67.27,67.27,0,0,0,10.56-6.36A64.64,64.64,0,0,0,1644.58,46a64.91,64.91,0,0,1,62.08-46h23.84a64.91,64.91,0,0,1,62.08,46A64.64,64.64,0,0,0,1816,79.24a67.27,67.27,0,0,0,10.56,6.36,64.68,64.68,0,0,0,28.08,6.4,55,55,0,0,1,54.92,54.92Z"/><polygon class="cls-4" points="1940.58 195.32 1940.58 266 1496.58 266 1496.58 195.32 1527.58 195.32 1527.58 242 1909.58 242 1909.58 195.32 1940.58 195.32"/><ellipse class="cls-5" cx="1718.58" cy="56.99" rx="33.88" ry="32.2"/><path class="cls-10" d="M986.5,502.13c-13.55-2.56-26.22-25.2-30.62-33.88a10.8,10.8,0,0,1-1-6.89l5.39-28.58s12.44,2.11,11.48,18.68a12.16,12.16,0,0,0,.87,5.05L977.41,469l14.08-10.9-7.72-21.81s-10.33,2.84-15.67,1.14c-11-3.5,3.41-12,7.95-12.95s14.54-4.54,19.08,3.18,7.27,12.27,7.27,12.27,5-17.27,1.59-55.88c-.16-1.74,4.2-1.7,5.42-.45,3.66,3.72,9.48,15.05,9.79,49.51,0,0,.61-40.16,7.5-44.29,5.68-3.41,8.54,16.25,4.54,49.58,0,0,7.42-28.86,12.72-28.91,9-.09.12,77.08-22.38,100.08Z"/><path class="cls-10" d="M1029,490.32q-.6,5.76-1.32,11.16v0a324.27,324.27,0,0,1-5.92,34c-.12.48-.2.92-.32,1.36-6.84,28-8.08,41.76-31.44,38.08l-24-27.36-.24-.28-1.76-2,4.88-14.4.64-1.88,3.6-10.48.44-1.36,6.16-18,2.48-7.32Z"/><path class="cls-11" d="M582.36,1486.58l-6.12,19.13c-42,13.78-66.43,29.57-68,48H629.58l9.72-64C614.73,1495.67,595,1491.5,582.36,1486.58Z"/><path class="cls-10" d="M597.58,1439l-15.22,47.54c12.68,4.92,32.37,9.09,56.94,3.09l6.28-41.3Z"/><path class="cls-10" d="M805,1484.46l3.56-48.42-57,3-3.12,44.64C772.6,1491.37,792.54,1488.36,805,1484.46Z"/><path class="cls-11" d="M873.58,1553.71c-1.57-18.43-23-43.67-70-49.67l1.44-19.58c-12.48,3.9-32.42,6.91-56.56-.78l-4.88,70Z"/><polygon class="cls-10" points="758.82 514.56 690.06 515.04 690.06 411.04 756.74 411.04 756.78 417.4 757.1 450.36 757.58 503.28 758.82 514.56"/><path class="cls-12" d="M757.1,455.36c-12.36,13-44.6-1.68-58.2-16l57.88-17Z"/><path class="cls-10" d="M773.06,387a148.73,148.73,0,0,1-1.8,23.4c-3.36,21-12.24,39.08-32.72,39.64-48.4,1.4-62.2-26.28-71.32-48.92S672.9,324,672.9,324l62.64-6.2,34.4,28.2A256.64,256.64,0,0,1,773.06,387Z"/><path class="cls-13" d="M669.17,388.19s13.81-.63,16.17-36.27c24.69,8.26,42.73.73,57-15.72,12.2,16.11,46.34,21.16,57.87-11.83,8.34-23.83-14.66-59.33-48.16-37.83-32.83-16.59-82.63-15.45-97,25.24,0,0-49.82,23,2.93,73.54C659.11,386.33,669.17,388.19,669.17,388.19Z"/><polygon class="cls-13" points="859.58 888.34 821.58 1463.04 732.25 1463.04 754.58 905.37 768.25 899.04 859.58 888.34"/><polygon class="cls-11" points="626.91 809.71 564.25 1463.04 661.58 1463.04 754.25 920.37 859.58 888.37 864.25 772.37 629.58 767.04 626.91 809.71"/><path class="cls-14" d="M640.88,811.13c53.17,19.09,177.9-2.72,203.8-29.31L826.28,745,621.12,772.28Z"/><path class="cls-5" d="M839.9,773c-1.72.72-3.48,1.48-5.28,2.16A361.08,361.08,0,0,1,768,795a305.83,305.83,0,0,1-44.68,5.48,258.17,258.17,0,0,1-70.16-5.68l29.8-277.84L686.58,483s39,48,82-5Z"/><path class="cls-15" d="M723.3,800.44a258.17,258.17,0,0,1-70.16-5.68l29.8-277.84,10.64-15.38C719.86,565.46,746.78,707,723.3,800.44Z"/><path class="cls-6" d="M690.08,472c29.63,125.8,41.82,255.25-1.84,399-32.37,12.31-67.61,12.17-105.33,1.33L592.24,611,372.58,762l-13.34-82.33C443.69,599,589.68,477,690.08,472Z"/><path class="cls-15" d="M834.62,775.12A361.08,361.08,0,0,1,768,795C754.74,719,751.82,594.32,762.58,538Z"/><path class="cls-16" d="M1021.74,535.56c-.12.48-.2.92-.32,1.36-6.84,28-8.08,41.76-31.44,38.08l-24-27.36-.24-.28,3.12-16.4.64-1.88,3.6-10.48.44-1.36Z"/><path class="cls-6" d="M1017.58,561s-59,125-94,128c-33.93,2.91-50-30-50-30l24,182.68c-28.2,13.2-59,19.64-94.68,13.32-31.72-103-43.71-236.18-46.07-384.5,25.68,1.6,76.54,3.79,94.75,15.5,32.66,21,73,96,73,96l47-64Z"/><path class="cls-17" d="M298.32,384.91s3.57-59.79,9.66-57,18.29,54.82,18.29,54.82l-13,21.06Z"/><path class="cls-9" d="M477.88,1464.71l1.76,19.68A63.16,63.16,0,0,1,422.39,1553l-5.06.45a63.16,63.16,0,0,1-68.56-57.25L347,1476.47Z"/><rect class="cls-18" x="303.93" y="515.71" width="131.4" height="956.8" transform="translate(-87.47 37.06) rotate(-5.13)"/><rect class="cls-19" x="339.28" y="496.83" width="46.67" height="838.67" transform="translate(-80.53 36.12) rotate(-5.13)"/><polygon class="cls-13" points="477.86 1464.72 347.02 1476.48 343.58 1438.08 341.18 1411.4 333.78 1329.4 464.66 1317.64 472.02 1399.64 474.42 1426.32 477.86 1464.72"/><rect class="cls-18" x="342.11" y="1405.47" width="131.37" height="26.79" transform="translate(-125.38 42.2) rotate(-5.14)"/><path class="cls-9" d="M261.37,523.51l36.35-145.7s12.55,5.57,27.77-3.83l66.76,137.77Z"/><path class="cls-10" d="M676.41,382.16c-.59-2.15-10.35-5.1-12.5-5.69-3.33-.92-7-1.38-10.21.09-11.81,5.34-10.23,22.25-4.11,31.14A26.66,26.66,0,0,0,664,418.3c2.14.61,22.46.86,21.57-2.41C685.6,415.88,676.43,382.24,676.41,382.16Z"/><path class="cls-10" d="M304.58,722a17.79,17.79,0,0,0-22.73-11.74C267,715.44,254,724.16,252,739c-1.83,13.51,4.92,56.66,35.11,62.21L284.63,779s18.48-4.31,22.18-12.32C309.39,761.11,309.57,737.7,304.58,722Z"/><path class="cls-11" d="M864.35,573.62c1.59,9.44,2.94,18.91,4.24,28.39s2.41,19,3.62,28.47l3.1,28.52c.91,9.53,1.79,19,2.38,28.62l-1.56.18c-1.63-9.44-3-18.91-4.29-28.39l-3.56-28.47c-1-9.52-2.17-19-3-28.54s-1.79-19-2.43-28.6Z"/><path class="cls-11" d="M595.36,572.08c0,10.6-.28,21.2-.6,31.79s-.81,21.18-1.2,31.76l-1.74,31.74c-.71,10.58-1.43,21.15-2.46,31.71L587.8,699c0-10.61.24-21.2.53-31.79l1.27-31.76c.61-10.58,1.06-21.17,1.79-31.74s1.43-21.15,2.41-31.71Z"/><path class="cls-13" d="M725,381.17c.85,3.77-.7,7.33-3.47,7.95s-5.68-1.94-6.53-5.71.71-7.33,3.47-8S724.11,377.4,725,381.17Z"/><path class="cls-13" d="M764.82,376.51c-.16,3.86-2.59,6.89-5.41,6.77s-5-3.34-4.83-7.21,2.59-6.89,5.42-6.77S765,372.64,764.82,376.51Z"/><path class="cls-12" d="M742.59,379.67c1.37,3.31,1.16,6.87,2,9.58a7.53,7.53,0,0,0,1.94,3.33,12.41,12.41,0,0,0,3.75,1.84,10.45,10.45,0,0,1,4.74,3.57,6.22,6.22,0,0,1,.49,6.55,12.38,12.38,0,0,1-3.91,3.95c-1.37.93-2.69,1.91-4.12,2.78l-1-1.18c1-1.29,2.21-2.47,3.31-3.7a11.66,11.66,0,0,0,2.58-3.37c.85-1.85-1-3.88-3.59-4.92-1.35-.62-3.3-1.16-4.88-2.77a9.79,9.79,0,0,1-2.56-5.29c-.66-3.7.09-6.87-.27-10Z"/><path class="cls-13" d="M705.87,371a11.69,11.69,0,0,1,4.08-6.23,12.45,12.45,0,0,1,7.25-2.72,13.42,13.42,0,0,1,12.62,7.09l-1.23,1a17.21,17.21,0,0,0-11.19-4.08,13.06,13.06,0,0,0-10.11,5.63Z"/><path class="cls-13" d="M747.15,366.14a12.1,12.1,0,0,1,3.14-5.05,10.5,10.5,0,0,1,5.68-2.81c4.3-.71,8.92,1.48,10.61,5.29l-1.25.94a12.66,12.66,0,0,0-8.77-2.29,11.2,11.2,0,0,0-4.18,1.52,28,28,0,0,0-3.88,3.2Z"/><path class="cls-5" d="M725,418.41c7,10.93,16.29,12.12,23.47.62Z"/><path class="cls-20" d="M773.24,384.37a184.51,184.51,0,0,1-2,26.07A12,12,0,0,1,762.9,399C762.9,392.92,767.52,385.29,773.24,384.37Z"/><circle class="cls-20" cx="707.98" cy="406.11" r="12.9"/><path class="cls-12" d="M668,395a65.4,65.4,0,0,0-7.22-4.75,6.35,6.35,0,0,0-3.18-.82,7.15,7.15,0,0,0-3.33,1.52l-1.31-.84a6.23,6.23,0,0,1,3.8-4.09,7.41,7.41,0,0,1,5.79.67,15,15,0,0,1,6.69,7.37Z"/><path class="cls-21" d="M306.81,766.71l-18.57,56.41L284.41,779C296,776.53,302.25,771.91,306.81,766.71Z"/><line class="cls-22" y1="1554.07" x2="2585.87" y2="1554.07"/></g></g></svg>