<svg xmlns="http://www.w3.org/2000/svg" xmlns:xlink="http://www.w3.org/1999/xlink" viewBox="0 0 1389.05 1379.96"><defs><style>.cls-1{isolation:isolate;}.cls-2{fill:url(#linear-gradient);}.cls-3{opacity:0.68;}.cls-4,.cls-9{fill:#fff;}.cls-4{mix-blend-mode:soft-light;}.cls-5{fill:url(#linear-gradient-2);}.cls-6{fill:url(#linear-gradient-3);}.cls-7{fill:url(#linear-gradient-4);}.cls-8{fill:url(#linear-gradient-5);}.cls-9{opacity:0.54;}.cls-10{fill:url(#linear-gradient-6);}.cls-11{fill:url(#linear-gradient-7);}.cls-12{fill:url(#linear-gradient-8);}.cls-13{fill:url(#linear-gradient-9);}.cls-14{fill:url(#linear-gradient-10);}.cls-15{fill:url(#linear-gradient-11);}.cls-16{fill:url(#linear-gradient-12);}.cls-17{fill:url(#linear-gradient-13);}.cls-18{fill:url(#linear-gradient-14);}.cls-19{fill:url(#linear-gradient-15);}.cls-20{fill:url(#linear-gradient-16);}.cls-21{fill:url(#linear-gradient-17);}.cls-22{fill:url(#linear-gradient-18);}.cls-23{fill:url(#linear-gradient-19);}.cls-24{fill:url(#linear-gradient-20);}.cls-25{fill:url(#linear-gradient-21);}.cls-26{fill:url(#linear-gradient-22);}.cls-27{fill:url(#linear-gradient-23);}.cls-28{fill:url(#linear-gradient-24);}.cls-29{fill:url(#linear-gradient-25);}.cls-30{fill:url(#linear-gradient-26);}.cls-31{fill:#7d97f4;}.cls-32{fill:url(#linear-gradient-27);}.cls-33{fill:#91b3fa;}.cls-34{fill:url(#linear-gradient-28);}.cls-35{fill:url(#linear-gradient-29);}.cls-36{fill:url(#linear-gradient-30);}.cls-37{opacity:0.64;}.cls-38{fill:url(#linear-gradient-31);}.cls-39{fill:url(#linear-gradient-32);}.cls-40{fill:url(#linear-gradient-33);}.cls-41{fill:url(#linear-gradient-34);}.cls-42{fill:url(#linear-gradient-35);}</style><linearGradient id="linear-gradient" y1="643.63" x2="1389.05" y2="643.63" gradientTransform="translate(1307.08 -78.46) rotate(87.49)" gradientUnits="userSpaceOnUse"><stop offset="0" stop-color="#4042e2"/><stop offset="1" stop-color="#4f52ff"/></linearGradient><linearGradient id="linear-gradient-2" x1="1031.92" y1="461.16" x2="602.88" y2="752.19" gradientUnits="userSpaceOnUse"><stop offset="0" stop-color="#e1473d"/><stop offset="1" stop-color="#e9605a"/></linearGradient><linearGradient id="linear-gradient-3" x1="965.2" y1="1141.4" x2="695.17" y2="1450.43" xlink:href="#linear-gradient-2"/><linearGradient id="linear-gradient-4" x1="644.17" y1="721.5" x2="344.17" y2="1061.5" gradientUnits="userSpaceOnUse"><stop offset="0" stop-color="#fe7062"/><stop offset="1" stop-color="#ff928e"/></linearGradient><linearGradient id="linear-gradient-5" x1="627.97" y1="1479.05" x2="825.99" y2="1248.03" xlink:href="#linear-gradient-4"/><linearGradient id="linear-gradient-6" x1="107.91" y1="1563.8" x2="792.46" y2="355.78" gradientUnits="userSpaceOnUse"><stop offset="0" stop-color="#09005d"/><stop offset="1" stop-color="#1a0f91"/></linearGradient><linearGradient id="linear-gradient-7" x1="716.07" y1="159" x2="508.07" y2="471" gradientUnits="userSpaceOnUse"><stop offset="0" stop-color="#ff928e"/><stop offset="1" stop-color="#feb3b1"/></linearGradient><linearGradient id="linear-gradient-8" x1="518.97" y1="76.34" x2="418.97" y2="272.34" xlink:href="#linear-gradient-7"/><linearGradient id="linear-gradient-9" x1="682.1" y1="159.56" x2="582.1" y2="355.56" xlink:href="#linear-gradient-7"/><linearGradient id="linear-gradient-10" x1="593.41" y1="114.32" x2="493.41" y2="310.32" xlink:href="#linear-gradient-7"/><linearGradient id="linear-gradient-11" x1="1634.92" y1="-1374.52" x2="1413.52" y2="-919.19" gradientTransform="translate(-1235.01 934.74) rotate(15.23)" gradientUnits="userSpaceOnUse"><stop offset="0" stop-color="#a22b25"/><stop offset="1" stop-color="#c0423c"/></linearGradient><linearGradient id="linear-gradient-12" x1="601.54" y1="1003.13" x2="286.51" y2="1279.16" xlink:href="#linear-gradient-7"/><linearGradient id="linear-gradient-13" x1="512.93" y1="902" x2="197.9" y2="1178.03" xlink:href="#linear-gradient-7"/><linearGradient id="linear-gradient-14" x1="1009.43" y1="453.37" x2="817.41" y2="666.39" xlink:href="#linear-gradient-6"/><linearGradient id="linear-gradient-15" x1="516.99" y1="448.7" x2="345.52" y2="809.57" gradientTransform="matrix(1, 0, 0, 1, 0, 0)" xlink:href="#linear-gradient"/><linearGradient id="linear-gradient-16" x1="590.94" y1="416.97" x2="491.2" y2="894.39" gradientTransform="matrix(1, 0, 0, 1, 0, 0)" xlink:href="#linear-gradient"/><linearGradient id="linear-gradient-17" x1="419.76" y1="552.38" x2="243.44" y2="696.58" gradientTransform="matrix(1, 0, 0, 1, 0, 0)" xlink:href="#linear-gradient"/><linearGradient id="linear-gradient-18" x1="569.58" y1="558.95" x2="597.62" y2="785.88" gradientTransform="matrix(1, 0, 0, 1, 0, 0)" xlink:href="#linear-gradient"/><linearGradient id="linear-gradient-19" x1="476.71" y1="793.99" x2="456.71" y2="945.99" xlink:href="#linear-gradient-7"/><linearGradient id="linear-gradient-20" x1="602.08" y1="365.88" x2="443.06" y2="623.91" xlink:href="#linear-gradient-6"/><linearGradient id="linear-gradient-21" x1="720.43" y1="438.82" x2="561.41" y2="696.85" xlink:href="#linear-gradient-6"/><linearGradient id="linear-gradient-22" x1="478.71" y1="794.25" x2="458.71" y2="946.25" xlink:href="#linear-gradient-7"/><linearGradient id="linear-gradient-23" x1="414.44" y1="785.79" x2="394.44" y2="937.79" xlink:href="#linear-gradient-7"/><linearGradient id="linear-gradient-24" x1="602.01" y1="87.01" x2="406.33" y2="301.47" gradientTransform="translate(165.07 -163.79) rotate(-2.29)" gradientUnits="userSpaceOnUse"><stop offset="0" stop-color="#020039"/><stop offset="1" stop-color="#090056"/></linearGradient><linearGradient id="linear-gradient-25" x1="593.75" y1="39.96" x2="342.26" y2="404.12" gradientTransform="translate(165.07 -163.79) rotate(-2.29)" xlink:href="#linear-gradient-6"/><linearGradient id="linear-gradient-26" x1="692.97" y1="-167.77" x2="650.96" y2="-25.71" xlink:href="#linear-gradient-6"/><linearGradient id="linear-gradient-27" x1="644.66" y1="105.51" x2="750.66" y2="363.51" xlink:href="#linear-gradient-6"/><linearGradient id="linear-gradient-28" x1="994.01" y1="300.24" x2="1035.69" y2="300.24" gradientUnits="userSpaceOnUse"><stop offset="0" stop-color="#dae3fe"/><stop offset="1" stop-color="#e9effd"/></linearGradient><linearGradient id="linear-gradient-29" x1="962.41" y1="300.6" x2="1067.88" y2="300.6" xlink:href="#linear-gradient-28"/><linearGradient id="linear-gradient-30" x1="863.05" y1="430.69" x2="882.71" y2="430.69" xlink:href="#linear-gradient-28"/><linearGradient id="linear-gradient-31" x1="847.45" y1="430.69" x2="898.31" y2="430.69" xlink:href="#linear-gradient-28"/><linearGradient id="linear-gradient-32" x1="806.58" y1="227.35" x2="824.88" y2="227.35" xlink:href="#linear-gradient-28"/><linearGradient id="linear-gradient-33" x1="792.5" y1="227.5" x2="839.21" y2="227.5" xlink:href="#linear-gradient-28"/><linearGradient id="linear-gradient-34" x1="1108.26" y1="503.6" x2="1139.08" y2="503.6" xlink:href="#linear-gradient-28"/><linearGradient id="linear-gradient-35" x1="1088.28" y1="503.84" x2="1159.45" y2="503.84" xlink:href="#linear-gradient-28"/></defs><g class="cls-1"><g id="Слой_2" data-name="Слой 2"><g id="Illustration"><ellipse class="cls-2" cx="694.53" cy="643.63" rx="643.51" ry="694.61" transform="translate(21.06 1309.26) rotate(-87.49)"/><g class="cls-3"><path class="cls-4" d="M873.18,646.74c-.06,56.8-2.15,113.6-6.57,170.25S855.11,930.08,845,986c-10.28,55.87-23.38,111.45-43.19,165-10,26.65-21.7,52.92-37.51,77-8,11.93-17,23.38-28.2,32.81a80.6,80.6,0,0,1-18.52,11.91,55.71,55.71,0,0,1-21.68,5.08,54.82,54.82,0,0,1-21.91-4,75.46,75.46,0,0,1-18.95-11.25c-11.46-9.14-20.7-20.46-28.82-32.3-16.09-23.88-27.9-50.1-38-76.7A789.26,789.26,0,0,1,562.78,1072c-7.1-27.55-13.06-55.37-18.2-83.32-10.26-55.92-17.27-112.38-22-169s-7.11-113.43-7.47-170.24c-.16-28.41.71-56.81,1.74-85.19s2.72-56.74,4.85-85.06C526,422.53,532.33,366,541.74,310c4.73-28,10.23-55.9,16.84-83.55a800.87,800.87,0,0,1,23.85-81.89c9.63-26.75,20.85-53.18,36.47-77.21C626.76,55.4,635.79,44,647.06,34.88A72,72,0,0,1,665.7,23.75,52.78,52.78,0,0,1,687.15,20a57.1,57.1,0,0,1,21.19,4.94,82.45,82.45,0,0,1,18.39,11.44c11.23,9.1,20.51,20.21,28.75,31.87,16.37,23.5,28.72,49.39,39.42,75.74,21.12,52.91,35.45,108.18,46.72,163.85a1609.45,1609.45,0,0,1,24,168.7C870.58,533.11,873,589.92,873.18,646.74Zm-10.81,0c.14-56.52-2-113.06-6.64-169.39s-11.5-112.49-21.87-168S810,198.7,789.76,146c-10.23-26.24-22.1-52-37.85-75.3C744,59.13,735.07,48.16,724.36,39.24S700.88,23.6,687.05,23.17A48.78,48.78,0,0,0,667,27,68.56,68.56,0,0,0,649.44,37.8c-10.68,8.9-19.34,20.11-26.87,31.9-15,23.76-25.73,50-34.89,76.67A799,799,0,0,0,565.16,228c-6.18,27.56-11.26,55.37-15.57,83.3-17.05,111.8-22.53,225.13-22.11,338.14q-.32,84.78,5.75,169.42c4.17,56.36,10.6,112.58,20.24,168.25,4.83,27.82,10.48,55.51,17.25,82.9a781.58,781.58,0,0,0,24.36,81c9.76,26.36,21.17,52.3,36.57,75.63,7.75,11.57,16.57,22.52,27.22,31.19s23.45,14.76,36.91,14.3,26.05-7,36.37-16,19.05-20.07,26.67-31.74c15.13-23.51,26.37-49.51,36-75.92,19-53.05,31.49-108.38,41.13-164s15.93-111.9,20.16-168.25S862.41,703.27,862.37,646.74Z"/><path class="cls-4" d="M1159.67,646.74c-.42,73.21-9.87,146.44-29.5,217-20,70.43-50.17,138.14-91.05,198.93s-92.81,114.46-154.93,153.48a411.71,411.71,0,0,1-99.65,45.51,374.06,374.06,0,0,1-216.66.12,411.87,411.87,0,0,1-99.75-45.41c-62.21-39-114.31-92.74-155.25-153.4s-71.24-128.55-91.36-199a786.66,786.66,0,0,1-22.14-107.63,862.37,862.37,0,0,1-7.45-109.62,862.18,862.18,0,0,1,7.54-109.61A785.74,785.74,0,0,1,221.7,429.54c20.19-70.43,50.5-138.13,91.52-198.84S406.28,116.42,468.45,77.58a413.88,413.88,0,0,1,99.65-45.2,370.62,370.62,0,0,1,216.23.12,413.26,413.26,0,0,1,99.54,45.3C946,116.69,997.93,170.42,1038.78,231s71.14,128.37,91.21,198.75C1149.68,500.31,1159.18,573.53,1159.67,646.74Zm-12.38,0c-.06-72.14-9-144.37-28-214S1071.55,296,1032,235.54A565,565,0,0,0,964.5,151c-25.2-25.84-53-49.24-83.5-68.67A403.72,403.72,0,0,0,783,37a358.87,358.87,0,0,0-213.47.12,402.94,402.94,0,0,0-97.91,45.5c-30.43,19.46-58.21,42.88-83.36,68.73A565.08,565.08,0,0,0,321,235.85c-39.49,60.42-68.11,127.57-87,197.08a791.52,791.52,0,0,0-20.9,106,827.85,827.85,0,0,0,.08,215.62,794.54,794.54,0,0,0,21,106c19,69.47,47.68,136.56,87.2,196.9a564.8,564.8,0,0,0,67.29,84.43c25.15,25.8,52.9,49.19,83.33,68.57a404.91,404.91,0,0,0,97.81,45.29,355.75,355.75,0,0,0,213,.12,405.32,405.32,0,0,0,97.92-45.19c30.46-19.36,58.27-42.73,83.47-68.51a564.65,564.65,0,0,0,67.46-84.4c39.63-60.36,68.39-127.48,87.51-197S1147.17,718.88,1147.29,646.74Z"/><path class="cls-4" d="M113.69,397.1c48.26-.7,96.52-1,144.77-1.5l144.78-.85c48.25-.37,96.51-.33,144.77-.44l144.77-.25,289.54.76,144.77.93c48.26.55,96.52.87,144.77,1.62a.54.54,0,0,1,.54.56.54.54,0,0,1-.54.53c-48.25.75-96.51,1.07-144.77,1.63L982.32,401l-289.54.75L548,401.52c-48.26-.11-96.52-.07-144.77-.43l-144.78-.86c-48.25-.5-96.51-.8-144.77-1.5a.82.82,0,0,1,0-1.63Z"/><path class="cls-4" d="M281.64,154.62c34.27-.7,68.53-1,102.79-1.5l102.78-.85c34.26-.37,68.52-.33,102.78-.44l102.79-.25,102.78.29c34.26.17,68.52.07,102.78.47l102.79.93c34.26.55,68.52.87,102.78,1.62a.56.56,0,0,1,.54.56.55.55,0,0,1-.54.53c-34.26.75-68.52,1.07-102.78,1.63l-102.79.93c-34.26.39-68.52.3-102.78.47l-102.78.29L590,159c-34.26-.11-68.52-.07-102.78-.43l-102.78-.86c-34.26-.5-68.52-.8-102.79-1.5a.82.82,0,0,1,0-1.63Z"/><path class="cls-4" d="M63.38,639.58l157.35-1.5,157.35-.85c52.45-.37,104.9-.33,157.35-.44l157.35-.25,314.7.75,157.34.94c52.45.55,104.9.87,157.35,1.62a.55.55,0,0,1,0,1.09c-52.45.75-104.9,1.07-157.35,1.63l-157.34.93-314.7.75L535.43,644c-52.45-.11-104.9-.07-157.35-.43l-157.35-.86-157.35-1.5a.8.8,0,0,1-.8-.82A.81.81,0,0,1,63.38,639.58Z"/><path class="cls-4" d="M113.69,882.06c48.26-.7,96.52-1,144.77-1.5l144.78-.85c48.25-.37,96.51-.33,144.77-.44L692.78,879l289.54.75,144.77.94c48.26.55,96.52.87,144.77,1.62a.55.55,0,0,1,0,1.09c-48.25.75-96.51,1.07-144.77,1.63L982.32,886l-289.54.75L548,886.48c-48.26-.11-96.52-.07-144.77-.43l-144.78-.86c-48.25-.5-96.51-.8-144.77-1.5a.82.82,0,0,1,0-1.63Z"/><path class="cls-4" d="M1124.63,1128.21H302.36a2.86,2.86,0,0,1,0-5.71h822.27a2.86,2.86,0,0,1,0,5.71Z"/></g><path class="cls-5" d="M909.21,96c-56.63-.44-113.75,8.54-164.28,29.51-117.64,48.8-217.47,178-178.4,309.87,12.69,42.86,6,90.13,48.71,108.76,23.1,10.07,86,16.07,109.92,8.13,63.57-21.11,105.35-78.87,70.78-142.93-11.07-20.51-25.4-39.25-35-60.51s-13.92-46.49-4.17-67.67c19.13-41.57,82.69-54.78,123.91-53.53,48.65,1.47,92.73,25.53,118.91,66.81,32.63,51.45,40.9,114,36.12,173.74-5.11,63.9-32,112.7-72.43,161.72-34.76,42.2-73.05,82.71-96.15,132.27C846,807.67,839,858.08,838.07,907.86c-.19,9.64-48.16,100.56-48,128.33,0,3.92,54.41,16.92,58.34,17l99.81,1.11a8,8,0,0,0,8.06-7.85c1.52-135.12,43.08-264,148.3-354.7,38.28-33,79.51-59.91,109.28-101.59,42.43-59.41,63.36-117.87,57.32-191.19C1265.7,332,1243.65,265,1200,213c-46.91-55.84-115.58-90.71-186.94-105.76A526.25,526.25,0,0,0,909.21,96Z"/><path class="cls-6" d="M1013.63,1205.75c0,62.14-34.44,117.11-96.58,117.11-13.42,0-59.07.12-71-4.19-43.31-15.65-43.47-48.93-43.47-97.64,0-62.14,21-123.25,83.12-123.25S1013.63,1143.61,1013.63,1205.75Z"/><path class="cls-7" d="M855.4,81.86c-56.62-.45-113.74,8.53-164.28,29.5-117.63,48.81-217.47,178-178.4,309.87,12.69,42.86,42,96.8,84.73,115.42,23.1,10.08,50,9.41,73.91,1.47,63.56-21.1,105.35-78.87,70.78-142.93-11.08-20.51-25.41-39.25-35-60.51S693.26,288.19,703,267c19.14-41.56,82.7-54.78,123.91-53.53C875.56,215,919.65,239,945.83,280.29c32.62,51.45,40.89,114,36.11,173.74-5.11,63.9-32.05,112.7-72.43,161.72-34.76,42.2-73,82.71-96.15,132.27-21.21,45.5-28.14,95.91-29.1,145.68-.18,9.64,3.06,110.38,3.27,138.16a7.2,7.2,0,0,0,7.11,7.14l99.82,1.11a8,8,0,0,0,8.06-7.85c1.51-135.12,43.08-264,148.29-354.7,38.29-33,79.52-59.91,109.28-101.59,42.43-59.41,63.36-117.87,57.32-191.19-5.51-67-27.56-134-71.21-185.91C1099.29,143,1030.63,108.16,959.27,93.11A526.44,526.44,0,0,0,855.4,81.86Z"/><circle class="cls-8" cx="861.27" cy="1206.87" r="112.51"/><path class="cls-9" d="M550,407.84a1,1,0,0,1-1-.76c-7.86-35.52-9-91.14,30.16-154.42,38.26-61.8,91.92-103.15,159.5-122.91,72.26-21.12,158.08-16.59,255.07,13.46a1,1,0,1,1-.57,1.86C806.44,87.21,660,125.79,580.83,253.68c-38.84,62.73-37.7,117.81-29.92,153a1,1,0,0,1-.74,1.16Z"/><path class="cls-9" d="M573.63,465.12a1,1,0,0,1-.79-.4c-.08-.11-8.41-11.62-15.93-31.29a1,1,0,1,1,1.82-.7c7.42,19.41,15.6,30.73,15.68,30.84a1,1,0,0,1-.21,1.36A.93.93,0,0,1,573.63,465.12Z"/><path class="cls-9" d="M898.92,1133.48a1,1,0,0,1-.44-.1,81.4,81.4,0,0,0-37.21-8.87,1,1,0,0,1,0-2,83.43,83.43,0,0,1,38.09,9.08,1,1,0,0,1-.44,1.84Z"/><path class="cls-9" d="M814.68,1277a1,1,0,0,1-.55-.17,84.33,84.33,0,0,1,7.28-144.22,1,1,0,1,1,.92,1.72,82.39,82.39,0,0,0-7.11,140.89,1,1,0,0,1,.27,1.35A1,1,0,0,1,814.68,1277Z"/><path class="cls-10" d="M225.77,583.51c24.87,311.21,111.36,580.09,101.1,733.75a23.71,23.71,0,0,0,14.51,23.51c92.6,38.42,194.5,55,308.78,20a33.61,33.61,0,0,0,23.64-32.54c-2.47-246.79,133.77-497.76,57.72-786.81-28.73-11.1-106.11-17-172.54-13.21L432.7,536.94C378.71,538.76,278,549.27,225.77,583.51Z"/><path class="cls-11" d="M442.41,405.19l-22.3,161.75c-.07.45-.15.9-.26,1.34l-.57,2.28c-1.25,7.92,79.16,61.84,142-11.66l-17-161.61c-1.85-8.89-16.33-11.28-25.4-10.85l-59,2.83A18.46,18.46,0,0,0,442.41,405.19Z"/><path class="cls-12" d="M423.13,341.41s24.17-59.7,2.55-75.47-54.88-9.43-49.45,34.78C383,355.71,423.13,341.41,423.13,341.41Z"/><path class="cls-13" d="M551.32,369.76s9.44-63.72,36.07-66.35,52.08,19.7,25,55C578.68,402.44,551.32,369.76,551.32,369.76Z"/><path class="cls-14" d="M413.5,219.68c88.71-44.1,166.17-32.12,210,56.79-39.3,128.36-99.28,229.33-166.11,208.2C388.9,467.47,392.21,348.31,413.5,219.68Z"/><path class="cls-15" d="M609.61,123.08a62.18,62.18,0,0,1,23.44,17.19c9.62,11.7,14,28.19,9.22,42.58-2.08,6.32-6.08,13.9-2.67,20.42,2.88,5.49,11,10,14.71,15.63,7.08,11,5.84,25.69.48,37.61-4.64,10.36-12.61,22.76-21.43,29.89-9.44,7.62-13.45,15.72-17.3,27.32-4.38,13.2-9.61,26-14.51,39-3.27,8.68-3.6,21.16-12.22,26.9-1.87,1.24-4.78,1.19-6-.67-1-1.49-.66-3.47-.26-5.21,7.68-34.25,20.88-67.87,23.45-103,.17-2.34.09-4.82-1.1-6.84a12.16,12.16,0,0,0-3.71-3.57c-8.44-5.89-17.22-8.19-24.74-15.66-5.13-5.11-5.22-10.06-13.51-8a55.36,55.36,0,0,1-32.75-2.1c-6.37-2.45-13-6.16-19.6-4.26-5.08,1.48-8.57,6-12.58,9.41C480.66,255,455,250.8,433.84,248.36a4.58,4.58,0,0,0-2.44.17,4.5,4.5,0,0,0-1.88,2.53c-1.91,4.6-3.62,9.29-5.33,14l-14.82,40.64c-1.92,5.26-2.57,10.4-4,15.52-.52,1.88-1.5,3.92-3.34,4.83-.66.33-6.12.85-6-.19q4.57-30.74,9.13-61.46c3.39-22.76-10.59-44.58-10.31-67.38.19-15.69,7.77-32.68,22.5-38.07,7-2.55,15.14-2.4,21-7,4.51-3.51,6.71-9.11,9.49-14.1,11.8-21.2,37.88-33.4,61.72-28.88,14.82,2.82,20.95,15,37.59,11.09,15.74-3.72,30.72-5.25,47.07-1.83A79.81,79.81,0,0,1,609.61,123.08Z"/><path class="cls-16" d="M325.45,1088.71c62.22-3.33,170.11-9.29,252.22-75.08,13.18,27,19.62,39.74,88.62,89.1-84.21,41.72-214.94,77.94-366.23,42.89Z"/><path class="cls-17" d="M334.43,1147.59a20.29,20.29,0,0,0,10.24-27.24c-8.25-17.44-22.35-44.69-33.6-53.45-10.68-8.31-23.54-12.68-35.42-18.89-4.35-2.27-13.31-10.94-18-10.8-7.15.23-7.93,9.44-8.86,14.8a166.26,166.26,0,0,0,9.72,90c1,2.49,2.13,5,4.1,6.86a19.29,19.29,0,0,0,6.15,3.45,403.65,403.65,0,0,0,41.72,14.26,5.34,5.34,0,0,0,6.62-3.76c1.1-4.14,2.9-9.29,3.63-10.12C324.4,1148.67,329.63,1149.71,334.43,1147.59Z"/><path class="cls-18" d="M565.9,1030.39a10.48,10.48,0,0,1,2.7-15.65,104.56,104.56,0,0,0,35.17-34.28C648.17,907.72,658,758.84,658,758.84S615.15,522.34,716.79,534c0,0,187.73,62.55,37.55,459.07-11,29-58.68,89.39-88.34,112.42a8.69,8.69,0,0,1-9.85.53C620.84,1084.44,591,1060.78,565.9,1030.39Z"/><path class="cls-19" d="M364.1,884.62a3.56,3.56,0,0,1-3.43-2.5c-12.28-37.73-29.4-76.52-50.86-115.29a1.12,1.12,0,1,1,2-1.09c21.53,38.9,38.7,77.82,51,115.68a1.31,1.31,0,0,0,1.33,1,1.34,1.34,0,0,0,1.31-1c12.38-44.65,34.75-89.08,55-126.65a1.11,1.11,0,0,1,1.51-.46,1.13,1.13,0,0,1,.46,1.52C402.22,793.23,379.92,837.52,367.6,882a3.58,3.58,0,0,1-3.42,2.67Z"/><path class="cls-20" d="M427.13,1077.05a1.11,1.11,0,0,1-.84-1.86c54.44-61.14,95-169.17,111.2-296.39a1.12,1.12,0,1,1,2.22.28c-16.29,127.66-57,236.13-111.74,297.6A1.12,1.12,0,0,1,427.13,1077.05Z"/><path class="cls-21" d="M310.79,767.41a1.12,1.12,0,0,1-1.12-1.12c0-81.53-43.45-173.23-77.13-184.82a1.12,1.12,0,0,1,.73-2.12c16.72,5.75,36.17,30.54,52,66.31,16.91,38.1,26.6,82.07,26.6,120.63A1.12,1.12,0,0,1,310.79,767.41Z"/><path class="cls-22" d="M563.51,1022.21a1.1,1.1,0,0,1-.9-.46,1.12,1.12,0,0,1,.23-1.57c31.83-23.48,56.83-67.48,72.3-127.22,13.38-51.69,19.17-113.37,16.29-173.69a1.12,1.12,0,0,1,1.07-1.17,1.1,1.1,0,0,1,1.17,1.06c2.88,60.54-2.93,122.46-16.36,174.36-15.6,60.25-40.89,104.67-73.14,128.47A1.09,1.09,0,0,1,563.51,1022.21Z"/><path class="cls-23" d="M487.16,490l-9.41,69.16c-14.12,85.87-44.66,150-54.41,206.55,2.85-16.55,32.18,12.29,49.1,19.62,20.87,9,40.33,18.37,58.34,27.7,16-84.64,5.21-237.2,5.21-237.2C518.44,518.17,504.71,547.61,487.16,490Z"/><path class="cls-24" d="M225.77,583.51C88.86,704.82,190.94,1037,346.57,1113.84a12.45,12.45,0,0,0,6.27,1.23c129.71-7.43,29.3-186.94-41-343.91a12.57,12.57,0,0,1-1.09-4.87C309.21,693,289.5,634.93,243.4,584.42A12.58,12.58,0,0,0,225.77,583.51Z"/><path class="cls-25" d="M353.75,1115.19c109.36-3.87,171.1-227.91,184.85-336.25a4.59,4.59,0,0,0-6.21-4.85c-29.69,11.38-66.27-1.12-104.61-21.18a4.59,4.59,0,0,0-6.36,2.32c-31.56,76.56-84.95,179.51-85.19,217.54a4.19,4.19,0,0,0,0,.5L349.05,1111A4.59,4.59,0,0,0,353.75,1115.19Z"/><path class="cls-26" d="M469.2,595.33c-8.87-32.3-20.73-68.12-12.59-80.4,22.71-27.87,55.85-45.17,73.84-54.5,29.43-7.8,26.89,37.41,38.94,81,8.16,11.86-12.09,40.91-31.5,69.45Z"/><path class="cls-27" d="M456.61,539.2c-10.7-15.71-6.36-66.51-21.65-76.36-1.24-.8-.25-2.87,1.19-3.13,9.35-1.67,18.9-2.34,23.82,2.89,5.24,5.25,6.35,24.42,15.31,33.3Z"/><polygon class="cls-28" points="503.72 25.72 484.22 70.11 579.56 207.52 692.07 178.2 727.78 139.14 503.72 25.72"/><path class="cls-29" d="M562,161.94a6,6,0,0,1-4-2.28l-72.53-92.8-21.94,58.91c-3.08,8.25-1.59,17.11,3.79,22.57,49.28,50,102.52,83,163.14,84.49A21.11,21.11,0,0,0,645.85,226l47.24-48.86Z"/><path class="cls-30" d="M469,5.81,650.61,21.6a6,6,0,0,1,4.06,2.09l116.77,137c4.34,5.09-.46,14.15-7.1,13.38L567.52,151.28a6,6,0,0,1-4-2.27L461.87,19C457.87,13.89,462.5,5.25,469,5.81Z"/><path class="cls-31" d="M754,163.19h-.12l-182.55-21a1,1,0,0,1-.69-.39L477.57,21.26a1,1,0,0,1,.18-1.43,1,1,0,0,1,1.43.19L572,140.24l182.12,20.92a1,1,0,0,1-.11,2Z"/><path class="cls-32" d="M602.93,69.74s110.78,81.73,115.24,97.7c2.24,8.06-7.3,58.23-7.3,58.23,18.25,55.72,23.07,116.82-2.68,149.91,0,0-36.29-72.77-22.65-104.6s18.86-44.87,18.86-44.87,8.68-49.74,4.15-59.72C708.55,166.39,594.46,74.14,602.93,69.74Z"/><path class="cls-31" d="M704.8,260.21l-.19.21-.21.28-.44.56-.83,1.21c-.55.82-1,1.72-1.54,2.58l-1.34,2.72c-.41.92-.77,1.88-1.16,2.82a26,26,0,0,0-1,2.89c-.31,1-.65,1.95-.92,2.93l-.71,3a27.93,27.93,0,0,0-.64,3l-.49,3.06c-.15,1-.36,2-.41,3.08-.16,2.06-.35,4.13-.49,6.2l0,6.24c0,.52,0,1,0,1.56l.1,1.56.2,3.12c.13,4.18.87,8.3,1.37,12.46.11,1,.32,2.06.53,3.09l.61,3.08c.42,2.05.8,4.12,1.25,6.16,1.09,4.05,2.09,8.13,3.25,12.17l3.9,12v0a.7.7,0,0,1-1.33.46l-4.24-12c-1.27-4-2.39-8.12-3.6-12.18-.51-2.06-.94-4.14-1.42-6.2l-.7-3.11c-.24-1-.48-2.07-.62-3.12-.62-4.21-1.48-8.38-1.73-12.64l-.28-3.19-.14-1.59c0-.53,0-1.07,0-1.6l-.12-6.41c.09-2.14.23-4.28.34-6.42,0-1.07.21-2.14.34-3.2l.43-3.2a31.68,31.68,0,0,1,.58-3.18l.67-3.17c.26-1,.59-2.08.88-3.13a29.48,29.48,0,0,1,1-3.1c.38-1,.74-2,1.16-3.05l1.38-3c.55-1,1-1.95,1.63-2.9l.92-1.42.52-.7.26-.36.33-.39a2,2,0,1,1,3.1,2.59l0,0Z"/><path class="cls-31" d="M709,286.32l.15,4,.22,4.47.47,9,1,17.92L713,357.47a1.09,1.09,0,0,1-1,1.16,1.11,1.11,0,0,1-1.17-1l-3.07-35.78L706.22,304l-.7-9-.33-4.49-.15-2.26L705,287.1c0-.49,0-1.07,0-1.6a2,2,0,0,1,3.93,0Z"/><path class="cls-33" d="M985.66,180.08a2.2,2.2,0,0,1,1.73-2c1.16-.26,2.34-.5,3.51-.72a2.21,2.21,0,0,1,.81,4.34c-1.13.21-2.26.44-3.39.68a2.21,2.21,0,0,1-2.62-1.68A2.23,2.23,0,0,1,985.66,180.08Z"/><path class="cls-33" d="M1000.68,177.78a2.21,2.21,0,0,1,2-2c2.43-.22,4.89-.36,7.32-.43a2.2,2.2,0,0,1,.13,4.4c-2.34.07-4.72.21-7,.42a2.21,2.21,0,0,1-2.39-2C1000.68,178,1000.68,177.9,1000.68,177.78Zm18.87-.21a2.19,2.19,0,0,1,2.34-2l.79.05c2.15.15,4.34.37,6.5.63a2.21,2.21,0,0,1-.54,4.38c-2.09-.26-4.2-.47-6.27-.62l-.77-.05a2.2,2.2,0,0,1-2.05-2.34Zm18.67,2.65c0-.1,0-.21,0-.32a2.19,2.19,0,0,1,2.62-1.67c2.38.52,4.77,1.12,7.1,1.78a2.2,2.2,0,0,1-1.2,4.24c-2.25-.64-4.55-1.22-6.84-1.72A2.22,2.22,0,0,1,1038.22,180.22Zm18,5.46a2.48,2.48,0,0,1,.15-.64,2.2,2.2,0,0,1,2.85-1.25c2.26.88,4.53,1.84,6.74,2.85a2.21,2.21,0,0,1-1.84,4c-2.13-1-4.32-1.91-6.5-2.76A2.22,2.22,0,0,1,1056.27,185.68Zm17,8.18a2.15,2.15,0,0,1,.29-.94,2.2,2.2,0,0,1,3-.8c2.1,1.22,4.2,2.52,6.23,3.87a2.2,2.2,0,1,1-2.44,3.67c-1.95-1.3-4-2.55-6-3.73A2.21,2.21,0,0,1,1073.27,193.86Zm15.53,10.72a2.28,2.28,0,0,1,.49-1.23,2.2,2.2,0,0,1,3.1-.32c1.89,1.53,3.76,3.14,5.55,4.77a2.21,2.21,0,0,1-3,3.26c-1.73-1.58-3.53-3.13-5.36-4.61A2.2,2.2,0,0,1,1088.8,204.58Zm13.71,13a2.2,2.2,0,0,1,3.83-1.32c1.63,1.8,3.23,3.67,4.75,5.56a2.2,2.2,0,1,1-3.43,2.76c-1.47-1.82-3-3.63-4.59-5.37A2.18,2.18,0,0,1,1102.51,217.55Zm11.56,14.91a2.24,2.24,0,0,1,1-1.69,2.21,2.21,0,0,1,3.06.63c1.33,2,2.63,4.12,3.84,6.22a2.2,2.2,0,1,1-3.81,2.21c-1.17-2-2.42-4.05-3.71-6A2.23,2.23,0,0,1,1114.07,232.46Zm9.15,16.49a2.2,2.2,0,0,1,4.2-.76c1,2.2,2,4.47,2.85,6.73a2.2,2.2,0,1,1-4.1,1.6c-.85-2.18-1.78-4.37-2.75-6.5A2.13,2.13,0,0,1,1123.22,249ZM1116,364.41a2.2,2.2,0,0,1,.33-1c1.23-2,2.42-4.05,3.53-6.11a2.2,2.2,0,1,1,3.88,2.09c-1.15,2.14-2.39,4.27-3.67,6.34a2.2,2.2,0,0,1-4.07-1.32Zm13.71-97.77a2.2,2.2,0,0,1,4.32-.44c.66,2.34,1.26,4.72,1.78,7.09a2.2,2.2,0,1,1-4.3.94c-.51-2.28-1.08-4.58-1.72-6.83A2.22,2.22,0,0,1,1129.73,266.64Zm-5,81a2.16,2.16,0,0,1,.16-.7c.92-2.16,1.77-4.38,2.55-6.59a2.21,2.21,0,0,1,4.16,1.47c-.81,2.29-1.7,4.59-2.65,6.83a2.2,2.2,0,0,1-4.22-1Zm8.76-62.53a2.2,2.2,0,0,1,4.38-.11c.3,2.42.52,4.87.67,7.29a2.2,2.2,0,1,1-4.4.27c-.14-2.33-.36-4.7-.64-7A2,2,0,0,1,1133.44,285.12Zm-2.8,44.63a2.5,2.5,0,0,1,.06-.38c.57-2.27,1.07-4.6,1.51-6.9a2.2,2.2,0,0,1,4.33.81c-.45,2.39-1,4.8-1.57,7.16a2.2,2.2,0,0,1-4.33-.69Zm3.61-25.79a2.2,2.2,0,0,1,4.4.24c-.08,2.42-.24,4.87-.46,7.3a2.2,2.2,0,0,1-4.39-.4c.22-2.36.37-4.72.45-7.05Z"/><path class="cls-33" d="M1107.18,376.88a2.19,2.19,0,0,1,.48-1.22c.73-.9,1.44-1.8,2.14-2.72a2.2,2.2,0,1,1,3.5,2.66c-.72,1-1.46,1.9-2.21,2.83a2.21,2.21,0,0,1-3.91-1.55Z"/><path class="cls-33" d="M1024,422a2.21,2.21,0,0,1,2-2c1.15-.12,2.3-.25,3.44-.4a2.2,2.2,0,1,1,.56,4.37c-1.18.15-2.37.29-3.56.41a2.2,2.2,0,0,1-2.41-2C1024,422.21,1024,422.08,1024,422Z"/><path class="cls-33" d="M889.56,289v0c.19-2.12.44-4.27.74-6.38l.11-.77a2.2,2.2,0,1,1,4.36.64l-.11.75c-.29,2-.53,4.11-.71,6.16a2.2,2.2,0,0,1-4.39-.36Zm-.5,11.49a2.2,2.2,0,0,1,4.4.15c0,2.31.08,4.64.22,6.94a2.2,2.2,0,1,1-4.39.27c-.15-2.38-.23-4.8-.24-7.2C889.05,300.62,889.06,300.56,889.06,300.51Zm3.54-29.8a2.2,2.2,0,0,1,.06-.37c.57-2.33,1.21-4.67,1.91-6.95a2.2,2.2,0,0,1,4.21,1.29c-.67,2.2-1.29,4.46-1.84,6.7a2.2,2.2,0,0,1-4.34-.67ZM890.53,319a2.21,2.21,0,0,1,4.38-.18c.35,2.28.78,4.58,1.27,6.83a2.2,2.2,0,1,1-4.3.93c-.51-2.33-1-4.71-1.32-7.08A2.13,2.13,0,0,1,890.53,319Zm7.83-66a2.32,2.32,0,0,1,.16-.68c.91-2.21,1.9-4.43,2.94-6.58a2.2,2.2,0,1,1,4,1.91c-1,2.08-2,4.22-2.84,6.35a2.2,2.2,0,0,1-4.23-1Zm-3.56,84a2.2,2.2,0,0,1,4.3-.52c.7,2.2,1.47,4.4,2.3,6.55a2.21,2.21,0,0,1-4.12,1.58c-.85-2.23-1.65-4.51-2.38-6.79A2.31,2.31,0,0,1,894.8,337.08Zm11.93-100.6a2.22,2.22,0,0,1,.32-1c1.24-2.05,2.55-4.09,3.91-6.06a2.2,2.2,0,0,1,3.63,2.5c-1.31,1.9-2.58,3.86-3.78,5.84a2.2,2.2,0,0,1-4.08-1.3Zm-5,117.8a2.18,2.18,0,0,1,1.22-1.82,2.21,2.21,0,0,1,2.95,1c1,2.08,2.12,4.14,3.26,6.14a2.2,2.2,0,0,1-3.83,2.18c-1.18-2.07-2.31-4.21-3.38-6.36A2.14,2.14,0,0,1,901.76,354.28Zm9.47,16a2.23,2.23,0,0,1,.93-1.65,2.21,2.21,0,0,1,3.07.54c1.32,1.89,2.72,3.77,4.15,5.58a2.2,2.2,0,0,1-3.46,2.73c-1.48-1.88-2.93-3.82-4.3-5.78A2.17,2.17,0,0,1,911.23,370.24ZM923,384.6a2.2,2.2,0,0,1,3.79-1.36c1.59,1.67,3.25,3.32,4.94,4.89a2.2,2.2,0,1,1-3,3.22c-1.75-1.63-3.47-3.34-5.12-5.07A2.23,2.23,0,0,1,923,384.6ZM936.78,397a2.24,2.24,0,0,1,.45-1.19,2.2,2.2,0,0,1,3.09-.39c1.83,1.41,3.72,2.79,5.63,4.09a2.21,2.21,0,0,1-2.49,3.64c-2-1.36-3.94-2.78-5.83-4.25A2.18,2.18,0,0,1,936.78,397Zm15.51,10.21a2.17,2.17,0,0,1,.27-.91,2.2,2.2,0,0,1,3-.86c2,1.12,4.11,2.2,6.19,3.2a2.2,2.2,0,0,1-1.91,4c-2.16-1-4.31-2.15-6.41-3.31A2.22,2.22,0,0,1,952.29,407.24ZM969.18,415a2.15,2.15,0,0,1,.13-.6,2.21,2.21,0,0,1,2.83-1.31c2.16.8,4.38,1.55,6.58,2.22a2.2,2.2,0,1,1-1.28,4.21c-2.28-.69-4.58-1.47-6.83-2.29A2.2,2.2,0,0,1,969.18,415ZM987,420.05a2.7,2.7,0,0,1,0-.28,2.21,2.21,0,0,1,2.6-1.72c2.26.46,4.56.87,6.85,1.2a2.2,2.2,0,0,1-.64,4.36c-2.37-.35-4.75-.77-7.09-1.24A2.21,2.21,0,0,1,987,420.05Zm18.41,2.35a2.21,2.21,0,0,1,2.32-2c2.3.12,4.64.17,7,.16a2.2,2.2,0,1,1,0,4.4c-2.39,0-4.82,0-7.2-.16a2.21,2.21,0,0,1-2.09-2.32Z"/><path class="cls-33" d="M917.57,221.31a2.25,2.25,0,0,1,.51-1.25c.77-.92,1.55-1.82,2.34-2.72a2.21,2.21,0,0,1,3.3,2.93c-.77.86-1.52,1.73-2.26,2.62a2.21,2.21,0,0,1-3.89-1.58Z"/><path class="cls-33" d="M951.79,229.26a1.46,1.46,0,0,0-.56,1.61l5,17.21a78.43,78.43,0,0,0-13.55,21.35L925,272.27a1.45,1.45,0,0,0-1.21,1.2l-3.69,21.17a1.47,1.47,0,0,0,.74,1.54l15.67,8.65A77.78,77.78,0,0,0,942,329.5L931.51,344a1.49,1.49,0,0,0,0,1.71l12.36,17.58a1.46,1.46,0,0,0,1.61.56l17.21-5A78.43,78.43,0,0,0,984,372.45l2.84,17.67a1.45,1.45,0,0,0,1.2,1.21l21.17,3.69a1.46,1.46,0,0,0,1.54-.74l8.65-15.67a77.72,77.72,0,0,0,24.67-5.53l14.52,10.5a1.49,1.49,0,0,0,1.71,0l17.57-12.36a1.48,1.48,0,0,0,.57-1.61l-5-17.21a78,78,0,0,0,13.55-21.35l17.67-2.84a1.48,1.48,0,0,0,1.22-1.2l3.68-21.17a1.46,1.46,0,0,0-.73-1.54l-15.67-8.65a78.26,78.26,0,0,0-5.53-24.67l10.49-14.52a1.47,1.47,0,0,0,0-1.71l-12.36-17.57a1.48,1.48,0,0,0-1.61-.57l-17.21,5A78,78,0,0,0,1045.66,228l-2.84-17.67a1.48,1.48,0,0,0-1.2-1.22l-21.17-3.68a1.47,1.47,0,0,0-1.54.73l-8.65,15.67a78.32,78.32,0,0,0-24.67,5.53l-14.51-10.49a1.47,1.47,0,0,0-1.71,0Z"/><path class="cls-34" d="M994.06,298.71a20.9,20.9,0,1,1,0,3.09A21.26,21.26,0,0,1,994.06,298.71Zm38.06,2.78a16.58,16.58,0,0,0,0-2.54,17.31,17.31,0,1,0-16,18.56A17.34,17.34,0,0,0,1032.12,301.49Z"/><path class="cls-35" d="M962.54,296.87c.13-1.77.35-3.54.66-5.32a54.35,54.35,0,0,1,2-7.78l0-.06.12-.33v-.05h0l0,0c0-.05,0-.11,0-.16v0l0-.07v0c.06-.16.12-.32.17-.48l.06-.17c.13-.34.26-.69.4-1s.15-.39.23-.59a.86.86,0,0,1,1.15-.48.86.86,0,0,1,.48,1.14,52,52,0,0,0-3,10.44,51,51,0,0,0,41.46,58.95,51,51,0,0,0,58.95-41.46,51,51,0,0,0-41.45-58.95,50.06,50.06,0,0,0-5.14-.63A50.86,50.86,0,0,0,996.87,253a.87.87,0,0,1-1.14-.5.87.87,0,0,1,.5-1.14,52.54,52.54,0,0,1,22.64-3.37c1.78.13,3.55.35,5.32.65a52.73,52.73,0,0,1-12.77,104.54c-1.77-.13-3.55-.34-5.33-.65A52.81,52.81,0,0,1,962.54,296.87Z"/><path class="cls-33" d="M840.28,399.38a.72.72,0,0,0-.21.79l3,8a36.9,36.9,0,0,0-5.63,10.64l-8.28,2a.71.71,0,0,0-.53.62l-.95,10.18a.71.71,0,0,0,.41.71l7.76,3.51a37,37,0,0,0,3.56,11.5L835,454.61a.68.68,0,0,0,.06.81l6.52,7.87a.7.7,0,0,0,.79.21l8-3A36.9,36.9,0,0,0,861,466.12l2,8.28a.69.69,0,0,0,.61.53l10.19.95a.7.7,0,0,0,.7-.41l3.52-7.76a37,37,0,0,0,11.49-3.56l7.29,4.43a.69.69,0,0,0,.81-.05l7.87-6.53a.7.7,0,0,0,.21-.79l-3-8a37.12,37.12,0,0,0,5.62-10.64l8.28-2a.69.69,0,0,0,.53-.61l1-10.19a.69.69,0,0,0-.41-.7l-7.76-3.51a37.28,37.28,0,0,0-3.55-11.5l4.43-7.29a.71.71,0,0,0-.06-.81l-6.53-7.87a.7.7,0,0,0-.79-.21l-8,3a37.12,37.12,0,0,0-10.64-5.62l-2-8.28a.7.7,0,0,0-.62-.53L872,385.5a.7.7,0,0,0-.71.41l-3.51,7.76a37,37,0,0,0-11.5,3.56L849,392.79a.71.71,0,0,0-.81.06Z"/><path class="cls-36" d="M863.07,430a9.87,9.87,0,1,1,.1,2.23A9.79,9.79,0,0,1,863.07,430Zm18.12,1.31a8.41,8.41,0,0,0-.07-1.87,8.37,8.37,0,1,0,.07,1.87Z"/><g class="cls-37"><path class="cls-33" d="M844.31,382.65a1.86,1.86,0,0,1,1-1.5c.9-.5,1.82-1,2.74-1.43a1.87,1.87,0,1,1,1.65,3.36c-.87.42-1.73.87-2.57,1.34a1.87,1.87,0,0,1-2.54-.72A1.8,1.8,0,0,1,844.31,382.65Z"/><path class="cls-33" d="M855.6,377.93a1.86,1.86,0,0,1,1.34-1.66,55.08,55.08,0,0,1,5.74-1.36,1.87,1.87,0,0,1,.67,3.68,53.55,53.55,0,0,0-5.36,1.27,1.87,1.87,0,0,1-2.32-1.27A1.68,1.68,0,0,1,855.6,377.93Zm14.76-2.21A1.88,1.88,0,0,1,872.2,374c1.59,0,3.2,0,4.78.14l1.12.09a1.85,1.85,0,0,1,1.69,2,1.88,1.88,0,0,1-2,1.69l-1-.08c-1.49-.11-3-.15-4.47-.13a1.87,1.87,0,0,1-1.89-1.85Zm14.81,1.85a2.14,2.14,0,0,1,.06-.35,1.88,1.88,0,0,1,2.29-1.33,55.64,55.64,0,0,1,5.61,1.83,1.87,1.87,0,1,1-1.34,3.49,50.81,50.81,0,0,0-5.24-1.7A1.87,1.87,0,0,1,885.17,377.57Zm13.76,5.79a1.79,1.79,0,0,1,.26-.82,1.87,1.87,0,0,1,2.56-.66c1.68,1,3.34,2.1,4.91,3.26a1.87,1.87,0,0,1-2.23,3,54.52,54.52,0,0,0-4.59-3A1.86,1.86,0,0,1,898.93,383.36Zm11.69,9.27a1.9,1.9,0,0,1,.58-1.21,1.87,1.87,0,0,1,2.64.05,58,58,0,0,1,3.85,4.46,1.87,1.87,0,1,1-3,2.3,51,51,0,0,0-3.6-4.17A1.9,1.9,0,0,1,910.62,392.63Zm8.77,12.08a1.87,1.87,0,0,1,3.52-.75,58.88,58.88,0,0,1,2.5,5.34,1.87,1.87,0,1,1-3.47,1.41,52.48,52.48,0,0,0-2.33-5A1.87,1.87,0,0,1,919.39,404.71Zm5.16,14a1.88,1.88,0,0,1,3.7-.27c.25,1.17.48,2.36.66,3.54.12.76.22,1.52.31,2.27a1.87,1.87,0,1,1-3.72.43c-.08-.7-.18-1.41-.29-2.12-.17-1.11-.38-2.22-.62-3.31A2,2,0,0,1,924.55,418.71Zm.62,20.55a.88.88,0,0,1,0-.16,52.73,52.73,0,0,0,.58-5.48,1.87,1.87,0,1,1,3.74.2,57.54,57.54,0,0,1-.63,5.87,1.87,1.87,0,0,1-3.71-.43Z"/><path class="cls-33" d="M921.87,451.08a2,2,0,0,1,.13-.57c.36-.89.7-1.8,1-2.71a1.87,1.87,0,0,1,3.54,1.21c-.33,1-.69,1.95-1.08,2.9a1.87,1.87,0,0,1-3.6-.83Z"/></g><g class="cls-37"><path class="cls-33" d="M890.82,481.7a1.86,1.86,0,0,1,1.19-1.61c.9-.35,1.8-.73,2.67-1.12a1.87,1.87,0,0,1,1.54,3.41c-.94.43-1.9.83-2.86,1.2a1.87,1.87,0,0,1-2.42-1.07A1.9,1.9,0,0,1,890.82,481.7Z"/><path class="cls-33" d="M816.31,426.61a57.74,57.74,0,0,1,.84-6.45,1.87,1.87,0,0,1,3.68.7,50.23,50.23,0,0,0-.78,6v.08a1.87,1.87,0,0,1-3.73-.27v-.06Zm.25,10.36a1.87,1.87,0,0,1,3.72-.09c.08.65.17,1.29.27,1.94.21,1.37.48,2.75.8,4.1a1.87,1.87,0,1,1-3.64.86c-.34-1.44-.63-2.91-.86-4.39-.11-.69-.2-1.38-.28-2.07A1.38,1.38,0,0,1,816.56,437Zm4.4,16a1.87,1.87,0,0,1,3.57-.63,52.84,52.84,0,0,0,2.82,5.44,1.87,1.87,0,0,1-3.21,1.91,55.29,55.29,0,0,1-3-5.82A1.89,1.89,0,0,1,821,453Zm9,13.94a1.86,1.86,0,0,1,.62-1.27,1.89,1.89,0,0,1,2.65.16,50.55,50.55,0,0,0,4.32,4.34,1.87,1.87,0,1,1-2.5,2.79,56.19,56.19,0,0,1-4.62-4.64A1.85,1.85,0,0,1,830,466.91Zm12.76,10.61a1.83,1.83,0,0,1,.26-.83,1.87,1.87,0,0,1,2.57-.63,52.77,52.77,0,0,0,5.42,2.85,1.87,1.87,0,0,1-1.55,3.41,55.3,55.3,0,0,1-5.8-3.06A1.86,1.86,0,0,1,842.72,477.52Zm15.34,6.33c0-.1,0-.2.05-.31a1.87,1.87,0,0,1,2.26-1.37,53.69,53.69,0,0,0,6,1.1,1.84,1.84,0,0,1,1.63,2.08A1.86,1.86,0,0,1,866,487a54.34,54.34,0,0,1-6.46-1.18A1.88,1.88,0,0,1,858.06,483.85Zm16.54,1.68v-.26a1.87,1.87,0,0,1,1.75-1.73c1.55-.1,3.12-.28,4.66-.52.48-.07,1-.15,1.42-.24a1.87,1.87,0,1,1,.67,3.68c-.5.1-1,.18-1.51.26-1.66.26-3.33.44-5,.55A1.87,1.87,0,0,1,874.6,485.53Z"/><path class="cls-33" d="M820,410.45a1.83,1.83,0,0,1,.13-.55c.37-1,.78-1.91,1.21-2.85a1.87,1.87,0,1,1,3.4,1.57c-.4.87-.78,1.76-1.13,2.65a1.87,1.87,0,0,1-3.61-.82Z"/></g><path class="cls-38" d="M847.52,428.89c0-.19,0-.38,0-.57h0a25.68,25.68,0,0,1,1.07-5.3.74.74,0,0,1,.77-.52.51.51,0,0,1,.17,0,.76.76,0,0,1,.49.94,23.94,23.94,0,0,0,20.6,31l.51,0a23.93,23.93,0,0,0,3.94-47.7l-.52,0a23.84,23.84,0,0,0-12,2.27.73.73,0,0,1-.38.08.75.75,0,0,1-.27-1.42,25.37,25.37,0,0,1,12.78-2.43l.56.05a25.43,25.43,0,0,1-4.18,50.68l-.55,0a25.43,25.43,0,0,1-23-27.12Z"/><path class="cls-33" d="M803.15,175.28a.89.89,0,0,1,.69-.8c.73-.16,1.46-.3,2.2-.43a.88.88,0,0,1,.3,1.74c-.71.12-1.42.26-2.12.41a.87.87,0,0,1-1.05-.67A1.06,1.06,0,0,1,803.15,175.28Z"/><path class="cls-33" d="M809.63,174.29a.89.89,0,0,1,.8-.82c1.47-.13,3-.2,4.43-.21a.89.89,0,0,1,.89.87.88.88,0,0,1-.88.89c-1.42,0-2.86.08-4.28.21a.88.88,0,0,1-1-.8A.71.71,0,0,1,809.63,174.29Zm8.71-.07h0a.88.88,0,0,1,.95-.81c1.2.09,2.41.22,3.59.39l.81.12a.88.88,0,0,1-.27,1.74l-.79-.12c-1.14-.16-2.31-.29-3.47-.37A.89.89,0,0,1,818.34,174.22Zm8.61,1.36a.77.77,0,0,1,0-.15.89.89,0,0,1,1.06-.65c1.44.35,2.88.76,4.26,1.22a.88.88,0,0,1,.57,1.11.9.9,0,0,1-1.12.56c-1.34-.45-2.73-.84-4.12-1.18A.87.87,0,0,1,827,175.58Zm8.27,2.72a.72.72,0,0,1,.07-.28.87.87,0,0,1,1.15-.47c1.36.58,2.7,1.22,4,1.9a.88.88,0,0,1,.36,1.19.87.87,0,0,1-1.18.37c-1.26-.66-2.57-1.28-3.88-1.83A.88.88,0,0,1,835.22,178.3Zm7.71,4a.82.82,0,0,1,.13-.4.88.88,0,0,1,1.22-.28c1.24.79,2.47,1.65,3.64,2.54a.88.88,0,0,1-1.06,1.4c-1.14-.86-2.32-1.69-3.52-2.45A.87.87,0,0,1,842.93,182.35Zm6.94,5.27a.88.88,0,0,1,1.47-.59c1.09,1,2.16,2,3.17,3.09a.87.87,0,0,1,0,1.24.88.88,0,0,1-1.25,0c-1-1-2-2-3.07-3A.88.88,0,0,1,849.87,187.62Zm6,6.32a.89.89,0,0,1,1.57-.49c.92,1.15,1.8,2.35,2.63,3.57a.88.88,0,0,1-.24,1.22.87.87,0,0,1-1.22-.23c-.8-1.18-1.65-2.34-2.55-3.45A.88.88,0,0,1,855.86,193.94Zm4.88,7.22a.88.88,0,0,1,1.65-.37c.72,1.28,1.4,2.61,2,3.94a.88.88,0,0,1-.43,1.17.89.89,0,0,1-1.17-.43c-.59-1.29-1.25-2.58-1.95-3.82A.86.86,0,0,1,860.74,201.16Zm-1.1,54a.82.82,0,0,1,.13-.4c.75-1.21,1.46-2.47,2.11-3.74a.88.88,0,0,1,1.57.8c-.67,1.32-1.41,2.62-2.18,3.87a.88.88,0,0,1-1.63-.53Zm4.74-46.1a.88.88,0,0,1,1.71-.24c.5,1.38,1,2.8,1.34,4.22a.88.88,0,1,1-1.69.46c-.38-1.37-.82-2.74-1.3-4.08A.91.91,0,0,1,864.38,209.07Zm-.78,38.34a1.31,1.31,0,0,1,.06-.27c.54-1.32,1-2.67,1.46-4a.88.88,0,1,1,1.68.53c-.44,1.4-.95,2.81-1.51,4.17a.88.88,0,0,1-1.69-.4Zm3.08-29.95a.88.88,0,0,1,1.75-.1c.27,1.45.48,2.92.63,4.39a.88.88,0,0,1-1.75.18c-.15-1.42-.36-2.85-.62-4.24A1.85,1.85,0,0,1,866.68,217.46Zm-.45,21.64a.69.69,0,0,1,0-.13c.31-1.38.58-2.8.78-4.22a.88.88,0,0,1,1-.74.89.89,0,0,1,.75,1c-.22,1.46-.49,2.92-.81,4.35a.88.88,0,0,1-1.74-.26Zm1.34-13a.88.88,0,0,1,1.76,0c0,1.47,0,3-.1,4.43h0a.88.88,0,0,1-1.76-.12c.09-1.43.12-2.87.09-4.28C867.56,226.18,867.57,226.15,867.57,226.12Z"/><path class="cls-33" d="M855.82,260.57a.81.81,0,0,1,.19-.49c.45-.56.89-1.13,1.32-1.72a.89.89,0,0,1,1.24-.18.88.88,0,0,1,.18,1.23c-.45.6-.9,1.19-1.37,1.77a.88.88,0,0,1-1.24.13A.87.87,0,0,1,855.82,260.57Z"/><path class="cls-33" d="M819.1,280.16a.88.88,0,0,1,.8-.81c.72-.06,1.44-.14,2.15-.23a.88.88,0,1,1,.23,1.74c-.74.1-1.48.18-2.23.25a.88.88,0,0,1-.95-.81A.33.33,0,0,1,819.1,280.16Z"/><path class="cls-33" d="M761.42,223.51c.07-.86.14-1.69.24-2.54a.89.89,0,0,1,1-.77.88.88,0,0,1,.77,1c-.09.82-.19,1.66-.23,2.46,0,.58-.07,1.17-.09,1.75a.89.89,0,0,1-.92.84.87.87,0,0,1-.84-.91C761.35,224.72,761.38,224.12,761.42,223.51Zm-.08,6.07a.88.88,0,0,1,1.76,0c.06,1.4.18,2.82.35,4.21a.88.88,0,1,1-1.75.21c-.18-1.43-.3-2.9-.36-4.34Zm1-12.8a.36.36,0,0,1,0-.11c.28-1.42.62-2.85,1-4.24a.88.88,0,0,1,1.09-.61.87.87,0,0,1,.6,1.09c-.38,1.35-.71,2.73-1,4.1a.86.86,0,0,1-1,.69A.88.88,0,0,1,762.33,216.78Zm.07,21.3a.89.89,0,0,1,1.75-.12c.28,1.37.63,2.75,1,4.09a.88.88,0,1,1-1.69.5c-.41-1.39-.76-2.81-1.06-4.23A1,1,0,0,1,762.4,238.08Zm2.28-29.55a1,1,0,0,1,.05-.24c.51-1.36,1.08-2.71,1.7-4A.88.88,0,0,1,768,205c-.59,1.26-1.14,2.57-1.64,3.88a.88.88,0,0,1-1.7-.37Zm.15,37.77a.86.86,0,0,1,.56-.76.88.88,0,0,1,1.14.5c.5,1.31,1.07,2.61,1.67,3.87a.88.88,0,1,1-1.58.76c-.63-1.3-1.21-2.65-1.73-4A.8.8,0,0,1,764.83,246.3Zm3.5-45.53a.87.87,0,0,1,.11-.37c.72-1.25,1.5-2.5,2.33-3.69a.88.88,0,0,1,1.22-.23.89.89,0,0,1,.23,1.23c-.8,1.15-1.55,2.35-2.25,3.57a.88.88,0,0,1-1.64-.51Zm.22,53.25a.88.88,0,0,1,1.63-.39c.71,1.21,1.47,2.41,2.28,3.56a.87.87,0,0,1-.22,1.22.89.89,0,0,1-1.23-.21c-.83-1.19-1.62-2.43-2.35-3.68A.82.82,0,0,1,768.55,254Zm4.9,7a.92.92,0,0,1,.32-.62.89.89,0,0,1,1.24.12c.89,1.08,1.83,2.14,2.81,3.15a.87.87,0,0,1,0,1.24.88.88,0,0,1-1.24,0c-1-1.05-2-2.14-2.91-3.25A.93.93,0,0,1,773.45,261Zm6,6.16a.85.85,0,0,1,.21-.52.89.89,0,0,1,1.25-.08c1,.92,2.15,1.81,3.28,2.65a.88.88,0,1,1-1,1.41c-1.17-.86-2.31-1.78-3.4-2.74A.88.88,0,0,1,779.42,267.2Zm6.88,5.11a.82.82,0,0,1,.13-.4.88.88,0,0,1,1.21-.28c1.19.74,2.43,1.44,3.67,2.09a.88.88,0,1,1-.81,1.56c-1.29-.66-2.56-1.39-3.79-2.16A.85.85,0,0,1,786.3,272.31Zm7.61,3.94A1,1,0,0,1,794,276a.87.87,0,0,1,1.15-.47c1.29.54,2.62,1,4,1.46a.88.88,0,1,1-.54,1.68c-1.38-.45-2.76-1-4.09-1.52A.86.86,0,0,1,793.91,276.25Zm8.15,2.65a.68.68,0,0,1,0-.14.88.88,0,0,1,1.06-.65c1.36.32,2.76.59,4.14.81a.88.88,0,0,1-.27,1.74c-1.43-.22-2.87-.5-4.28-.84A.89.89,0,0,1,802.06,278.9Zm8.47,1.32a.88.88,0,0,1,.94-.82h.16c1.34.1,2.71.14,4.06.14a.87.87,0,0,1,.88.87.88.88,0,0,1-.87.89c-1.4,0-2.81,0-4.2-.14h-.16A.88.88,0,0,1,810.53,280.22Z"/><path class="cls-33" d="M773.22,193.67a.83.83,0,0,1,.19-.49c.48-.58,1-1.15,1.45-1.71a.88.88,0,0,1,1.32,1.17c-.48.54-.94,1.09-1.4,1.65a.88.88,0,0,1-1.56-.62Z"/><path class="cls-33" d="M788.4,196.59a.63.63,0,0,0-.24.7l2.15,7.45a33.9,33.9,0,0,0-5.87,9.25l-7.66,1.24a.64.64,0,0,0-.53.52l-1.6,9.17a.66.66,0,0,0,.32.67l6.8,3.75A33.86,33.86,0,0,0,784.16,240l-4.54,6.29a.63.63,0,0,0,0,.74l5.36,7.61a.62.62,0,0,0,.7.25l7.45-2.15a33.9,33.9,0,0,0,9.25,5.87l1.24,7.66a.62.62,0,0,0,.52.52l9.17,1.6a.64.64,0,0,0,.67-.32l3.75-6.79a33.6,33.6,0,0,0,10.69-2.4l6.29,4.55a.65.65,0,0,0,.74,0l7.61-5.36a.64.64,0,0,0,.25-.7L841.15,250A33.6,33.6,0,0,0,847,240.7l7.66-1.23a.63.63,0,0,0,.52-.52l1.6-9.17a.63.63,0,0,0-.32-.67l-6.79-3.75a33.54,33.54,0,0,0-2.4-10.69l4.55-6.29a.65.65,0,0,0,0-.74L846.49,200a.64.64,0,0,0-.7-.24l-7.46,2.15a33.6,33.6,0,0,0-9.25-5.87l-1.23-7.66a.64.64,0,0,0-.52-.53l-9.17-1.59a.63.63,0,0,0-.67.32l-3.75,6.79a33.8,33.8,0,0,0-10.69,2.39l-6.29-4.54a.65.65,0,0,0-.74,0Z"/><path class="cls-39" d="M806.6,226.69a9.15,9.15,0,1,1,16.06,6.63,9.15,9.15,0,0,1-16-5.29h0A8.57,8.57,0,0,1,806.6,226.69Zm16.5,1.19a7.8,7.8,0,0,0,0-1.08,7.39,7.39,0,1,0-14.73,1.1h0a7.39,7.39,0,0,0,14.74,0Z"/><path class="cls-40" d="M792.56,225.88c.06-.8.16-1.59.29-2.39h0c.06-.31.12-.63.19-.94a24.22,24.22,0,0,1,1-3.25l0-.1.1-.27.09-.22a.88.88,0,0,1,.88-.54.66.66,0,0,1,.27.06.87.87,0,0,1,.48,1.15,21.6,21.6,0,0,0,16.3,29.39c.74.12,1.47.21,2.21.27a21.59,21.59,0,0,0,5.2-42.8,20,20,0,0,0-2.18-.27,21.36,21.36,0,0,0-9.26,1.38.85.85,0,0,1-.38.05.86.86,0,0,1-.76-.56.88.88,0,0,1,.5-1.14,23.35,23.35,0,1,1,6.75,45.09,21.46,21.46,0,0,1-2.38-.29,23.36,23.36,0,0,1-19.29-24.62Z"/><path class="cls-33" d="M1103.41,423.12a2.21,2.21,0,0,1,1.73-2c1.16-.25,2.36-.48,3.54-.69a2.2,2.2,0,1,1,.75,4.34c-1.12.2-2.25.42-3.36.66a2.2,2.2,0,0,1-2.62-1.69A1.87,1.87,0,0,1,1103.41,423.12Z"/><path class="cls-33" d="M1118.17,421.3a2.19,2.19,0,0,1,2.13-2c2.38-.08,4.79-.05,7.18.08a2.2,2.2,0,0,1-.24,4.4c-2.26-.13-4.55-.15-6.81-.08a2.21,2.21,0,0,1-2.27-2.13A1.69,1.69,0,0,1,1118.17,421.3Zm18.27,1.47a2,2,0,0,1,0-.26,2.2,2.2,0,0,1,2.58-1.75c2.35.45,4.7,1,7,1.66a2.2,2.2,0,1,1-1.2,4.24c-2.17-.61-4.4-1.14-6.63-1.57A2.22,2.22,0,0,1,1136.44,422.77Zm17.5,5.45a2.44,2.44,0,0,1,.18-.73,2.21,2.21,0,0,1,2.91-1.13c2.18,1,4.35,2,6.44,3.18a2.2,2.2,0,1,1-2.11,3.86c-2-1.08-4-2.09-6.11-3A2.23,2.23,0,0,1,1153.94,428.22Zm15.85,9.23a2.2,2.2,0,0,1,3.51-1.61c1.92,1.43,3.79,3,5.58,4.53a2.21,2.21,0,0,1-2.93,3.3c-1.69-1.5-3.47-2.94-5.28-4.3A2.18,2.18,0,0,1,1169.79,437.45ZM1183.18,450a2.2,2.2,0,0,1,3.87-1.27c1.55,1.81,3,3.71,4.44,5.65a2.2,2.2,0,0,1-3.58,2.57c-1.32-1.84-2.74-3.64-4.2-5.36A2.17,2.17,0,0,1,1183.18,450Zm10.3,15.17a2.2,2.2,0,0,1,4.14-.87c1.12,2.11,2.15,4.29,3.08,6.49a2.2,2.2,0,0,1-4.06,1.71c-.88-2.08-1.86-4.15-2.91-6.15A2.18,2.18,0,0,1,1193.48,465.14Zm-.45,77.28a2.27,2.27,0,0,1,.26-.89c1.08-2,2.08-4,3-6.12a2.2,2.2,0,0,1,4,1.76c-1,2.19-2,4.36-3.14,6.46a2.21,2.21,0,0,1-4.14-1.21Zm7.13-60.22a2.2,2.2,0,0,1,4.32-.41c.62,2.31,1.14,4.66,1.56,7a2.2,2.2,0,0,1-4.34.77c-.39-2.23-.89-4.46-1.47-6.65A2,2,0,0,1,1200.16,482.2Zm-.27,43.22a2.17,2.17,0,0,1,.08-.43c.6-2.18,1.12-4.41,1.54-6.64a2.2,2.2,0,0,1,4.33.82c-.44,2.35-1,4.7-1.63,7a2.2,2.2,0,0,1-4.32-.75Zm3-25.1a2.2,2.2,0,0,1,4.39.08c.09,2.38.07,4.8,0,7.18v.05a2.2,2.2,0,0,1-4.4-.26c.12-2.27.13-4.56,0-6.81A1.93,1.93,0,0,1,1202.87,500.32Z"/><path class="cls-33" d="M1184.75,554.85a2.19,2.19,0,0,1,.48-1.22c.72-.88,1.42-1.8,2.1-2.71a2.2,2.2,0,1,1,3.54,2.61c-.71,1-1.46,1.93-2.21,2.87a2.21,2.21,0,0,1-3.91-1.55Z"/><path class="cls-33" d="M1127.91,585.13a2.21,2.21,0,0,1,2-2c1.14-.1,2.29-.22,3.41-.37a2.2,2.2,0,0,1,.57,4.37c-1.19.15-2.4.28-3.6.39a2.21,2.21,0,0,1-2.38-2C1127.91,585.36,1127.91,585.25,1127.91,585.13Z"/><path class="cls-33" d="M1039,497.59c.07-.93.16-1.9.26-2.86a2.2,2.2,0,0,1,4.38.39v.07c-.1.9-.18,1.79-.24,2.69v0c-.1,1.32-.16,2.66-.19,4a2.2,2.2,0,1,1-4.4-.1C1038.79,500.39,1038.85,499,1039,497.59Zm2.16-13.8a2.2,2.2,0,0,1,.06-.37c.56-2.28,1.22-4.57,2-6.79a2.2,2.2,0,1,1,4.18,1.4c-.71,2.1-1.33,4.27-1.86,6.43a2.2,2.2,0,0,1-4.34-.67Zm-1.83,29.05a2.21,2.21,0,0,1,4.39-.1c.26,2.21.61,4.44,1,6.62a2.2,2.2,0,0,1-4.32.87c-.46-2.3-.84-4.65-1.11-7A2.84,2.84,0,0,1,1039.28,512.84Zm8-46a2.28,2.28,0,0,1,.22-.82c1-2.1,2.19-4.18,3.41-6.19a2.2,2.2,0,0,1,3.77,2.28c-1.16,1.9-2.24,3.88-3.23,5.87a2.2,2.2,0,0,1-4.17-1.14Zm-4,63.58a2.2,2.2,0,0,1,4.27-.57c.74,2.09,1.57,4.19,2.48,6.22a2.2,2.2,0,1,1-4,1.8c-1-2.15-1.84-4.35-2.62-6.57A2.22,2.22,0,0,1,1043.33,530.41Zm7.79,16.26a2.21,2.21,0,0,1,4.07-1c1.17,1.89,2.44,3.76,3.77,5.54a2.2,2.2,0,1,1-3.53,2.63c-1.41-1.88-2.74-3.85-4-5.84A2.17,2.17,0,0,1,1051.12,546.67Zm11.14,14.18a2.21,2.21,0,0,1,3.77-1.38c1.56,1.59,3.21,3.13,4.89,4.58a2.21,2.21,0,1,1-2.88,3.34c-1.77-1.53-3.51-3.16-5.15-4.84A2.21,2.21,0,0,1,1062.26,560.85Zm14,11.42a2.21,2.21,0,0,1,3.4-1.69c1.86,1.21,3.81,2.36,5.77,3.4a2.21,2.21,0,0,1-2.08,3.89c-2.07-1.11-4.12-2.32-6.09-3.59A2.22,2.22,0,0,1,1076.23,572.27Zm16.14,8.08a2.66,2.66,0,0,1,.13-.61,2.2,2.2,0,0,1,2.83-1.3c2.08.77,4.23,1.46,6.38,2a2.2,2.2,0,0,1-1.17,4.24c-2.27-.62-4.53-1.35-6.73-2.16A2.21,2.21,0,0,1,1092.37,580.35Zm17.51,4.34c0-.05,0-.09,0-.14a2.21,2.21,0,0,1,2.48-1.89c1.67.23,3.36.4,5,.52.55,0,1.1.08,1.65.1a2.21,2.21,0,0,1,2.09,2.31v0a2.21,2.21,0,0,1-2.31,2l-1.74-.1c-1.76-.13-3.54-.31-5.3-.55A2.21,2.21,0,0,1,1109.88,584.69Z"/><path class="cls-33" d="M1057.09,451.62a2.14,2.14,0,0,1,.49-1.23c.76-.94,1.55-1.86,2.34-2.76a2.2,2.2,0,0,1,3.29,2.92c-.75.85-1.49,1.73-2.21,2.62a2.21,2.21,0,0,1-3.91-1.55Z"/><path class="cls-33" d="M1081.46,456.09a1,1,0,0,0-.38,1.08l3.33,11.52a52.05,52.05,0,0,0-9.07,14.29l-11.83,1.9a1,1,0,0,0-.81.8l-2.47,14.17a1,1,0,0,0,.49,1l10.49,5.8a52.27,52.27,0,0,0,3.7,16.51l-7,9.71a1,1,0,0,0,0,1.15l8.28,11.76a1,1,0,0,0,1.07.38l11.52-3.32a52.17,52.17,0,0,0,14.29,9.06l1.9,11.83a1,1,0,0,0,.81.82l14.17,2.47a1,1,0,0,0,1-.5l5.79-10.49a52.21,52.21,0,0,0,16.51-3.7l9.72,7a1,1,0,0,0,1.14,0l11.77-8.27a1,1,0,0,0,.38-1.08l-3.33-11.52a52.05,52.05,0,0,0,9.07-14.29l11.83-1.9a1,1,0,0,0,.81-.8l2.47-14.17a1,1,0,0,0-.49-1l-10.49-5.8a52.27,52.27,0,0,0-3.7-16.51l7-9.71a1,1,0,0,0,0-1.15l-8.28-11.76a1,1,0,0,0-1.07-.38l-11.52,3.32a52.59,52.59,0,0,0-14.29-9.07l-1.91-11.83a1,1,0,0,0-.8-.81l-14.17-2.47a1,1,0,0,0-1,.5l-5.79,10.49a52.21,52.21,0,0,0-16.51,3.7l-9.72-7a1,1,0,0,0-1.14,0Z"/><path class="cls-41" d="M1108.3,502.47a15.39,15.39,0,1,1,0,2.29A14.59,14.59,0,0,1,1108.3,502.47Zm25.47,1.88a9.39,9.39,0,0,0,0-1.5,10.13,10.13,0,1,0-20.2,1.51h0a10.13,10.13,0,0,0,20.2,0Z"/><path class="cls-42" d="M1088.37,501.32c.09-1.19.23-2.39.44-3.59h0a36.33,36.33,0,0,1,2.08-7.28.89.89,0,0,1,.88-.55l.27.06a.88.88,0,0,1,.48,1.15,34.42,34.42,0,0,0-2,6.92,33.82,33.82,0,1,0,39.12-27.51,32.72,32.72,0,0,0-3.41-.42,33.75,33.75,0,0,0-14.52,2.16.86.86,0,0,1-.38.06.88.88,0,0,1-.25-1.7,35.21,35.21,0,0,1,15.27-2.27c1.2.08,2.4.23,3.59.43a35.59,35.59,0,0,1-8.61,70.56c-1.2-.09-2.4-.24-3.6-.44A35.64,35.64,0,0,1,1088.37,501.32Z"/></g></g></g></svg>