<svg xmlns="http://www.w3.org/2000/svg" xmlns:xlink="http://www.w3.org/1999/xlink" viewBox="0 0 2760.26 2798.85"><defs><style>.cls-1{fill:url(#linear-gradient);}.cls-2{fill:#bdd0fb;}.cls-3{fill:url(#linear-gradient-2);}.cls-4{fill:#91b3fa;}.cls-5{fill:url(#linear-gradient-3);}.cls-6{fill:url(#linear-gradient-4);}.cls-7,.cls-9{opacity:0.6;}.cls-8,.cls-9{fill:#fff;}.cls-10{fill:url(#linear-gradient-5);}.cls-11{fill:url(#linear-gradient-6);}.cls-12{fill:url(#linear-gradient-7);}.cls-13{fill:url(#linear-gradient-8);}.cls-14{fill:url(#linear-gradient-9);}.cls-15{fill:url(#linear-gradient-10);}.cls-16{fill:url(#linear-gradient-11);}.cls-17{fill:url(#linear-gradient-12);}.cls-18{fill:url(#linear-gradient-13);}.cls-19{fill:url(#linear-gradient-14);}.cls-20{fill:url(#linear-gradient-15);}.cls-21{fill:url(#linear-gradient-16);}.cls-22{fill:url(#linear-gradient-17);}.cls-23{fill:url(#linear-gradient-18);}.cls-24{fill:url(#linear-gradient-19);}.cls-25{fill:url(#linear-gradient-20);}.cls-26{fill:url(#linear-gradient-21);}.cls-27{fill:url(#linear-gradient-22);}.cls-28{fill:url(#linear-gradient-23);}.cls-29{fill:url(#linear-gradient-24);}.cls-30{fill:url(#linear-gradient-25);}.cls-31{fill:url(#linear-gradient-26);}.cls-32{fill:url(#linear-gradient-27);}.cls-33{fill:url(#linear-gradient-28);}.cls-34{fill:url(#linear-gradient-29);}.cls-35{fill:url(#linear-gradient-30);}.cls-36{fill:url(#linear-gradient-31);}.cls-37{fill:url(#linear-gradient-32);}.cls-38{fill:url(#linear-gradient-33);}.cls-39{fill:url(#linear-gradient-34);}.cls-40{fill:url(#linear-gradient-35);}.cls-41{fill:url(#linear-gradient-36);}.cls-42{fill:url(#linear-gradient-37);}.cls-43{fill:url(#linear-gradient-38);}.cls-44{fill:url(#linear-gradient-39);}.cls-45{fill:url(#linear-gradient-40);}.cls-46{fill:url(#linear-gradient-41);}.cls-47{fill:url(#linear-gradient-42);}.cls-48{fill:url(#linear-gradient-43);}.cls-49{fill:#666694;}.cls-50{fill:url(#linear-gradient-44);}.cls-51{fill:url(#linear-gradient-45);}.cls-52{fill:url(#linear-gradient-46);}.cls-53{fill:url(#linear-gradient-47);}.cls-54{fill:url(#linear-gradient-48);}.cls-55{fill:url(#linear-gradient-49);}.cls-56{fill:url(#linear-gradient-50);}</style><linearGradient id="linear-gradient" x1="2985.31" y1="2773.44" x2="1013.12" y2="1047.77" gradientUnits="userSpaceOnUse"><stop offset="0" stop-color="#dae3fe"/><stop offset="1" stop-color="#e9effd"/></linearGradient><linearGradient id="linear-gradient-2" x1="4887.99" y1="938.33" x2="3624.99" y2="1750.66" gradientTransform="translate(-2452.43 106.12) rotate(-2.97)" xlink:href="#linear-gradient"/><linearGradient id="linear-gradient-3" x1="890.07" y1="1458.33" x2="1832.84" y2="-967.47" gradientUnits="userSpaceOnUse"><stop offset="0" stop-color="#09005d"/><stop offset="1" stop-color="#1a0f91"/></linearGradient><linearGradient id="linear-gradient-4" x1="124.5" y1="1365.18" x2="1672.61" y2="1365.18" gradientUnits="userSpaceOnUse"><stop offset="0" stop-color="#4f52ff"/><stop offset="1" stop-color="#4042e2"/></linearGradient><linearGradient id="linear-gradient-5" x1="280.63" y1="3160.17" x2="-502.46" y2="4496.72" gradientTransform="translate(499.92 -3003.29) rotate(-0.85)" gradientUnits="userSpaceOnUse"><stop offset="0" stop-color="#ff928e"/><stop offset="1" stop-color="#fe7062"/></linearGradient><linearGradient id="linear-gradient-6" x1="785.39" y1="-476.28" x2="178.13" y2="322.54" gradientTransform="translate(310.4 8.11) rotate(29.12)" xlink:href="#linear-gradient-3"/><linearGradient id="linear-gradient-7" x1="711.13" y1="2761.24" x2="84.29" y2="3585.83" gradientTransform="translate(529.51 -2889.35) rotate(1.01)" xlink:href="#linear-gradient-3"/><linearGradient id="linear-gradient-8" x1="632.14" y1="2811.67" x2="199.32" y2="3606.43" gradientTransform="translate(529.51 -2889.35) rotate(1.01)" xlink:href="#linear-gradient-3"/><linearGradient id="linear-gradient-9" x1="2373.03" y1="2362.19" x2="1158.9" y2="1028.64" gradientTransform="matrix(1, 0, 0, 1, 0, 0)" xlink:href="#linear-gradient-5"/><linearGradient id="linear-gradient-10" x1="2653.66" y1="2933.74" x2="1240.71" y2="2018.31" gradientTransform="matrix(1, 0, 0, 1, 0, 0)" xlink:href="#linear-gradient-5"/><linearGradient id="linear-gradient-11" x1="1793.63" y1="3107.17" x2="208.12" y2="1415.52" gradientTransform="matrix(1, 0, 0, 1, 0, 0)" xlink:href="#linear-gradient-5"/><linearGradient id="linear-gradient-12" x1="-1161.95" y1="473.2" x2="-974.74" y2="899.16" gradientTransform="matrix(-0.92, -0.39, -0.39, 0.92, -72.86, 447.13)" gradientUnits="userSpaceOnUse"><stop offset="0" stop-color="#febbba"/><stop offset="1" stop-color="#ff928e"/></linearGradient><linearGradient id="linear-gradient-13" x1="-728.14" y1="2797.59" x2="1033.34" y2="1344.62" gradientTransform="matrix(1, 0, 0, 1, 0, 0)" xlink:href="#linear-gradient-5"/><linearGradient id="linear-gradient-14" x1="-869.93" y1="1103.07" x2="-768.59" y2="1357.28" gradientTransform="matrix(-1, 0, 0, 1, -328.78, 0)" xlink:href="#linear-gradient-3"/><linearGradient id="linear-gradient-15" x1="-499.47" y1="2730.54" x2="-413.54" y2="2730.54" gradientTransform="matrix(-1, 0, 0, 1, -328.78, 0)" xlink:href="#linear-gradient-3"/><linearGradient id="linear-gradient-16" x1="-862.58" y1="3069.41" x2="-738.92" y2="1624.1" gradientTransform="matrix(-1, 0, 0, 1, -328.78, 0)" xlink:href="#linear-gradient-12"/><linearGradient id="linear-gradient-17" x1="-898.7" y1="2714.85" x2="-759.66" y2="2714.85" gradientTransform="matrix(-1, 0, 0, 1, -328.78, 0)" xlink:href="#linear-gradient-3"/><linearGradient id="linear-gradient-18" x1="-613.82" y1="3090.91" x2="-490.13" y2="1645.23" gradientTransform="matrix(-1, 0, 0, 1, -328.78, 0)" xlink:href="#linear-gradient-12"/><linearGradient id="linear-gradient-19" x1="607.14" y1="1584.76" x2="1292.52" y2="980.38" xlink:href="#linear-gradient-4"/><linearGradient id="linear-gradient-20" x1="-956.94" y1="1469.37" x2="-530.2" y2="2951.1" gradientTransform="matrix(-1, 0, 0, 1, -328.78, 0)" xlink:href="#linear-gradient-3"/><linearGradient id="linear-gradient-21" x1="725.68" y1="1338.76" x2="49.06" y2="1607.42" gradientTransform="matrix(1, 0, 0, 1, 0, 0)" xlink:href="#linear-gradient-12"/><linearGradient id="linear-gradient-22" x1="677.23" y1="1564.42" x2="-49.14" y2="1977.36" gradientTransform="matrix(1, 0, 0, 1, 0, 0)" xlink:href="#linear-gradient-12"/><linearGradient id="linear-gradient-23" x1="-934.77" y1="1425.66" x2="-732.09" y2="1064.96" gradientTransform="matrix(-1, 0, 0, 1, -328.78, 0)" xlink:href="#linear-gradient-12"/><linearGradient id="linear-gradient-24" x1="-891.19" y1="1111.55" x2="-789.85" y2="1365.75" gradientTransform="matrix(-1, 0, 0, 1, -328.78, 0)" xlink:href="#linear-gradient-3"/><linearGradient id="linear-gradient-25" x1="-891.63" y1="1449.9" x2="-688.95" y2="1089.2" gradientTransform="matrix(-1, 0, 0, 1, -328.78, 0)" xlink:href="#linear-gradient-12"/><linearGradient id="linear-gradient-26" x1="2374.9" y1="1675.57" x2="3255.51" y2="586" xlink:href="#linear-gradient-4"/><linearGradient id="linear-gradient-27" x1="2701.78" y1="1939.75" x2="3582.39" y2="850.19" xlink:href="#linear-gradient-4"/><linearGradient id="linear-gradient-28" x1="2360.49" y1="1663.92" x2="3241.1" y2="574.35" xlink:href="#linear-gradient-4"/><linearGradient id="linear-gradient-29" x1="2360.49" y1="1663.91" x2="3241.09" y2="574.35" xlink:href="#linear-gradient-4"/><linearGradient id="linear-gradient-30" x1="2479.39" y1="1760.02" x2="3360" y2="670.45" xlink:href="#linear-gradient-4"/><linearGradient id="linear-gradient-31" x1="2483.1" y1="1763.02" x2="3363.71" y2="673.45" xlink:href="#linear-gradient-4"/><linearGradient id="linear-gradient-32" x1="2598.3" y1="1856.11" x2="3478.9" y2="766.55" xlink:href="#linear-gradient-4"/><linearGradient id="linear-gradient-33" x1="2602.88" y1="1859.82" x2="3483.48" y2="770.26" xlink:href="#linear-gradient-4"/><linearGradient id="linear-gradient-34" x1="2760.79" y1="1987.45" x2="3641.4" y2="897.88" xlink:href="#linear-gradient-4"/><linearGradient id="linear-gradient-35" x1="2724.56" y1="1958.16" x2="3605.16" y2="868.59" xlink:href="#linear-gradient-4"/><linearGradient id="linear-gradient-36" x1="-2972.19" y1="568.55" x2="-2806.27" y2="568.55" gradientTransform="matrix(-1, 0, 0, 1, -1014.33, 0)" xlink:href="#linear-gradient-12"/><linearGradient id="linear-gradient-37" x1="906.94" y1="-128.66" x2="1668.14" y2="846.47" gradientTransform="matrix(1, 0, 0, 1, 0, 0)" xlink:href="#linear-gradient-5"/><linearGradient id="linear-gradient-38" x1="-3066.16" y1="472.85" x2="-3156.98" y2="975.06" gradientTransform="matrix(-1, 0, 0, 1, -1014.33, 0)" xlink:href="#linear-gradient-4"/><linearGradient id="linear-gradient-39" x1="-3508.93" y1="1947.18" x2="-3398.24" y2="1947.18" gradientTransform="matrix(-1, 0, 0, 1, -1014.33, 0)" xlink:href="#linear-gradient-3"/><linearGradient id="linear-gradient-40" x1="-3497.7" y1="1895.74" x2="-3452.81" y2="1895.74" gradientTransform="matrix(-1, 0, 0, 1, -1014.33, 0)" xlink:href="#linear-gradient-12"/><linearGradient id="linear-gradient-41" x1="-3273.53" y1="1945.41" x2="-3099.86" y2="1945.41" gradientTransform="matrix(-1, 0, 0, 1, -1014.33, 0)" xlink:href="#linear-gradient-3"/><linearGradient id="linear-gradient-42" x1="-3270.9" y1="1875.81" x2="-3226.25" y2="1875.81" gradientTransform="matrix(-1, 0, 0, 1, -1014.33, 0)" xlink:href="#linear-gradient-12"/><linearGradient id="linear-gradient-43" x1="-3525.59" y1="1479.8" x2="-3221.24" y2="1479.8" gradientTransform="matrix(-1, 0, 0, 1, -1014.33, 0)" xlink:href="#linear-gradient-3"/><linearGradient id="linear-gradient-44" x1="2383.34" y1="714.4" x2="1623.1" y2="1689.06" xlink:href="#linear-gradient-4"/><linearGradient id="linear-gradient-45" x1="-2596.49" y1="604.73" x2="-2955" y2="1050.75" gradientTransform="matrix(-1, 0, 0, 1, -1014.33, 0)" xlink:href="#linear-gradient-12"/><linearGradient id="linear-gradient-46" x1="-2528.52" y1="659.36" x2="-2887.03" y2="1105.39" gradientTransform="matrix(-1, 0, 0, 1, -1014.33, 0)" xlink:href="#linear-gradient-12"/><linearGradient id="linear-gradient-47" x1="-2999.82" y1="335.17" x2="-3347.04" y2="973.16" gradientTransform="matrix(-1, 0, 0, 1, -1014.33, 0)" xlink:href="#linear-gradient-12"/><linearGradient id="linear-gradient-48" x1="-2321.84" y1="1101.03" x2="-2475.29" y2="1304.03" gradientTransform="matrix(-0.82, -0.58, -0.58, 0.82, 832.94, -1785.83)" xlink:href="#linear-gradient-12"/><linearGradient id="linear-gradient-49" x1="-2439.03" y1="1150" x2="-2255.73" y2="1150" gradientTransform="matrix(-0.82, -0.58, -0.58, 0.82, 832.94, -1785.83)" xlink:href="#linear-gradient-3"/><linearGradient id="linear-gradient-50" x1="-2546.58" y1="1261.79" x2="-2423.5" y2="1135.51" gradientTransform="matrix(-0.82, -0.58, -0.58, 0.82, 832.94, -1785.83)" xlink:href="#linear-gradient-12"/></defs><g id="Слой_2" data-name="Слой 2"><g id="Illustration"><path class="cls-1" d="M2650.14,1877.22c-254.89,600.16-933.85,936.37-1522.64,845.68-95.81-14.76-358.47-58.72-591-266.11C88.8,2057.56-6.94,1267,354.19,709.9,617,304.42,1088.19,74.57,1535.88,86.07c96.44,2.47,466,17.74,790.81,285.55,47.7,39.34,152.92,132.82,247.75,281.11C2797.11,1001,2816.25,1486.09,2650.14,1877.22Z"/><path class="cls-2" d="M1553.14,1781.4s-16.56-215.71,165.57-453.77c169-220.88,587.18-734.58,669-1004.16,3.62-11.94,19.91-10.14,21.24,2.39,14.26,134.31,25.22,473.44-160.18,830.05C2009.66,1615.77,1553.14,1781.4,1553.14,1781.4Z"/><path class="cls-3" d="M2337.41,571.44c-.69,29.86-4.88,59.5-10.6,88.68-.69,3.65-1.32,7.33-2.07,11L2322.28,682l-4.92,21.76-5.78,21.51c-2,7.15-3.7,14.41-6.1,21.41a1085.37,1085.37,0,0,1-65.4,164.61c-6,13.47-13.4,26.17-20.29,39.14-7.08,12.85-13.63,26.07-21.45,38.43l-22.68,37.63c-3.65,6.37-7.92,12.28-12,18.36L2151.45,1063l-12.26,18.14-6.15,9.05-6.54,8.73-26.16,34.93c-4.4,5.78-8.64,11.74-13.17,17.38l-13.59,16.92-27.18,33.84c-36.62,44.78-73.54,89.28-111.47,132.77-18.81,21.9-38,43.47-57,65.14l-57.73,64.34c-38.51,42.82-77.07,85.57-114.22,129.57-9.44,10.88-18.34,22.21-27.43,33.39-4.61,5.54-8.85,11.38-13.22,17.12s-8.77,11.46-13,17.34c-8.12,12-16.69,23.61-24,36.15-8,12.11-14.44,25.17-21.3,38l0,.09a1.6,1.6,0,0,1-2.26.64,1.84,1.84,0,0,1-.67-2.31c12.27-26.85,27.22-52.18,43.59-76.34,4.08-6,8.43-11.86,12.63-17.81s8.41-11.9,12.91-17.59c8.87-11.48,17.57-23.13,26.77-34.29,36.39-45.09,74.66-88.25,112.51-131.74l56.81-65.18c18.87-21.78,37.86-43.44,56.5-65.43q56.26-65.64,110.87-132.83l27.1-33.78,13.55-16.89c4.52-5.63,8.75-11.46,13.14-17.18l26.11-34.47,6.53-8.61,6.14-8.93,12.24-17.91c33.22-47.3,62.6-97.55,89.46-149.22a1072.44,1072.44,0,0,0,68.26-161.64c2.53-6.91,4.36-14.06,6.6-21.07l6.44-21.14,5.6-21.41,2.8-10.72c.87-3.59,1.61-7.21,2.42-10.81,1.54-7.23,3.29-14.42,4.66-21.7l3.94-21.87c2.19-14.65,4.52-29.35,5.3-44.21a.21.21,0,0,1,.2-.22A.23.23,0,0,1,2337.41,571.44Z"/><path class="cls-4" d="M1897.49,64.9c-4.2-10.08-18.24-7.88-18.91,3-6.55,105-31.87,379.47-122.61,540-147.76,261.43-203.55,650.44-43.14,815.42C1712.83,1423.33,2354.91,1163.58,1897.49,64.9Z"/><path class="cls-2" d="M1906.53,211.17c.36,3.16.44,6,.64,8.92l.4,8.75.62,17.49c.35,11.65.59,23.31.79,35q.52,35,.29,69.92c-.32,46.59-1.78,93.14-3.93,139.62s-5.36,92.9-9.51,139.18l-1.52,17.36-1.75,17.33c-1.2,11.55-2.21,23.13-3.61,34.65l-4,34.6-4.44,34.51c-12.32,92-29.17,183.18-52.12,272.57-.72,2.79-1.39,5.6-2.14,8.38l-2.32,8.32-4.64,16.65L1814.7,1091c-1.61,5.52-3.37,11-5,16.51l-5.08,16.49c-1.74,5.48-3.28,11-5.21,16.44l-11.11,32.61c-15.58,43.16-33,85.55-53.11,126.42a1,1,0,0,1-1.43.44,1.18,1.18,0,0,1-.47-1.5v0a1327.35,1327.35,0,0,0,50.88-127.06l10.77-32.62c1.87-5.41,3.35-11,5-16.45l4.91-16.49c1.62-5.51,3.31-11,4.87-16.51l4.46-16.65,4.47-16.64,2.23-8.33c.73-2.78,1.37-5.58,2.06-8.38l8.18-33.53c2.66-11.19,5-22.48,7.56-33.71,1.23-5.63,2.53-11.24,3.7-16.88l3.38-17,3.39-17c1.15-5.65,2.26-11.3,3.24-17,8.56-45.36,15.41-91.11,21.82-136.92,12.5-91.72,20.54-184.22,25.81-277q3.84-69.57,5.14-139.35.69-34.87.71-69.79c0-11.64-.11-23.28-.3-34.92l-.37-17.45-.27-8.72c-.14-2.88-.23-5.89-.47-8.54l0-.25a1.06,1.06,0,0,1,.94-1.19A1.11,1.11,0,0,1,1906.53,211.17Z"/><path class="cls-5" d="M198,287.29l1362.61,23.93a141.19,141.19,0,0,1,138.63,136.46L1765.1,2425a104.11,104.11,0,0,1-104,107.58l-1562.22,1A98.81,98.81,0,0,1,0,2433L34.93,444.71A160.25,160.25,0,0,1,198,287.29Z"/><path class="cls-4" d="M327.67,2504.65h0L153,2499.33c-58.81-1.8-105.82-51.11-104.78-109.94l4.63-263.84a4.44,4.44,0,0,1,4.53-4.37,4.5,4.5,0,0,1,4.37,4.53l-4.63,263.83c-1,54,42.19,99.24,96.15,100.89l174.71,5.33a4.45,4.45,0,0,1-.26,8.89Z"/><path class="cls-4" d="M58.57,2048.35a4.44,4.44,0,0,1-4.33-4.52L55,2001.1a4.45,4.45,0,0,1,4.53-4.37h0a4.45,4.45,0,0,1,4.35,4.52L63.14,2044a4.45,4.45,0,0,1-4.53,4.37Z"/><path class="cls-6" d="M202.44,271.35c185.64,28.5,824.13,117.78,1353.88,86.46a43,43,0,0,1,45.64,41.4l70.62,1986.18a49.54,49.54,0,0,1-47.45,51.27c-222.73,9.26-1140,44.07-1466.2,4.1a39.25,39.25,0,0,1-34.43-39.45L148.84,316.84A46.55,46.55,0,0,1,202.44,271.35Z"/><path class="cls-4" d="M221.47,323.17c178.64,27.43,793.1,113.35,1302.9,83.21a41.42,41.42,0,0,1,43.92,39.84l68,1911.39a47.66,47.66,0,0,1-45.66,49.34c-214.34,8.91-1097,42.41-1411,3.94a37.77,37.77,0,0,1-33.14-38L169.89,367A44.79,44.79,0,0,1,221.47,323.17Z"/><g class="cls-7"><path class="cls-8" d="M1506.91,573.9a12.29,12.29,0,0,0,12.63-13l0-1a14.55,14.55,0,0,0-13.91-13.59L349,516.87c-7.29-.19-9.63,4.4-5.18,10.18l12.49,16.27c4.44,5.78,14.05,10.62,21.35,10.75Z"/></g><g class="cls-7"><path class="cls-8" d="M347.69,593.19c-7.29-.19-9.63,4.4-5.18,10.18L355,619.64c4.44,5.79,14.05,10.63,21.35,10.76l1129.22,19.82a12.28,12.28,0,0,0,12.62-13l0-1a14.55,14.55,0,0,0-13.91-13.59Z"/></g><path class="cls-8" d="M535,1290.31h-.42l-153.38.81c-22.1.11-40.57-14.84-42.95-34.77l-15.4-128.47a28.38,28.38,0,0,1,6.38-21.41,34.1,34.1,0,0,1,23.55-12.06h0c12.92-1.07,30.72-2.85,50.3-4.81,42.63-4.27,90.94-9.11,119.36-9.88l.63,0c20.33-.3,38,11.84,43.12,29.69,8.44,29.47,8.57,85.42,7.93,145C573.89,1274,556.38,1290,535,1290.31ZM353.8,1106.89a21.47,21.47,0,0,0-14.89,7.49,15.92,15.92,0,0,0-3.65,12l15.39,128.47c1.63,13.62,14.73,23.82,30.47,23.74l153.38-.8h.3c14.66-.22,26.65-10.72,26.79-23.51.63-58.65.53-113.6-7.45-141.46-3.54-12.33-17-21.34-31.38-20.6-28,.76-78.14,5.79-118.46,9.82-19.66,2-37.52,3.76-50.5,4.84Z"/><path class="cls-9" d="M370.46,1119.56c32.19-2.68,102.1-10.83,135.3-11.74,14.07-.38,26.54,7.94,30,20.09,6.76,23.6,6.61,70.86,6.15,114.47-.14,13.06-12,23.66-26.63,23.74l-122.57.64c-15.07.08-27.73-10-29.33-23.38l-12.3-102.66C349.83,1130.1,358.53,1120.55,370.46,1119.56Z"/><g class="cls-7"><path class="cls-8" d="M668.3,1154.79c-7.3-.06-11.66,5.64-9.69,12.66l14.2,50.78c2,7,9.54,12.69,16.84,12.59l770.82-11.43a13,13,0,0,0,12.78-13.45l-1.12-30.67a14.06,14.06,0,0,0-13.76-13.38Z"/></g><path class="cls-8" d="M544.13,946h-.42l-153.38.81c-22.1.11-40.57-14.84-42.95-34.77L332,783.53a28.33,28.33,0,0,1,6.37-21.41,34,34,0,0,1,23.55-12h0c12.92-1.08,30.72-2.86,50.3-4.82,42.63-4.27,91-9.11,119.36-9.88l.63,0c20.33-.3,38,11.84,43.12,29.69,8.44,29.47,8.57,85.42,7.93,145C583,929.62,565.53,945.64,544.13,946ZM363,762.54A21.47,21.47,0,0,0,348.06,770a15.92,15.92,0,0,0-3.65,12L359.8,910.51c1.63,13.62,14.73,23.82,30.47,23.74l153.38-.8h.3c14.66-.22,26.65-10.71,26.79-23.52.63-58.64.53-113.59-7.45-141.45-3.54-12.33-17-21.34-31.37-20.6-28,.76-78.15,5.79-118.47,9.82-19.65,2-37.52,3.76-50.5,4.84Z"/><path class="cls-9" d="M379.61,775.21c32.19-2.68,102.1-10.83,135.31-11.74,14.07-.38,26.53,7.94,30,20.09,6.76,23.61,6.61,70.86,6.15,114.47-.14,13.06-12,23.66-26.62,23.74l-122.57.64c-15.08.08-27.74-10-29.34-23.38l-12.3-102.66C359,785.75,367.68,776.2,379.61,775.21Z"/><g class="cls-7"><path class="cls-8" d="M677.45,810.44c-7.29-.06-11.66,5.64-9.69,12.66L682,873.88c2,7,9.54,12.69,16.84,12.58L1469.62,875a13,13,0,0,0,12.78-13.45l-1.12-30.67a14.06,14.06,0,0,0-13.76-13.38Z"/></g><path class="cls-10" d="M386.44,795.29h0a23.54,23.54,0,0,1,32.6,8.35l31,53.77a7.56,7.56,0,0,0,13.49-.78l72.55-168.14c3.62-8.39,16.07-5.75,16.07,3.38,0,51.1-12.13,148.42-92.56,230.92,0,0-45.24-16.82-82.65-95.84A24.7,24.7,0,0,1,386.44,795.29Z"/><path class="cls-8" d="M459.64,929.42a6.58,6.58,0,0,1-2.31-.41c-1.95-.73-48.22-18.69-86.34-99.22a31.25,31.25,0,0,1,12-40.18h0a30.18,30.18,0,0,1,41.78,10.71l31.06,53.78a.84.84,0,0,0,.85.46.86.86,0,0,0,.8-.56L530,685.86a14.7,14.7,0,0,1,16.79-8.75,14.93,14.93,0,0,1,12,14.76c0,51.8-12.29,151.28-94.44,235.55A6.64,6.64,0,0,1,459.64,929.42ZM389.88,801a18,18,0,0,0-6.9,23.15c29.6,62.53,63.89,84.74,75.17,90.66,75.94-80.17,87.4-173.81,87.41-222.9a1.62,1.62,0,0,0-1.42-1.77,1.53,1.53,0,0,0-1.92,1L469.67,859.26a14.19,14.19,0,0,1-25.32,1.47L413.29,807a16.89,16.89,0,0,0-23.41-6Z"/><path class="cls-8" d="M539.85,1619h-.42l-153.38.79c-22.1.12-40.57-14.83-42.95-34.76l-15.39-128.47a28.33,28.33,0,0,1,6.37-21.41,34,34,0,0,1,23.55-12.05h0c12.92-1.08,30.72-2.86,50.3-4.82,42.63-4.27,90.94-9.11,119.36-9.89h.62c20.34-.3,38,11.84,43.13,29.69,8.44,29.47,8.57,85.42,7.93,145C578.76,1602.65,561.25,1618.67,539.85,1619ZM358.67,1435.57a21.49,21.49,0,0,0-14.89,7.49,15.92,15.92,0,0,0-3.65,12l15.39,128.47c1.63,13.62,14.73,23.82,30.47,23.74l153.38-.8h.3c14.66-.22,26.65-10.71,26.79-23.51.63-58.65.53-113.6-7.45-141.46-3.54-12.34-17-21.18-31.38-20.6-28,.76-78.14,5.79-118.46,9.82-19.66,2-37.53,3.76-50.5,4.84Z"/><path class="cls-9" d="M375.33,1448.24c32.18-2.68,102.1-10.83,135.3-11.73,14.07-.39,26.54,7.93,30,20.09,6.76,23.6,6.61,70.85,6.15,114.46-.14,13.07-12,23.67-26.63,23.74l-122.57.64c-15.07.08-27.73-10-29.33-23.37L356,1469.4C354.7,1458.78,363.4,1449.23,375.33,1448.24Z"/><g class="cls-7"><path class="cls-8" d="M673.17,1483.48c-7.3-.07-11.66,5.63-9.69,12.66l14.2,50.78c2,7,9.54,12.69,16.84,12.58l770.82-11.42a13,13,0,0,0,12.78-13.46L1477,1504a14.07,14.07,0,0,0-13.76-13.38Z"/></g><path class="cls-8" d="M530.17,1934.82h-.41l-153.38.8c-22.1.12-40.57-14.83-43-34.76L318,1772.39a28.34,28.34,0,0,1,6.38-21.41A34.06,34.06,0,0,1,348,1738.92h0c12.92-1.07,30.69-2.85,50.25-4.81,40.54-4.06,91-9.11,119.42-9.88,20.18-.4,38.58,11.63,43.75,29.67,8.44,29.47,8.57,85.41,7.93,145C569.09,1918.47,551.57,1934.5,530.17,1934.82ZM349,1751.39a21.52,21.52,0,0,0-14.9,7.5,16,16,0,0,0-3.64,12l15.39,128.47c1.63,13.61,14.73,23.82,30.46,23.73l153.38-.79c14.46-.47,26.95-10.64,27.09-23.52.63-58.65.53-113.59-7.44-141.45-3.54-12.34-17-21-31.38-20.6-28,.75-78.18,5.78-118.51,9.82-19.64,2-37.49,3.75-50.45,4.83Z"/><path class="cls-9" d="M365.66,1764.06c32.18-2.67,102.1-10.82,135.3-11.73,14.07-.38,26.54,7.94,30,20.09,6.76,23.6,6.61,70.85,6.14,114.47-.14,13.06-12,23.66-26.62,23.74l-122.57.64c-15.07.08-27.74-10-29.34-23.38L346.3,1785.23C345,1774.61,353.73,1765.06,365.66,1764.06Z"/><g class="cls-7"><path class="cls-8" d="M663.5,1799.3c-7.3-.06-11.66,5.64-9.7,12.66L668,1862.74c2,7,9.54,12.69,16.84,12.58l770.82-11.42a13,13,0,0,0,12.78-13.45l-1.13-30.68a14,14,0,0,0-13.75-13.37Z"/></g><path class="cls-8" d="M517.58,2260.55h-.42l-153.38.8c-22.1.11-40.57-14.83-43-34.76l-15.39-128.48a28.33,28.33,0,0,1,6.38-21.4,34,34,0,0,1,23.55-12.06h0c12.92-1.07,30.72-2.86,50.29-4.82,42.63-4.27,91-9.11,119.37-9.88,20.84,0,38.58,11.64,43.75,29.67,8.44,29.47,8.57,85.42,7.93,145C556.49,2244.21,539,2260.23,517.58,2260.55ZM336.4,2077.13a21.44,21.44,0,0,0-14.89,7.5,15.89,15.89,0,0,0-3.65,12l15.39,128.48c1.63,13.61,14.73,23.81,30.47,23.73l153.38-.8h.3c14.66-.22,26.65-10.71,26.79-23.51.63-58.65.53-113.6-7.45-141.46-3.54-12.34-17-20.86-31.38-20.6-28,.76-78.14,5.79-118.46,9.82-19.66,2-37.53,3.76-50.5,4.84Z"/><path class="cls-9" d="M353.06,2089.8c32.18-2.68,102.1-10.83,135.3-11.73,14.07-.39,26.54,7.93,30,20.09,6.76,23.6,6.61,70.85,6.15,114.46-.14,13.07-12,23.67-26.63,23.74l-122.57.64c-15.07.08-27.73-10-29.34-23.37L333.7,2111C332.43,2100.34,341.13,2090.79,353.06,2089.8Z"/><g class="cls-7"><path class="cls-8" d="M650.9,2125c-7.3-.07-11.66,5.63-9.69,12.66l14.2,50.78c2,7,9.54,12.69,16.84,12.58l770.82-11.42a13,13,0,0,0,12.78-13.46l-1.12-30.67a14.07,14.07,0,0,0-13.76-13.38Z"/></g><path class="cls-11" d="M968.52,31.38C919.9-3.72,877.09-3.79,846.81,4.57A60.08,60.08,0,0,0,803,67l10.5,142,154.36,16.44S1063.86,100.23,968.52,31.38Zm-70,113.22a38.56,38.56,0,1,1,39.23-37.88A38.57,38.57,0,0,1,898.52,144.6Z"/><path class="cls-4" d="M827.32,153.07a7.67,7.67,0,0,1-4.88-6.59l-1.67-22.62A7.66,7.66,0,1,1,836,122.74l1.67,22.62a7.68,7.68,0,0,1-10.39,7.71ZM824,108.74a7.68,7.68,0,0,1-4.88-6.59L817.89,85a61.32,61.32,0,0,1,44.6-63.55,119.67,119.67,0,0,1,58.45-1.37,7.66,7.66,0,0,1-3.34,15,104.39,104.39,0,0,0-51,1.19,45.94,45.94,0,0,0-33.4,47.65L834.44,101a7.66,7.66,0,0,1-7.07,8.2A7.87,7.87,0,0,1,824,108.74Z"/><path class="cls-12" d="M600.9,297l1.25-71.29A43.52,43.52,0,0,1,647.91,183l491.28,25.48a42.32,42.32,0,0,1,40.09,40.47l2.91,68.58Z"/><path class="cls-4" d="M764.55,212.63a4.45,4.45,0,0,1,.2-8.9l21.14.37a4.39,4.39,0,0,1,4.37,4.52,4.46,4.46,0,0,1-4.53,4.38l-21.14-.37Z"/><path class="cls-4" d="M625.21,278.47a7.67,7.67,0,0,1-4.9-7.28l.51-28.85a44.34,44.34,0,0,1,45.12-43.56l77.72,1.36a7.67,7.67,0,0,1-.27,15.33l-77.72-1.37a29.06,29.06,0,0,0-29.54,28.51l-.51,28.85a7.65,7.65,0,0,1-7.79,7.52A7.87,7.87,0,0,1,625.21,278.47Z"/><path class="cls-13" d="M447.33,268.17l859.61,15.08A63.54,63.54,0,0,1,1368.62,337l.65,4.22a54.58,54.58,0,0,1-54.88,62.93L432.48,388.7a35.48,35.48,0,0,1-34.78-37.8l2.59-39.44A46.33,46.33,0,0,1,447.33,268.17Z"/><path class="cls-14" d="M1781,1999.43c15.36,24.53,31.55,59.69,27.64,94.86-7.1,63.94-105.17,92.36-191.11,56.83-61.4-25.37-35.08-108.73-15-154.3,6.31-14.34-4.4-30.41-20.06-30.41H1361V1717.08a28.94,28.94,0,0,1,42.34-25.7c23.12,12.07,53.53,24.89,85.53,29.94,67.49,10.65,135-63.94,127.88-135s-74.6-124.33-145.64-120.78c-24.57,1.23-45,11.51-61.25,24.42-18.7,14.87-46.36.72-46.36-23.17V1248.89H1597.7c12.91,0,20.06-15.12,11.74-25-113-134.12,113.89-264.44,170.75-177.48,43.56,66.63,11.87,142.51-9.17,179.61a15.27,15.27,0,0,0,13.26,22.86h226.79v225.42c0,23.9-27.62,38-46.39,23.16-19.56-15.43-44.72-29.08-74.38-31.91-74.59-7.1-117.22,63.94-131.84,120.78s50.14,138.53,117.63,127.87c36.4-5.74,73.82-16.35,100.59-24.91a28.92,28.92,0,0,1,37.69,27.81l-1.53,249.3H1799.59C1782.64,1966.41,1772,1985.07,1781,1999.43Z"/><path class="cls-8" d="M1695,2173.31a211.48,211.48,0,0,1-80-16c-17.46-7.22-29.71-19.31-36.39-35.91-15-37.45,1.38-89.84,17.82-127.2a14.67,14.67,0,0,0-1.2-14.16,15.2,15.2,0,0,0-12.79-6.94H1361a6.64,6.64,0,0,1-6.64-6.64V1717.08a35.58,35.58,0,0,1,52-31.58c29.3,15.3,57.39,25.15,83.5,29.27,27,4.25,56.19-6.28,80.14-28.91,28.17-26.61,43.54-64.49,40.1-98.86-6.57-65.67-70-118.17-138.71-114.81-20.22,1-39.55,8.74-57.45,23a34.51,34.51,0,0,1-36.73,4,35.68,35.68,0,0,1-20.39-32.33V1248.89a6.63,6.63,0,0,1,6.63-6.64H1597.7a8.49,8.49,0,0,0,7.85-5,8.32,8.32,0,0,0-1.18-9c-41.22-48.93-36.06-93-24.48-121.43,19.85-48.64,76.07-89.29,130.78-94.55,33.43-3.21,60.08,7.65,75.07,30.58,19.36,29.62,44,93.23-8.94,186.52a8.63,8.63,0,0,0,0,8.69,8.43,8.43,0,0,0,7.46,4.26h226.79a6.64,6.64,0,0,1,6.64,6.64v225.42a35.65,35.65,0,0,1-20.29,32.26,34.66,34.66,0,0,1-36.85-3.89c-22.73-17.93-46.58-28.19-70.9-30.51-68.51-6.54-110,58.32-124.79,115.82-6.58,25.57,4.59,59.06,28.46,85.32,23.51,25.87,54,38.71,81.72,34.35,36.59-5.78,74.35-16.61,99.59-24.68a35.58,35.58,0,0,1,46.36,34.18l-1.54,249.3a6.64,6.64,0,0,1-6.63,6.59H1799.59a15.1,15.1,0,0,0-13.36,7.9,14.55,14.55,0,0,0,.35,15c15.35,24.51,32.78,61.61,28.62,99.11-2.68,24.08-16.87,44.36-41,58.66C1752.09,2166.73,1724.32,2173.31,1695,2173.31Zm-327.32-213.53h214.72a28.45,28.45,0,0,1,23.91,13,28.1,28.1,0,0,1,2.22,26.75c-12.61,28.68-31.68,82-17.65,116.91,5.37,13.35,14.91,22.71,29.15,28.59,50.27,20.78,109.5,19.68,147.38-2.73,14.26-8.43,31.83-23.73,34.61-48.7,3.75-33.71-12.44-67.88-26.68-90.61h0a27.64,27.64,0,0,1-.7-28.42,28.55,28.55,0,0,1,25-14.75h206.66l1.49-242.71a22.18,22.18,0,0,0-9.13-18.19,22,22,0,0,0-19.91-3.26c-25.68,8.21-64.15,19.24-101.57,25.15-32.06,5.07-67.07-9.34-93.61-38.53-26.8-29.48-39.16-67.77-31.49-97.56,16.1-62.57,62.13-133,138.9-125.72,26.9,2.56,53.09,13.77,77.86,33.3a21.19,21.19,0,0,0,22.84,2.37,22.47,22.47,0,0,0,12.81-20.32V1255.52H1784.28a21.9,21.9,0,0,1-19-32.76c21.21-37.42,50.64-109.61,9.38-172.71-12.17-18.61-34.45-27.37-62.69-24.64-50.16,4.82-101.64,41.94-119.77,86.35-14.63,35.86-6.9,73.16,22.34,107.87a21.87,21.87,0,0,1-16.81,35.89H1370.17v211.29a22.52,22.52,0,0,0,12.89,20.38,21,21,0,0,0,22.71-2.4c20.11-16,42-24.7,65-25.85,76.65-3.89,145.2,53,152.57,126.73,3.84,38.38-13.09,80.46-44.18,109.83-27,25.48-60.26,37.28-91.33,32.37-27.53-4.35-57-14.64-87.57-30.61a22.31,22.31,0,0,0-32.64,19.82Z"/><path class="cls-15" d="M1799.4,2599.59c21.74-38.76,25.29-94.34-76.05-143-146.22-70.19-175.93,61.86-138.64,146.41,9.44,21.41-6.44,45.4-29.84,45.4H1361v-208.8c0-20.68-21.06-35.1-40.1-27a245.7,245.7,0,0,1-84.79,19.14c-77.59,3.55-136.65-60.38-124.88-149.19s87.31-110.11,124.13-99.46c19.23,5.57,52.62,26.9,80.15,46,19.22,13.35,45.49-.42,45.49-23.82V1966.41h221.35c15.66,0,26.37,16.07,20.06,30.41-20,45.57-46.36,128.93,15,154.3,85.94,35.53,184,7.11,191.11-56.83,3.91-35.17-12.28-70.33-27.64-94.86-9-14.36,1.68-33,18.63-33h213.25l-1.34,217c-.16,26.08-29.24,40.88-50.89,26.35-20.15-13.52-44.66-25.23-70.31-26.66-63.94-3.55-127.87,46.18-131.63,110.12s42.83,145.64,113.87,142.08c33.58-1.67,68-19.22,94.87-37.27,21.59-14.47,50.52,1.06,50.36,27.06l-1.34,223.34h-188.9C1802.46,2648.42,1787.13,2621.46,1799.4,2599.59Z"/><path class="cls-8" d="M2016.44,2655.06H1827.53a38.61,38.61,0,0,1-33.64-19.23,39.32,39.32,0,0,1-.28-39.48h0c11.64-20.76,14.55-40.77,8.64-59.48-8.66-27.4-36.17-52.39-81.77-74.28-52.44-25.17-93.46-25.63-118.6-1.28-24.6,23.82-36.85,80.64-11.1,139a39.09,39.09,0,0,1-35.91,54.72H1361a6.64,6.64,0,0,1-6.64-6.64v-208.8a22.67,22.67,0,0,0-10.2-18.94,21.58,21.58,0,0,0-20.66-2,251.48,251.48,0,0,1-87.08,19.66c-38.73,1.79-73.83-12.25-98.81-39.48-27.33-29.78-39-71.41-33-117.21,6.66-50.17,32.27-76.53,52.58-89.79,30-19.6,61.83-20.42,80-15.17,16.5,4.78,44.12,20.57,82.08,46.94a22.34,22.34,0,0,0,35.07-18.37V1966.41a6.63,6.63,0,0,1,6.64-6.63h221.35a28.45,28.45,0,0,1,23.91,13,28.1,28.1,0,0,1,2.22,26.75c-12.61,28.68-31.68,82-17.65,116.91,5.37,13.36,14.91,22.71,29.15,28.59,50.27,20.78,109.5,19.68,147.38-2.73,14.26-8.43,31.84-23.73,34.61-48.7,3.74-33.71-12.44-67.88-26.68-90.61a27.64,27.64,0,0,1-.7-28.42,28.55,28.55,0,0,1,25-14.75h213.25a6.64,6.64,0,0,1,6.63,6.68l-1.34,217a38.19,38.19,0,0,1-20.56,34,39.63,39.63,0,0,1-40.66-2.23c-23.53-15.79-46.07-24.38-67-25.54-62.82-3.48-121.18,45-124.64,103.88-2.21,37.55,14.06,80.68,40.48,107.33,13.38,13.5,35.72,29.26,66.44,27.74,26.56-1.33,58.2-13.83,91.5-36.16a39,39,0,0,1,60.69,32.61l-1.33,223.34A6.64,6.64,0,0,1,2016.44,2655.06Zm-211.26-52.22a26.18,26.18,0,0,0,.16,26.28,25.46,25.46,0,0,0,22.19,12.67h182.31l1.3-216.75a25.7,25.7,0,0,0-40-21.51c-35.81,24-68.85,36.92-98.23,38.39-28.16,1.4-54.61-9.54-76.53-31.65-29.36-29.62-46.75-75.72-44.29-117.45,3.87-65.87,68.62-120.14,138.62-116.35,23.32,1.29,48.09,10.64,73.63,27.77a26,26,0,0,0,27.06,1.52,25.13,25.13,0,0,0,13.51-22.4l1.29-210.31H1799.59a15.1,15.1,0,0,0-13.36,7.9,14.55,14.55,0,0,0,.35,15c15.35,24.51,32.78,61.61,28.62,99.11-2.68,24.08-16.87,44.36-41,58.66-42,24.81-104.44,26.21-159.21,3.58-17.47-7.22-29.71-19.31-36.39-35.91-15-37.45,1.38-89.84,17.82-127.2a14.67,14.67,0,0,0-1.2-14.16,15.2,15.2,0,0,0-12.79-6.94H1367.67v232.24a35.6,35.6,0,0,1-55.9,29.27c-36.27-25.19-63.31-40.78-78.21-45.1-16.66-4.81-44.48-2.5-69,13.53-18,11.76-40.68,35.25-46.68,80.44-5.54,41.83,5,79.65,29.58,106.49,22.28,24.29,53.68,36.79,88.43,35.2a238.54,238.54,0,0,0,82.5-18.62,35.09,35.09,0,0,1,33.17,3.11,35.93,35.93,0,0,1,16.15,30v202.17h187.2a25.9,25.9,0,0,0,21.76-11.79,25.2,25.2,0,0,0,2-24.31c-21-47.67-23.26-117.82,14-153.92,20.55-19.9,60.41-36.26,133.57-1.14,49,23.53,78.87,51.2,88.68,82.24,7.06,22.34,3.79,45.88-9.72,70Z"/><path class="cls-16" d="M1142.29,2600.64a193.92,193.92,0,0,0,19.83-58c20.48-124-133-107.3-194.39-43.36-31.24,32.55-20.8,70.91-3,100.73,13,21.86-2.25,49.56-27.71,49.56H728.11V2449.44c0-22.66,24-36.78,44.12-26.39,23.18,12,54.5,22.9,91.51,22.9,81.7,0,101.25-110.11,103.91-145.64,2.4-32.22-56.15-160.88-194.15-81.13-20,11.53-44.94-2.83-44.94-25.88V1961.09H943c17.87,0,27.84-20.24,17.32-34.7-49.77-68.42-6.07-165.53,31.33-182,44.41-19.54,135-24.87,161.63,74.59,13.91,51.93,1.08,89.82-14.36,114.17a21.66,21.66,0,0,0,18.36,33.24H1361v238.88c0,23.4-26.27,37.17-45.49,23.82-27.53-19.12-60.92-40.45-80.15-46-36.82-10.65-112.36,10.66-124.13,99.46s47.29,152.74,124.88,149.19a245.7,245.7,0,0,0,84.79-19.14c19-8.08,40.1,6.34,40.1,27v208.8H1171C1146.45,2648.42,1130.91,2622.4,1142.29,2600.64Z"/><path class="cls-8" d="M937,2656.16H728.11a6.64,6.64,0,0,1-6.64-6.64V2449.44a36.12,36.12,0,0,1,17.42-31.08,36.88,36.88,0,0,1,36.38-1.2c28.5,14.7,58.26,22.16,88.47,22.16,85.89,0,96.87-133.81,97.29-139.5,1.25-16.74-16.37-61.92-53.14-85-35.6-22.36-80.93-18.86-131.07,10.11a36.58,36.58,0,0,1-54.9-31.62V1961.09a6.64,6.64,0,0,1,6.64-6.64H943a14.65,14.65,0,0,0,13.3-8.11,15.14,15.14,0,0,0-1.34-16c-31.35-43.1-24.75-91.35-18-116.27,9.67-35.83,30.59-66.24,52-75.69,26.93-11.84,71.92-19.19,110.09-.88,29.87,14.33,50.26,41.19,60.61,79.83,14.87,55.5,0,95.59-15.15,119.44a15,15,0,0,0,12.75,23.06H1361a6.63,6.63,0,0,1,6.63,6.63v238.88a35.6,35.6,0,0,1-55.9,29.27c-36.27-25.19-63.31-40.78-78.21-45.1-16.66-4.81-44.48-2.5-69,13.53-18,11.76-40.68,35.25-46.68,80.44-5.54,41.83,5,79.65,29.58,106.49,22.28,24.29,53.68,36.79,88.43,35.2a238.54,238.54,0,0,0,82.5-18.62,35.08,35.08,0,0,1,33.17,3.11,35.93,35.93,0,0,1,16.15,30v208.8a6.63,6.63,0,0,1-6.63,6.64H1171a39.18,39.18,0,0,1-34.6-57.49h0a186.57,186.57,0,0,0,19.16-56c6.17-37.33-4-63.76-29.25-76.43-40.49-20.28-115.23-1.45-153.8,38.75-23.5,24.47-24.21,55.68-2.11,92.73a39.25,39.25,0,0,1,.51,39.91A38.54,38.54,0,0,1,937,2656.16Zm-202.27-13.27H937a25.42,25.42,0,0,0,22.37-13,26.11,26.11,0,0,0-.37-26.56c-25.17-42.22-23.81-79.81,3.93-108.72,42.82-44.62,123.52-64.36,169.33-41.43,30.57,15.32,43.5,47.44,36.39,90.46a199.73,199.73,0,0,1-20.49,60h0a26,26,0,0,0,.75,25.66,25.61,25.61,0,0,0,22.09,12.42H1354.4V2439.62a22.67,22.67,0,0,0-10.2-18.94,21.58,21.58,0,0,0-20.66-2,251.48,251.48,0,0,1-87.08,19.66c-38.73,1.79-73.83-12.25-98.81-39.48-27.33-29.78-39-71.41-33-117.21,6.66-50.17,32.27-76.53,52.58-89.79,30-19.6,61.83-20.42,80-15.17,16.5,4.78,44.12,20.57,82.08,46.94a22.34,22.34,0,0,0,35.07-18.37V1973.05H1157.24a28.3,28.3,0,0,1-24-43.43c13.7-21.61,27.17-58,13.55-108.9-9.3-34.74-27.32-58.73-53.54-71.31-34.1-16.36-74.65-9.65-99,1.07-14.93,6.57-35,31.7-44.57,67-6.11,22.63-12.17,66.37,15.94,105a28.55,28.55,0,0,1,2.43,29.87A28,28,0,0,1,943,1967.72H735.19V2193.3a23.32,23.32,0,0,0,35,20.14c69.07-39.92,116.85-27.39,144.77-9.86,42.34,26.58,60.85,76.66,59.31,97.23-4.2,56.37-32.22,151.78-110.52,151.78-32.35,0-64.16-8-94.55-23.64a23.7,23.7,0,0,0-23.4.74,22.66,22.66,0,0,0-11,19.75Z"/><path class="cls-17" d="M942.55,1248.77s-193.27,205.64-378.09,216.9c0,0,15.46,104.35,39.78,120.64,0,0,251.51-139,340.82-302.54Z"/><path class="cls-18" d="M1077.48,1717.12c15.44-24.36,28.26-62.25,14.36-114.18-26.64-99.46-117.22-94.13-161.63-74.59-37.4,16.46-81.1,113.56-31.33,182,10.52,14.46.55,34.7-17.32,34.7H667.16V1493.64c0-22.18-23.26-36.79-43.11-26.88a241.31,241.31,0,0,1-88.12,24.29c-85.25,7.11-125.66-67.49-121.44-142.08,3.66-64.7,97.67-145.43,199-75.33,19.75,13.66,46.73-.73,46.73-24.74V1027H923.11c-81.7,68.74-60.39,169.25,21.31,208.32s156.3,7.1,163.4-81.7c3.66-45.72-12.56-76.38-29.16-95.36-8.7-10-1.83-25.41,11.38-25.41h212.1v217.92c0,23.89,27.66,38,46.36,23.18,16.23-12.92,36.68-23.19,61.25-24.42,71-3.55,138.53,49.73,145.64,120.77s-60.39,145.64-127.88,135c-32-5-62.41-17.86-85.53-29.93a28.94,28.94,0,0,0-42.34,25.69v249.34h-203.8A21.66,21.66,0,0,1,1077.48,1717.12Z"/><path class="cls-8" d="M1299.64,1757h-203.8a28.29,28.29,0,0,1-24-43.43h0c13.7-21.61,27.17-58,13.55-108.9-9.31-34.74-27.32-58.73-53.54-71.31-34.11-16.35-74.65-9.65-99,1.07-14.94,6.57-35,31.7-44.58,67-6.11,22.64-12.17,66.38,15.94,105a28.56,28.56,0,0,1,2.43,29.88,28,28,0,0,1-25.13,15.35H667.16a6.63,6.63,0,0,1-6.63-6.63V1493.64a23.25,23.25,0,0,0-11.1-19.91,22.88,22.88,0,0,0-22.41-1,247.53,247.53,0,0,1-90.54,25c-34.94,2.91-65.48-7.29-88.3-29.51-27.94-27.21-43-71.9-40.32-119.56,2.11-37.14,31.07-76.52,70.45-95.77,25.54-12.48,77.58-27.1,139,15.36a22.64,22.64,0,0,0,23.78,1.41,23,23,0,0,0,12.55-20.69V1027a6.63,6.63,0,0,1,6.63-6.64H923.11a6.63,6.63,0,0,1,4.27,11.71c-36.25,30.51-53.46,69-48.46,108.24,4.79,37.56,30.35,70.84,68.37,89,40.53,19.39,80.42,20.93,109.44,4.22,25.72-14.81,41.51-43.38,44.48-80.46,3.57-44.65-13-73.84-27.55-90.47a21.88,21.88,0,0,1,16.38-36.4h212.1a6.63,6.63,0,0,1,6.63,6.63v217.92a22.5,22.5,0,0,0,12.89,20.38,21,21,0,0,0,22.71-2.39c20.12-16,42-24.71,65.05-25.86,76.69-3.87,145.2,53,152.57,126.74,3.84,38.37-13.1,80.46-44.19,109.83-27,25.47-60.26,37.26-91.32,32.36-27.52-4.34-57-14.64-87.57-30.6a22.3,22.3,0,0,0-32.64,19.81v249.34A6.63,6.63,0,0,1,1299.64,1757Zm-216.55-36.33a15,15,0,0,0,12.75,23.06H1293V1501a35.58,35.58,0,0,1,52-31.57c29.3,15.29,57.4,25.14,83.5,29.26,27,4.27,56.19-6.28,80.14-28.9,28.17-26.61,43.53-64.5,40.1-98.87-6.57-65.66-70.1-118.16-138.71-114.81-20.22,1-39.55,8.75-57.45,23a34.49,34.49,0,0,1-36.73,4,35.66,35.66,0,0,1-20.39-32.33V1039.46H1090a8.38,8.38,0,0,0-7.83,5,8.6,8.6,0,0,0,1.44,9.41c16.22,18.55,34.73,51,30.78,100.26-3.32,41.56-21.46,73.84-51.08,90.89-32.86,18.93-77.25,17.56-121.79-3.73-42.11-20.14-70.44-57.27-75.8-99.32-4.88-38.34,9.74-77.06,40.43-108.36H666.89V1248.9a36.55,36.55,0,0,1-19.66,32.45,35.73,35.73,0,0,1-37.49-2.26c-55.83-38.6-102.66-25.56-125.6-14.34-35.27,17.23-61.18,52-63,84.59-2.48,43.88,11.1,84.74,36.33,109.3,20.27,19.74,46.48,28.43,77.94,25.8a234.37,234.37,0,0,0,85.71-23.62,36.5,36.5,0,0,1,52.7,32.82V1738.4H881.55a14.68,14.68,0,0,0,13.31-8.11,15.16,15.16,0,0,0-1.34-16c-31.36-43.11-24.75-91.36-18-116.29,9.67-35.82,30.59-66.24,52-75.67,26.93-11.85,71.92-19.2,110.09-.89,29.87,14.33,50.26,41.19,60.61,79.84,14.87,55.5,0,95.58-15.15,119.43Z"/><path class="cls-19" d="M481.06,1239.81s-34.16,16.62-40.45,35.71c-5,15.32-42.81,17.29-46.54,47.42-1.93,15.55-13.44,28-28.93,30.38-38.58,5.91-98,26-107.56,92.94-7.26,51.13,18.81,70.51,46.16,77.23,20.09,4.92,33.45,24.47,29.38,44.75-3.9,19.46,1.92,42,35.62,59.73,75.54,39.86,151-94.42,151-94.42l15.45-234.45Z"/><path class="cls-20" d="M170.59,2709.93l-4.89,40.18a16.59,16.59,0,0,1-14.55,14.52c-12.89,1.47-33.56,3-53.78.84A14.21,14.21,0,0,1,85.43,2747c4.93-15.51,13.95-38.8,27-52.5H157A13.73,13.73,0,0,1,170.59,2709.93Z"/><path class="cls-21" d="M519.71,2239.23l7.52,44.26S502,2538.68,497.55,2640.76a80,80,0,0,0,11.84,45.46l43.81,71.14-111.34-65.7-2.21-13.59L457.87,2653,434,2367.13a87.72,87.72,0,0,1,10-48.51l23-43.26Z"/><path class="cls-22" d="M560.53,2767.67H525a21.41,21.41,0,0,1-17-8.33c-11.07-14.39-34-42.47-45-43.2-14.77-1-12.88,51.53-12.88,51.53h-8.28l-10.49-65.26A38.64,38.64,0,0,1,451.64,2662h0s3.38,25,21.69,36,74.51,50.61,74.51,50.61a50.48,50.48,0,0,1,14.44.38C573.49,2751.07,571.92,2767.67,560.53,2767.67Z"/><path class="cls-23" d="M367.21,2260.25s-147.59,280-171.06,343.9-31.68,117.24-32,122.29c-.49,7.89-10.31,15.46-37.36,15.46-14,0-20.8-5.59-24.15-11a15.79,15.79,0,0,1-.59-15.28c8.53-17.27,35.63-72.49,45.66-97.54,12-29.9,37.75-165.41,51.89-212.52s30.11-98.22,91.65-145.3C291.26,2260.25,333.51,2218.87,367.21,2260.25Z"/><path class="cls-24" d="M460.45,1801.5c38.07-161.33-58.38-252.57-58.38-252.57,60.86-58.42,171.74-85,171.74-85s105.81,77.35,93.26,137.9c-7.36,35.48-74.38,212.55-74.38,212.55S530.73,1843.71,460.45,1801.5Z"/><path class="cls-25" d="M376,1881.37c15.49-46.68,84.41-79.87,84.41-79.87,70.28,42.21,132.24,12.88,132.24,12.88s13.9,53.12,4.31,102.49-69.77,366.62-69.77,366.62c-94.82,19.21-240.65-19.33-240.65-19.33C347,2156.93,360.54,1928.05,376,1881.37Z"/><path class="cls-26" d="M504.64,1357.32l-30.95,139c-3,12.24,8.2,10.24,20.58,7.9,20.28-3.82,46.41-11.69,55.15-27.47a15,15,0,0,0,1.58-5.24l13.3-96.41a17.32,17.32,0,0,0-10.14-18.21l-25.66-11.37A17.31,17.31,0,0,0,504.64,1357.32Z"/><path class="cls-27" d="M385,1591.87S668.1,1937.61,879.64,1544c0,0,4.06-10.06,1.52-24.59-1.28-7.34,3.57-33.36,6.24-46.65a7.34,7.34,0,0,0-6.52-8.74h0a10,10,0,0,0-8.84,3.79L833.4,1517a20.62,20.62,0,0,0,10.94,24.48h0a10.18,10.18,0,0,1,3.77,15.37c-160.88,210.89-430-20.52-434.88-17.81C395.76,1548.66,375.57,1559.32,385,1591.87Z"/><path class="cls-28" d="M541,1224.93s36.66,15.48,61.59,68.46,6.31,77.43-17.07,80.79-58.35,2.85-95.34-31.38S493.3,1206.58,541,1224.93Z"/><path class="cls-29" d="M515,1314.52s-27.65-77.5,41.06-78.42l16.17,11.3s25.21-43-16.17-63.48-89.81-3.57-107.42,52.18-20.62,93.07,8.68,119.75,41.37-3.57,41.37-3.57-16-25-9.46-38.3,21.47,2.76,21.47,2.76Z"/><path class="cls-30" d="M507.3,1323.16s-14-39.93-32.64-24,15.16,36.88,28.4,43.67Z"/><path class="cls-31" d="M1905.7,2798.85a14.9,14.9,0,0,0,14.78-12.17L2154,1441.57a14.64,14.64,0,0,0-12.31-16.82,15,15,0,0,0-17.29,12L1890.88,2781.83a14.64,14.64,0,0,0,12.3,16.82A16.66,16.66,0,0,0,1905.7,2798.85Z"/><path class="cls-32" d="M2693.33,2798.85a15.19,15.19,0,0,0,3-.29,14.61,14.61,0,0,0,11.75-17.19L2432.84,1453.76a15,15,0,0,0-17.68-11.42,14.61,14.61,0,0,0-11.75,17.19l275.22,1327.61A14.92,14.92,0,0,0,2693.33,2798.85Z"/><path class="cls-33" d="M2083.84,1774h399a14.6,14.6,0,1,0,0-29.19h-399a14.6,14.6,0,1,0,0,29.19Z"/><path class="cls-34" d="M2091.07,1774h384.49a14.6,14.6,0,0,0,0-29.19H2091.07a14.6,14.6,0,0,0,0,29.19Z"/><path class="cls-35" d="M2083.84,2017.2h399a14.6,14.6,0,1,0,0-29.18h-399a14.6,14.6,0,1,0,0,29.18Z"/><path class="cls-36" d="M2047.61,2017.2h483.7a14.6,14.6,0,1,0,0-29.18h-483.7a14.6,14.6,0,1,0,0,29.18Z"/><path class="cls-37" d="M2083.84,2260.42h399a14.6,14.6,0,1,0,0-29.19h-399a14.6,14.6,0,1,0,0,29.19Z"/><path class="cls-38" d="M2001.41,2260.42h579a14.6,14.6,0,1,0,0-29.19h-579a14.6,14.6,0,1,0,0,29.19Z"/><path class="cls-39" d="M2083.84,2503.63h543.1a14.6,14.6,0,1,0,0-29.18h-543.1a14.6,14.6,0,1,0,0,29.18Z"/><path class="cls-40" d="M1964,2503.63h662.9a14.6,14.6,0,1,0,0-29.18H1964a14.6,14.6,0,1,0,0,29.18Z"/><path class="cls-41" d="M1797.83,419.15a5.2,5.2,0,0,1,9.91-2l21.68,46.26a48.17,48.17,0,0,1,3.85,28.66L1825.66,519a46.47,46.47,0,0,0,9.48,37c19.92,24.9,62.33,70.38,122.72,95.47-10,20.74-25.52,47.38-47.9,71.49-43.88-33.83-81.41-79.6-102-141.59a22.73,22.73,0,0,1-16-22.6Z"/><path class="cls-42" d="M1503,851.56c18.57-32.74,46.55-99.72,8.09-158.53-50.18-76.75-250.45,38.27-150.71,156.66,7.34,8.71,1,22-10.35,22H1143.36V649.13a25.55,25.55,0,0,0-36.6-23.07c-23.9,11.44-56.91,24.48-91,29.35-65.84,9.4-104.94-65.84-96.36-128.55s83.82-100.33,121.45-94.05c17.46,2.91,40.69,18.18,60.56,33.71,16.83,13.15,41.39,1.26,41.39-20.1V229h199.68a19.78,19.78,0,0,0,15.71-31.79c-41.76-54.85-23.35-123,33.8-143.79,69-25.08,131.68-6.27,141.09,65.84s-43,109.74-43,109.74h219l-7.89,218.36c-.76,20.79,22.2,33.65,39.62,22.27,22.25-14.54,51.65-29.33,83.79-33.71,69-9.41,131.68,47,131.68,106.6s-53.3,131.68-138,116c-30.74-5.69-52.8-12.5-68.42-18.87-16.77-6.83-35,5.65-35,23.75V871.74H1514.73A13.48,13.48,0,0,1,1503,851.56Z"/><path class="cls-8" d="M1714.9,878.37H1514.73a20.11,20.11,0,0,1-17.48-30.08c18.64-32.87,44.5-96.27,8.31-151.63-10.57-16.17-30-23.75-54.61-21.4-44,4.23-89.17,36.8-105.06,75.75-12.8,31.36-6,64,19.59,94.4a20.09,20.09,0,0,1-15.44,33H1143.36a6.63,6.63,0,0,1-6.63-6.63V649.13A18.93,18.93,0,0,0,1109.62,632c-22.63,10.83-57.13,24.82-92.94,29.94-25.94,3.69-49.79-4.43-69-23.5C921.22,612.16,907.2,567,912.81,526c3.81-27.88,20.6-54.05,47.27-73.69,26.26-19.35,59.16-29.77,81.84-26,15.79,2.63,37.17,14.42,63.55,35a18.94,18.94,0,0,0,30.67-14.87V229a6.64,6.64,0,0,1,6.64-6.64h199.68a13.14,13.14,0,0,0,10.43-21.13c-22-28.89-29.39-63.23-20.3-94.2,8.17-27.8,29-49.61,57.12-59.84,42.45-15.44,81.2-14.6,109.12,2.37,22.61,13.75,36.73,37.55,40.81,68.85,6.8,52.14-16.72,87-32.53,104h202a6.65,6.65,0,0,1,6.63,6.88l-7.9,218.36a18.94,18.94,0,0,0,29.37,16.48c29.41-19.23,58.52-30.91,86.52-34.73,35.06-4.78,71.07,6.37,98.83,30.6,25.66,22.4,40.38,52.5,40.38,82.57,0,36.33-18,73.83-46.88,97.88-19.27,16-52.07,33.32-98.91,24.65-27.33-5.07-50.79-11.54-69.72-19.25a18.43,18.43,0,0,0-17.5,1.81,18.75,18.75,0,0,0-8.4,15.79V871.74A6.63,6.63,0,0,1,1714.9,878.37ZM1459.7,661.56c25.1,0,45.1,9.7,57,27.84,17.19,26.29,39,82.73-7.86,165.44h0a6.85,6.85,0,0,0,5.94,10.27h193.54V663.42a32.14,32.14,0,0,1,44.18-29.89c18.1,7.37,40.68,13.59,67.12,18.49,41.78,7.72,70.93-7.58,88-21.8,25.57-21.26,42.09-55.68,42.09-87.68,0-26.24-13.06-52.69-35.84-72.58-24.87-21.7-57.06-31.71-88.31-27.45-26,3.55-53.3,14.55-81.06,32.69a32.19,32.19,0,0,1-49.88-28.06l7.65-211.49H1490.09a6.63,6.63,0,0,1-3.87-12c2-1.45,49-36.38,40.26-103.49-3.59-27.55-15.21-47.48-34.54-59.22-24.41-14.84-59.1-15.28-97.7-1.24-24.12,8.77-42,27.4-48.91,51.11-7.9,26.88-1.29,56.92,18.12,82.43a26.41,26.41,0,0,1-21,42.43h-193V446.42a32.21,32.21,0,0,1-52.11,25.32c-24.26-19-44.17-30.16-57.56-32.39-19.08-3.16-48.6,6.53-71.8,23.61-23.75,17.5-38.67,40.51-42,64.81-5.07,37.05,7.43,77.77,31.1,101.3,16.13,16,36.12,22.84,57.76,19.77,34.14-4.88,67.29-18.34,89.09-28.76a32.19,32.19,0,0,1,46.1,29v216h200a6.78,6.78,0,0,0,6.22-4,6.63,6.63,0,0,0-.93-7.17c-36.63-43.48-32-82.71-21.73-108,17.62-43.18,67.53-79.27,116.08-83.93C1453.1,661.73,1456.45,661.56,1459.7,661.56Z"/><path class="cls-43" d="M2063.84,668.5c169.87-14.1,214.27,21,214.27,21l-81.63,128.88S2029.56,815.13,1910,723c22.38-24.11,37.93-50.75,47.9-71.49C1988.7,664.27,2024.22,671.79,2063.84,668.5Z"/><path class="cls-44" d="M2479.19,1908.17s12.3,19.39,15.39,73.68a8.84,8.84,0,0,1-8.78,9.36h-96.2a5.67,5.67,0,0,1-5.39-7.46c5.63-16.68,22.68-57.36,60.71-80.6Z"/><path class="cls-45" d="M2483.37,1871.39l-5.44,45.62a8.6,8.6,0,0,1-7.49,7.55,76.11,76.11,0,0,1-20.34-.2,14.08,14.08,0,0,1-11.62-14v-44Z"/><path class="cls-46" d="M2241.18,1903.15s18.41,28.62,18,67.9a17,17,0,0,1-17.1,16.62H2092.7a7.15,7.15,0,0,1-4.11-13c28.27-19.85,83.84-56.94,124-71.51Z"/><path class="cls-47" d="M2256.56,1853.87l-11.6,56.35a11.62,11.62,0,0,1-13.74,9.14,42,42,0,0,1-13.14-5.5,13.34,13.34,0,0,1-6-13.61l12-68.26Z"/><path class="cls-48" d="M2462.05,1070.48s40.36,35.57,47.95,78.37-21.52,738.48-21.52,738.48-40.35,6.71-61.15-5.89c0,0-24.67-451.49-43.42-555.82,0,0-98.35,467.69-125.6,552.19,0,0-38.87,4.73-51.41-2.67,0,0,25.76-606.24,58.13-714Z"/><path class="cls-49" d="M2385.08,1310.85a4.28,4.28,0,0,0,4.14-3.2l16.72-64.14,35.62-22.85a4.28,4.28,0,1,0-4.62-7.2l-37,23.75a4.25,4.25,0,0,0-1.83,2.52l-17.14,65.76a4.27,4.27,0,0,0,3.06,5.22A4.06,4.06,0,0,0,2385.08,1310.85Z"/><path class="cls-50" d="M2007.93,743.22c59.8-64.44,173.7-93.55,239.65-105.51a60.49,60.49,0,0,1,67.61,38.36c29.68,79.78,110.4,287.34,126,323,12.84,29.26,26.24,57.85,34.76,75.72a21.45,21.45,0,0,1-10,28.58c-55.48,26.75-155.32,57-195.8,68.81a13.89,13.89,0,0,1-17.77-13.36,43.44,43.44,0,0,0-6.18-22.33l-153.3-255.45C1997.38,987,1913.7,996.68,1849.43,973.49a484,484,0,0,0,21.27-100.4C1965.66,856.82,2007.93,743.22,2007.93,743.22Z"/><path class="cls-51" d="M1713.74,855.31l17.14-22.85c55.48,38.11,101.85,47.14,139.82,40.63a484,484,0,0,1-21.27,100.4C1764.75,942.94,1713.74,855.31,1713.74,855.31Z"/><path class="cls-52" d="M1725.83,855.73l-96.55,3.76-88.89-49.65c12.76-8,84.91,8.35,84.91,8.35s75.43-11.41,95.85-11.43c16.95,0,14.53,24.36,13.22,32.62-.26,1.69-.48,2.7-.48,2.7Z"/><path class="cls-53" d="M2156.87,519.36l50.94,124.31s-58.53,40.51-105.62,36.66l-25.42-111.78Z"/><path class="cls-54" d="M2070.82,434.62c-1.16,1.66-36.85,130.57-36.85,130.57L2108,584l52-117.16S2090.36,407,2070.82,434.62Z"/><path class="cls-55" d="M2132.11,484.64l-22.53,63.82a9.38,9.38,0,0,1-1.18,2.29c-3.06,4.34-14.67,18.52-28.45,5.75-12.5-11.59-24.08-22-34.78-23.86a9.44,9.44,0,0,0-10.75,6.78c-3.24,11.72-10.05,38.25-12.45,62.2a9.43,9.43,0,0,0,7.66,10.17c14.47,2.74,45.13,7.68,70.73,5.88a9.46,9.46,0,0,0,8-5.49c7.06-15.42,28.67-62.19,36.71-74.29,7.55-11.36,26-11,33.8-10.35a9.24,9.24,0,0,0,7-2.28c6.79-6,19.71-21.13,1.54-39.31a9.46,9.46,0,0,1,.22-13.63c7.8-7.34,16.14-20.35,3.14-36.49-13.21-16.4-30.65-13.79-41.34-9.89a9.46,9.46,0,0,1-11.38-4.2c-1.34-2.25-3.67-4-7.71-3.61a9.32,9.32,0,0,1-9.94-9.55c.19-10.51-3.57-23.78-21.8-29.45-32.34-10.07-52.52,21.18-54.51,44.49s33.69,32.24,54.67,30.67c16-1.2,27.81,14.62,32.57,22.27A9.36,9.36,0,0,1,2132.11,484.64Z"/><path class="cls-56" d="M2136.6,561.05s5.22-40.48,22.06-42.47,33.23,11.86,16.49,34.58C2154.32,581.42,2136.6,561.05,2136.6,561.05Z"/></g></g></svg>