<svg xmlns="http://www.w3.org/2000/svg" viewBox="0 0 421.38 355.64"><defs><style>.cls-1,.cls-4,.cls-6{fill:#2c2a40;}.cls-1{opacity:0.1;}.cls-2{fill:#f9b587;}.cls-3{fill:#f39568;}.cls-5{fill:#b0b1ca;}.cls-6{opacity:0.2;}.cls-7{fill:#6c8c31;}.cls-8{fill:none;}.cls-9{fill:#5b5b6c;}.cls-10{fill:#a5c723;}.cls-11{fill:#b8e019;}.cls-12{fill:#fff;}.cls-13{fill:#00497b;}.cls-14{fill:#007bb0;}</style></defs><g id="Слой_2" data-name="Слой 2"><g id="OBJECTS"><path class="cls-1" d="M375,122.12c-9-34.79-41.65-32.63-72.63-26.17-16.67,3.47-40,8.28-64.35,1.18C185.64,81.86,125.37,78,95.67,97.13s-47.55,42.09-39,74.22,30.32,61,11.82,78.23S50.31,331.91,126.39,337,194.93,269,245.18,272.43s153.39,52.82,157.75,17-51.61-61.4-31.54-120.9C375.37,156.7,379.14,138,375,122.12Z"/><path class="cls-1" d="M200.09,65.18s1.95-12.48,7.42-12c1.51.13,2.54,1.67,3.22,3.31a1.15,1.15,0,0,0,2.17-.11c1.44-5.07,4.4-12.81,9-12.81,4.75,0,4.9,8.86,4.56,14.25a.8.8,0,0,0,1.46.5c1.25-1.84,3.08-3.61,5.3-3.1,4.32,1,3.16,10,3.16,10Z"/><path class="cls-1" d="M0,182.53s1.94-12.48,7.41-12c1.52.13,2.55,1.67,3.22,3.31a1.15,1.15,0,0,0,2.17-.11c1.45-5.07,4.41-12.81,9-12.81,4.75,0,4.9,8.86,4.56,14.25a.8.8,0,0,0,1.46.5c1.25-1.84,3.07-3.61,5.3-3.1,4.32,1,3.16,9.95,3.16,9.95Z"/><path class="cls-1" d="M385,132.67s2-12.47,7.42-12c1.51.14,2.54,1.67,3.22,3.32a1.15,1.15,0,0,0,2.17-.11c1.44-5.07,4.41-12.81,9-12.81,4.75,0,4.91,8.85,4.56,14.25a.8.8,0,0,0,1.46.5c1.25-1.85,3.08-3.62,5.3-3.1,4.33,1,3.16,9.94,3.16,9.94Z"/><path class="cls-2" d="M269.39,165a51.27,51.27,0,0,1-13.94,8.08s-4.72,2.95-10.76,6.39h0c-7.12,4.05-12.61,6.73-17.86,8.16a83.77,83.77,0,0,0-11.29,4l-1,.46h0c-2.93,1.32-4.69,2.3-4.69,2.3l-3.67-8.66s6.68-6.64,10.62-9.9c4.89-4,13.76-12.76,24.14-16.52h0a18.24,18.24,0,0,1,2.38-.69,165.06,165.06,0,0,1,14.46-9,18.44,18.44,0,0,1,4.95-2S272.47,156.58,269.39,165Z"/><path class="cls-3" d="M246.41,163.54s-3.48-3.85-5.51-4.24h0a18.24,18.24,0,0,1,2.38-.69S246.1,161.45,246.41,163.54Z"/><path class="cls-3" d="M269.39,165a51.27,51.27,0,0,1-13.94,8.08s-4.72,2.95-10.76,6.39c4.2-3,10.84-9.35,15.94-13.71,3.48-3,1.56-6.77.15-10.33-.59-1.48-2.12-4.06-2.84-5.74,0-.07-.14-.08-.2-.12a18.44,18.44,0,0,1,4.95-2S272.47,156.58,269.39,165Z"/><path class="cls-2" d="M214.15,188.79l1.11,10.42a3.48,3.48,0,0,1-1.11,2.95l-6.08,5.55a1.77,1.77,0,0,1-2.51-.11h0a1.78,1.78,0,0,1-.16-2.2l4.52-6.61-.78-2-2.64,4-2.12,3.95-1.08,6.15a1.58,1.58,0,0,1-1.91,1.28h0a1.6,1.6,0,0,1-1.24-1.68l.61-7.38.88-5.37-2.18,5.53-2.38,9.07a1.53,1.53,0,0,1-1.28,1.12h0a1.53,1.53,0,0,1-1.72-1.6l.48-8,1.62-5.72-4.75,8-2.58,5.62a1.37,1.37,0,0,1-1.64.74h0a1.37,1.37,0,0,1-.92-1.71l2-6.61,3.37-6.47-3.28,5.15-.88,2a.84.84,0,0,1-1.1.43h0a.83.83,0,0,1-.48-.95l.52-2.3,2.28-4.76,17.51-11.62S209.16,184.7,214.15,188.79Z"/><path class="cls-3" d="M215.34,191.71l-.84.37h0s-.27-1.38-2.41-3.15A6.82,6.82,0,0,1,215.34,191.71Z"/><path class="cls-4" d="M376.46,171a3.49,3.49,0,0,1-2,1.5c.69,10.62.44,19.74-1.15,23.85-4.92,12.66-46.79,18.85-56.86,9.66s-15.55-69.9-2-79.47c10.13-7.15,31.38-8.32,41.51-8.45a10.29,10.29,0,0,1,9.68,6.4c2.54,6.29,4.81,16.26,6.45,26.89a6,6,0,0,1,1.87.33C376.09,152.44,377.45,169.05,376.46,171Z"/><path class="cls-5" d="M299.61,296.27a12.26,12.26,0,0,0,2.14,4.42s-4.44,1.79-8.55,3.47c-3.14,1.28-8.27,2-11.59,3.31a8.66,8.66,0,0,0-2.09,1.06c-.14.1-.27.21-.39.31-1.83,1.72-11.47,5.75-14.51,6.47a3,3,0,0,1-.7.12,3.51,3.51,0,0,1-3-1.64h0c-.69-1.12-1-2.92-.25-5.73s3-6,5.31-8.78a36.92,36.92,0,0,1,9.92-8.41c3.54-2.06,8-4.75,8.87-5.71,2.78-3.05,5.26-6.58,9.21-8.14a9.47,9.47,0,0,1,3.64-.45,40.43,40.43,0,0,1,9.23,1.75S297.39,287.23,299.61,296.27Z"/><path class="cls-4" d="M297.66,276.57c-1.91,1.38-5,3.8-6.2,6-1.88,3.33-9.28,6.79-12.49,8.88s-15.57,11.76-16.78,17.07c-1.05,4.6,1.07,6.36,2.43,6.79a2.86,2.86,0,0,1-.7.11c-1.73,0-4.77-1.41-3.21-7.36.72-2.73,3-6,5.31-8.78a36.92,36.92,0,0,1,9.92-8.41c3.54-2.06,8-4.75,8.87-5.71,2.78-3.05,5.26-6.58,9.21-8.14A9.28,9.28,0,0,1,297.66,276.57Z"/><path class="cls-6" d="M301.75,300.69s-4.44,1.79-8.55,3.47c-3.14,1.28-8.27,2-11.59,3.31a8.66,8.66,0,0,0-2.09,1.06c-.14.1-.27.21-.39.31-1.83,1.72-11.47,5.75-14.51,6.47a3,3,0,0,1-.7.12,3.51,3.51,0,0,1-3-1.64h0s6.29-1.39,9.56-3.49c2.11-1.35,5-3.54,7.76-5a32.85,32.85,0,0,0-2.93-4.59,27.2,27.2,0,0,1,4.25,3.94,9.72,9.72,0,0,1,3-.87c3.23-.3,13.4-3.67,17-7.49A12.26,12.26,0,0,0,301.75,300.69Z"/><path class="cls-5" d="M278,267.47c-.08,4.94,1,9,.77,10.7-.32,3.13-5.59,9.38-5.59,9.38-.39,3.57-3.24,8.62-7,11.3h0l-.05,0L266,299a8,8,0,0,1-7.25,1.34c-.28-.1-.56-.21-.84-.34-4.85-2.34-6.35-19.05,0-25.74,6.12-6.46,8.71-19.74,14.8-21.22s9.21,1.15,9.21,1.15c-.16.24-.32.48-.46.72A24.52,24.52,0,0,0,278,267.47Z"/><path class="cls-4" d="M281.93,254.16c-.16.24-.31.48-.46.72-.58-.21-6.35-2.24-9.9,0-3.74,2.38-5.84,11.43-7.81,13.9s-8.15,11.51-8.31,15.05-1,12.25,2.38,14.8c3.19,2.4,7,1,8.18.32-2.45,1.68-5.28,2.35-8.09,1-4.85-2.33-6.35-19,0-25.73,6.12-6.46,8.71-19.74,14.8-21.22S281.93,254.16,281.93,254.16Z"/><path class="cls-6" d="M278.8,278.17c-.3,2.89-4.79,8.42-5.5,9.27l-.05.07a.12.12,0,0,1,0,0c-.39,3.57-3.24,8.62-7,11.3h0l-.05,0L266,299a8,8,0,0,1-7.25,1.34,6.14,6.14,0,0,1,1.52-.5c4.31-.88,8-6.86,8.84-10.13a11.33,11.33,0,0,1,2-3.49,11.76,11.76,0,0,0-4.95-1.81s2-.72,5.62.92c2.22-2.81,5-5.77,5.35-7.13.5-2.13.92-10.7.92-10.7C278,272.41,279,276.47,278.8,278.17Z"/><path class="cls-2" d="M404.29,96.07,392,103l-12.45,6.94s-5-11.35-.54-18.38c0,0,1.05-.61,2.58-1.42,1.12-.59,2.5-1.28,3.92-1.91.81-.36,1.63-.7,2.42-1a79.18,79.18,0,0,1,3.33-8.71,9.84,9.84,0,0,0,1.14-5.14A2.92,2.92,0,0,0,392,72a63.29,63.29,0,0,0,10.12-6.37S410,83.74,404.29,96.07Z"/><path class="cls-3" d="M394.17,92.17a8.31,8.31,0,0,1-8.71-4c.81-.36,1.63-.7,2.42-1C387.88,87.19,390.31,91.51,394.17,92.17Z"/><path class="cls-3" d="M392,103l-12.45,6.94s-5-11.35-.54-18.38c0,0,1.05-.61,2.58-1.42,0,0,.13,9.65,1.45,12S388.75,103.69,392,103Z"/><path class="cls-2" d="M402.07,65.65a64.63,64.63,0,0,1-8.93,6.75c-.33.16-.79,0-1.24-.37a13.37,13.37,0,0,1-4.94-.58c-.88-.4-.87-1.64-.64-3-2.1-.51-6.2-3.72-6.15-6.78.07-3.33,3.64-3.58,3.64-3.58a3.06,3.06,0,0,1,3.7-3.2c.19-1.67,3.21-2.41,3.21-2.41.31-1.42,2.28-1.66,3.45-1.11s8.14,8.64,8.45,10.12A10.73,10.73,0,0,1,402.07,65.65Z"/><path class="cls-3" d="M391.72,66.65c.51,1.92-1.1,2.16-1.1,2.16.32-.25.3-1.06.21-1.77a4.89,4.89,0,0,0-.19-1.05h0a2.64,2.64,0,0,0-1.39-1.72c-1.44-.64-2.1-.21-2.1-.21l-2.86-3.88a21.26,21.26,0,0,1,3.45,3,3.71,3.71,0,0,1,3.83,2.8,1.3,1.3,0,0,0,1.26-1,3.6,3.6,0,0,0-.53-2.73l-4-5.29s5.42,5.06,5.55,7A2.18,2.18,0,0,1,391.72,66.65Z"/><path class="cls-3" d="M392.29,55.37s3.55,4.24,4,5.39a2.09,2.09,0,0,1-1.21,2.78,1.57,1.57,0,0,1-1.45-.23v1.34s3.59.56,3.55-2.85C397.18,60.1,392.29,55.37,392.29,55.37Z"/><path class="cls-3" d="M397,61a2.11,2.11,0,0,0,1.92.5c1.05-.34,1.27-1,1-1.7a1.24,1.24,0,0,1,.09,1.54c-.71,1.19-2.47,1-3,.83Z"/><path class="cls-3" d="M396.31,71.45a4.06,4.06,0,0,1-4,1.89A2.92,2.92,0,0,0,392,72,12,12,0,0,0,396.31,71.45Z"/><path class="cls-7" d="M355.27,232.5s-3.62-7.95-3-12.46,6.77,2.59,7.57,4.5S359.54,231.7,355.27,232.5Z"/><path class="cls-4" d="M309.26,278.89a30.17,30.17,0,0,1-10.49,2.58,22,22,0,0,1,7.17-3.3A22.36,22.36,0,0,1,309.26,278.89Z"/><path class="cls-8" d="M323.37,254.09c-.7,3.06.15,6.9-2.14,13.89-1.56,4.76-6.54,8.57-12,10.91,4.87,1.42,10.07,2.58,10.07,2.58,8.5-.29,24.52,3.2,24.52,3.2A81.57,81.57,0,0,1,323.37,254.09Z"/><path class="cls-4" d="M380,296.76c-.66-14.31-24.21-50.74-27.88-78.37l-14.76-5.32c-2-.57-1.1-.24-3.41-.93,0,0-34.87-18-50.49,5.68a26.72,26.72,0,0,0,2.79,17.26c2,3.7,3.46,15.13,2,17.44a29.19,29.19,0,0,0-6.25,1.64c-2.62.91-6.66,2.56-9.4,3.7a11.88,11.88,0,0,0-7,8,11,11,0,0,0,.29,6.4c2.63,7.57,9.21,8.39,13.49,7.73a109.58,109.58,0,0,1,16.44,1.32,13.91,13.91,0,0,0,3,.17,10.45,10.45,0,0,0-4.34,6.24C293,295,300,300.21,300,300.21s.73,1.48,6.32,1.15,5.58-1.82,10.2.05,37,15.25,47.69,15.74S380.61,311.07,380,296.76Zm-60.62-15.29s-5.2-1.16-10.07-2.58c5.43-2.34,10.41-6.15,12-10.91,2.29-7,1.44-10.83,2.14-13.89a81.57,81.57,0,0,0,20.48,30.58S327.83,281.18,319.33,281.47Z"/><path class="cls-9" d="M283.18,257.56l-1.52.32.16.74,1.52-.32,1.51-.32-.15-.74Z"/><path class="cls-9" d="M267.76,262.84l.37.66c.89-.5,1.8-1,2.72-1.47l-.35-.67C269.58,261.84,268.66,262.34,267.76,262.84Z"/><path class="cls-9" d="M276.86,259l.19.73c.88-.24,1.86-.48,3-.73l-.16-.74C278.74,258.52,277.75,258.76,276.86,259Z"/><path class="cls-9" d="M293,246.78l.76-.05c-.06-1-.16-2.08-.3-3.11l-.75.1C292.83,244.73,292.92,245.76,293,246.78Z"/><path class="cls-9" d="M286.78,215.56l-.76-.05c-.06,1.05-.11,2.09-.12,3.11h.75C286.67,217.63,286.71,216.59,286.78,215.56Z"/><path class="cls-9" d="M292.42,242l.74-.14c-.19-1.06-.42-2.09-.68-3.05l-.73.19C292,239.9,292.23,240.91,292.42,242Z"/><path class="cls-9" d="M272.15,260.56l.3.69a28,28,0,0,1,2.87-1l-.22-.72A28.64,28.64,0,0,0,272.15,260.56Z"/><path class="cls-9" d="M292.12,254.71a3,3,0,0,1-1.05.75l.33.68a3.46,3.46,0,0,0,1.32-1,4.54,4.54,0,0,0,.66-1.62l-.74-.18A4,4,0,0,1,292.12,254.71Z"/><path class="cls-9" d="M291.94,237a19.59,19.59,0,0,0-1.24-2.9l-.66.35a20.49,20.49,0,0,1,1.19,2.8Z"/><path class="cls-9" d="M286.66,220.43h-.76c0,1.09.08,2.14.17,3.13l.75-.07C286.73,222.53,286.68,221.5,286.66,220.43Z"/><path class="cls-9" d="M293.8,248.56H293c0,.11,0,.22,0,.33,0,1,0,1.9-.12,2.72l.75.08a26.88,26.88,0,0,0,.13-2.8Z"/><path class="cls-9" d="M287.65,228.26a24.92,24.92,0,0,1-.62-3l-.75.11a26.43,26.43,0,0,0,.64,3.08Z"/><path class="cls-9" d="M288.22,229.93l-.7.28a10.56,10.56,0,0,0,1.41,2.52l.18.24.61-.45c-.06-.09-.13-.17-.19-.25A9.8,9.8,0,0,1,288.22,229.93Z"/><path class="cls-9" d="M286.46,256.86l.17.73c1.26-.28,2.23-.53,3-.78l-.23-.73C288.65,256.33,287.71,256.58,286.46,256.86Z"/><path class="cls-9" d="M325.48,252.54l-.83-1.26.64-.41.82,1.26Z"/><path class="cls-9" d="M311.14,282.36c.8.19,1.75.43,2.91.74l.19-.73c-1.16-.31-2.12-.55-2.92-.75Z"/><path class="cls-9" d="M306.57,280.91l-.09.75c.76.09,1.44.16,2,.19a7.28,7.28,0,0,1,.93.14l.14-.75a8.31,8.31,0,0,0-1-.14C308,281.07,307.32,281,306.57,280.91Z"/><path class="cls-9" d="M315.74,283.56c.92.25,1.89.51,2.9.8l.2-.73-2.9-.8Z"/><rect class="cls-9" x="321.5" y="283.37" width="0.76" height="3.01" transform="translate(-39.35 517.83) rotate(-74.33)"/><path class="cls-9" d="M324.91,286.11l2.9.81.2-.73-2.89-.8Z"/><path class="cls-9" d="M336.81,267.86l-1.73-2.46-.62.43,1.73,2.46Z"/><path class="cls-9" d="M351.39,286.72A7,7,0,0,0,349.8,284l-.57.48a6.63,6.63,0,0,1,1.43,2.42Z"/><path class="cls-9" d="M339.58,271.72c-.58-.8-1.17-1.61-1.75-2.43l-.62.44,1.76,2.43Z"/><path class="cls-9" d="M301.81,280.6l-.05.26q1.59.31,3,.54l.12-.74-1.38-.24C302.92,280.49,302.37,280.55,301.81,280.6Z"/><path class="cls-9" d="M326.44,254l1.67,2.51.63-.42-1.67-2.5Z"/><path class="cls-9" d="M344.59,290a8.67,8.67,0,0,1-1-.06l-.08.75a9.61,9.61,0,0,0,1,.06h.16c.7,0,1.36-.07,1.94-.13l-.08-.75C345.9,289.89,345.27,289.93,344.59,290Z"/><path class="cls-9" d="M348.21,282.34c-.49-.47-1.06-1.07-1.69-1.78l-.57.5c.65.73,1.24,1.35,1.74,1.83l.37.35.53-.54Z"/><path class="cls-9" d="M345.38,279.24c-.58-.7-1.22-1.48-1.88-2.33l-.6.46c.68.86,1.31,1.65,1.9,2.35Z"/><path class="cls-9" d="M340,273.58c.62.84,1.23,1.65,1.81,2.4l.6-.45c-.58-.75-1.18-1.56-1.81-2.4Z"/><path class="cls-9" d="M348.15,289.54l.18.74a4.39,4.39,0,0,0,2.79-1.58l-.63-.41A3.74,3.74,0,0,1,348.15,289.54Z"/><path class="cls-9" d="M329.51,287.39l2.9.78.2-.73-2.91-.78Z"/><path class="cls-9" d="M338.75,289.76c1.13.26,2.12.47,3,.62l.13-.74c-.82-.15-1.8-.36-2.92-.61Z"/><path class="cls-9" d="M331.76,261.91l1.7,2.48.62-.43-1.7-2.47Z"/><path class="cls-9" d="M331.39,260l-1.68-2.49-.62.42,1.68,2.49Z"/><path class="cls-9" d="M334.11,288.62l2.92.74.18-.74c-.88-.21-1.86-.46-2.91-.73Z"/><path class="cls-4" d="M309.26,278.89a30.17,30.17,0,0,1-10.49,2.58,22,22,0,0,1,7.17-3.3A22.36,22.36,0,0,1,309.26,278.89Z"/><path class="cls-10" d="M380.74,111.74c-.05,4.76-.3,8.22-.3,8.22a26.12,26.12,0,0,0-2.81,1.24c-6.5,3.29-14.59,10.17-16.55,17.18-.79,2.79-1.15,8.55-1.29,15.06-.12,5.26-.08,11,0,16.09,0,.27,0,.54,0,.81.1,6.43.26,11.63.26,13.1,0,4.11-.82,16.29-1,21.55s1.32,10.85,2,19.73-5.77,7.78-5.77,7.78c6.25-2.63,3-10.12-1-11.72-.59-.24-1.28-.5-2.05-.77h0c-9.54-3.38-31.68-9.08-43-10.74-16.8-2.46-25.85,8.56-25.85,8.56s3.29-18.26,6.08-21.88,4.45-15.46,5.6-20.39a14.28,14.28,0,0,0,.27-2.45c.16-4.42-.81-11.36-1.37-14.95-.22-1.44-.39-2.34-.39-2.34-1.69,2.8-12.73,8.55-18.38,11.37-2,1-3.32,1.63-3.32,1.63l-4.69-7.11-9.29-14.11s.61-.56,2.54-2.08c1.37-1.08,3.4-2.64,6.34-4.83,7.07-5.26,15.46-14.8,18.58-16.28s3.62-1.31,7.73-5.26c2.89-2.77,13.35-6.12,19.34-7.88,2.56-.75,4.3-1.2,4.3-1.2a18.89,18.89,0,0,0,13.94-1s2.19-1.44,5.15-3.24c4.81-2.91,11.66-6.77,14.5-7,3.61-.28,19.12-4.64,25.68-6.52l2.94-.85C380.53,97.34,380.81,105.61,380.74,111.74Z"/><path class="cls-4" d="M323.24,117.58a11.13,11.13,0,0,1-10.79-6.32c2.56-.75,4.3-1.2,4.3-1.2a18.89,18.89,0,0,0,13.94-1s2.19-1.44,5.15-3.24C336.7,113.11,331.23,117.17,323.24,117.58Z"/><path class="cls-4" d="M275.22,167.18c-2,1-3.32,1.63-3.32,1.63l-14-21.22s.61-.56,2.54-2.08Z"/><path class="cls-4" d="M380.44,120a26.12,26.12,0,0,0-2.81,1.24c1.23-11.94-.68-24-1.61-28.84l2.94-.85C381.76,101.87,380.44,120,380.44,120Z"/><path class="cls-11" d="M359.78,169.53c-11.53-5.05-39.62-14.1-64.42,3.57.16-4.42-.81-11.36-1.37-14.95,3.76-2.38,21.81-13.17,39.09-12.64a55.91,55.91,0,0,1,26.71,7.93C359.67,158.7,359.71,164.45,359.78,169.53Z"/><path class="cls-4" d="M304.17,70.47s-4.57-1-5.13,4.28c-.48,4.54,5.28,6.24,5.28,6.24S306.17,73.28,304.17,70.47Z"/><path class="cls-4" d="M306.42,78.17s-4.57-1-5.13,4.27c-.48,4.54,5.28,6.24,5.28,6.24S308.42,81,306.42,78.17Z"/><path class="cls-4" d="M303.41,71.54a8.44,8.44,0,0,1-4.78-10.79c2.48-8,11.94-4.82,11.94-4.82a6.48,6.48,0,0,1,6.6-5.87,8.85,8.85,0,0,1,8.51,4.7s4.22-4.2,9.36-2.94,6.88,7.5,5.28,10.45c0,0,3.27-.58,5.75,3.22s3.12,9.44,0,11.54a9.65,9.65,0,0,1,1.66,9.45,7.93,7.93,0,0,1-7.36,5.31s1,7.1-5.86,8.83-6.24-4.4-6.24-4.4S316.23,68.38,303.41,71.54Z"/><path class="cls-2" d="M332.14,103.44l1,4.88a3.26,3.26,0,0,1-1.26,3.27c-8.84,6.42-15.57,2-17-.18,1.07-1,20-19,20.35-29C335.24,82.36,337.42,94.92,332.14,103.44Z"/><path class="cls-2" d="M303.91,85.09a13.46,13.46,0,0,0,.48,8.14l3.1,8a7.44,7.44,0,0,0,7.26,4.76,25.21,25.21,0,0,0,12.78-3.82c8-5.32,8-17.54,8-17.54s-.66-12.39-10.95-17.09-20.75.8-20.75.8L302.65,77a11.81,11.81,0,0,0-.12,1.45,13.17,13.17,0,0,0,.75,4.81Z"/><path class="cls-4" d="M312.29,75.94s5.78-5.65,9.77-.56l-.72,1.3s-4-3.5-8.68.87Z"/><path class="cls-3" d="M303.91,85.09a13.42,13.42,0,0,0-.37,4.41c1.24-.88,3.74-1.62,8.76-.94,0,0-2.69-2.19-5.38-2.23a1.08,1.08,0,0,1-1-1.41l1.51-4.6a3.2,3.2,0,0,0-1.69-1.27,20.32,20.32,0,0,0-3.2-.57,13.17,13.17,0,0,0,.75,4.81Z"/><path class="cls-4" d="M302.78,77.1a14.27,14.27,0,0,1,3.52.68l.18,1.5a10.29,10.29,0,0,0-3.69-.59.85.85,0,0,1-.93-.85v0A.82.82,0,0,1,302.78,77.1Z"/><path class="cls-12" d="M306.21,92.26,320,91s-1.57,7.42-8.88,7.23C305.33,98,306.21,92.26,306.21,92.26Z"/><path class="cls-3" d="M315.57,105.75s8.52-1.06,13.1-12.92c0,0,2.12,4.37-.37,10.66s-13.41,7.92-13.41,7.92Z"/><path class="cls-2" d="M332,82.63s2.59-4.93,6.37-2.71,1.67,13.48-3.81,11.37S332,82.63,332,82.63Z"/><path class="cls-4" d="M314,80.29s.81-2.45,3-2.46a3.71,3.71,0,0,1,3.82,2.69S317.7,76.24,314,80.29Z"/><path class="cls-4" d="M306.79,82s-2.21-2.63-3.52.56A2.47,2.47,0,0,1,306.79,82Z"/><path class="cls-4" d="M303.41,71.54a9.22,9.22,0,0,0,6.87-1.23c3.15-2.17,2.39-4.1,2.39-4.1s1.28,3.2,5.54,2.87,4.85-1.51,4.85-1.51-.18,4.76,3.3,5.49A5.82,5.82,0,0,0,332,71s-15.48-13.63-20.8-10S301.25,66.53,303.41,71.54Z"/><path class="cls-4" d="M330.12,71.62s-2.11,4.09,1.46,6.45a21.75,21.75,0,0,1-1.27,6.4l2.72,0s2-3.49,1.8-6.48S334.62,70.42,330.12,71.62Z"/><path class="cls-3" d="M402.07,65.65a5.74,5.74,0,0,1-1.52,2.22s1.52-.07,2-.94Z"/><path class="cls-10" d="M266.14,298.89l.05,0h0Z"/><path class="cls-6" d="M352.23,220c-9.54-3.38-31.68-9.08-43-10.74-16.8-2.46-25.85,8.56-25.85,8.56s3.29-18.26,6.08-21.88,4.45-15.46,5.6-20.39a14.28,14.28,0,0,0,.27-2.45c.16-4.42-.81-11.36-1.37-14.95-.22-1.44-.39-2.34-.39-2.34-1.69,2.8-12.73,8.55-18.38,11.37-2,1-3.32,1.63-3.32,1.63l-4.69-7.11-.64-3.09s12.28-6.66,29.17-15.79c0,0,7.65,9.62,7.53,20.72-.21,19.75-3,33.23,9.18,37.83C324.31,205.83,350.6,219.17,352.23,220Z"/><path class="cls-6" d="M380.74,111.74c-.05,4.76-.3,8.22-.3,8.22a26.12,26.12,0,0,0-2.81,1.24c-6.5,3.29-14.59,10.17-16.55,17.18-.79,2.79-1.15,8.55-1.29,15.06-.12,5.26-.08,11,0,16.09,0,.27,0,.54,0,.81,0,0-4.35-29.66-1.88-38.37S380.3,112,380.74,111.74Z"/><path class="cls-4" d="M299,118.81c-3.6,21.38-2.94,46.71-2.94,46.71a21,21,0,0,1-1.47,12.3c-13.72-14.83-4.28-59,.81-67.93,6.27-11,15.44,1.85,15.44,1.85l-4.69,1.48s-1.63-2.29-3.64-1.81S299,118.81,299,118.81Z"/><path class="cls-4" d="M337.78,104.72s1.4-10.81,9.29-11.09c12.5-.44,15.65,32.42,16.64,50.18s-3.92,21.34-3.92,21.34L359.64,155s-6.47-43.7-9.67-51.39c-3.51-8.43-6.52-4.27-9.68,0l-2.82,1.3"/><path class="cls-2" d="M64.57,93.5c-20.2-5.24-36-24.3-40.19-28.89a8.77,8.77,0,0,1-1.21-2h0C19.16,54.31,12.69,27,11.25,20.8c-.1-.42-.17-.75-.22-1s-.07-.3-.07-.3l11.49-5s.94,11,6.47,19.91,10.64,23,10.64,23C50.39,62.74,62,72.63,62,72.63,68,85.3,64.57,93.5,64.57,93.5Z"/><path class="cls-3" d="M64.57,93.5c-20.2-5.24-36-24.3-40.19-28.89a8.77,8.77,0,0,1-1.21-2c.24.19,15.18,13,20.8,16.26s12.07,6.18,15.22,4,4-6.42,2.77-10.23C68,85.3,64.57,93.5,64.57,93.5Z"/><path class="cls-2" d="M11.66,20.12a64.78,64.78,0,0,0,10.91-2.5c.33-.16.47-.64.51-1.2a13.24,13.24,0,0,0,2.73-4.15c.26-.93-.7-1.72-1.85-2.39,1-1.94,1.14-7.14-1.24-9.06-2.59-2.09-5.08.49-5.08.49a3.06,3.06,0,0,0-4.83.77C11.41,1.15,8.9,3,8.9,3c-1.28-.67-2.74.68-3.07,1.94s1.39,11.78,2.32,13A10.77,10.77,0,0,0,11.66,20.12Z"/><path class="cls-3" d="M19.08,12.83c1.14,1.62,2.36.55,2.36.55-.4.09-1-.46-1.49-1a4.32,4.32,0,0,1-.68-.82h0a2.67,2.67,0,0,1-.42-2.17C19.28,7.88,20,7.66,20,7.66L18.9,3A21.88,21.88,0,0,0,19,7.56a3.72,3.72,0,0,0-.32,4.74,1.31,1.31,0,0,1-1.53.35,3.65,3.65,0,0,1-1.76-2.16L13.9,4s.38,7.41,1.82,8.77A2.17,2.17,0,0,0,19.08,12.83Z"/><path class="cls-3" d="M10.07,6s1,5.44,1.55,6.55a2.08,2.08,0,0,0,2.9.85,1.58,1.58,0,0,0,.76-1.26l1,.87s-1.88,3.1-4.46.89C10.55,12.81,10.07,6,10.07,6Z"/><path class="cls-3" d="M11.38,13.24A2.07,2.07,0,0,1,10.53,15c-.94.59-1.62.3-2-.31a1.24,1.24,0,0,0,1.12,1.06C11.06,16,12,14.51,12.28,14Z"/><path class="cls-3" d="M13.73,20.12a3.74,3.74,0,0,1-2.48.68c-.1-.42-.17-.75-.22-1A8.72,8.72,0,0,0,13.73,20.12Z"/><path class="cls-3" d="M22.84,17.37a7.16,7.16,0,0,1-2.27,1.46,4.25,4.25,0,0,0,2.42-.6Z"/><path class="cls-3" d="M39.56,57.41s-3.85,3.23-6,3.57a8.07,8.07,0,0,0,8.12-2.49Z"/><path class="cls-4" d="M51.89,155.14a3.56,3.56,0,0,0,2.16,1.24c.67,10.62,2.08,19.62,4.19,23.5,6.49,11.93,48.81,12.72,57.63,2.32s6.49-71.31-8.19-79.07c-11-5.8-32.19-4.25-42.24-3.08a10.28,10.28,0,0,0-8.79,7.58c-1.71,6.56-2.69,16.75-3,27.49a6.17,6.17,0,0,0-1.8.57C49.89,136.7,50.67,153.35,51.89,155.14Z"/><path class="cls-2" d="M210.64,96s-3.24,12-8.35,25.28c-.77,2-1.59,4-2.45,6.09-3.48,8.28-7.6,16.45-12,22-2.37,3-4.83,5.19-7.33,6.29,0,0-7.17,1-12.21-2s-24.66-12.75-27-16.95c0,0,7.55-10.7,14.72-11.66,0,0,2.67,1.37,6.44,3.57a147.35,147.35,0,0,1,14.12,9.21l1.34,1s.37-.72,1-2c1.7-3.19,5.33-9.82,9.73-16.83.94-1.5,1.91-3,2.91-4.52l.67-1c7.8-11.57,8.81-20,8.81-20S208.5,93.86,210.64,96Z"/><path class="cls-3" d="M202.29,121.28c-.77,2-1.59,4-2.45,6.09l-11.25-7.32c.94-1.5,1.91-3,2.91-4.52Z"/><path class="cls-3" d="M187.8,149.38c-2.37,3-4.83,5.19-7.33,6.29,0,0-7.17,1-12.21-2s-24.66-12.75-27-16.95c0,0,7.55-10.7,14.72-11.66,0,0,2.67,1.37,6.44,3.57-.44,1.5-2.18,6.91-5.3,9.53-3.65,3.06,4.78,10.1,12.08,13.25S181.54,154.41,187.8,149.38Z"/><path class="cls-3" d="M177.54,147c.84-3.44-1-9.16-1-9.16l1.34,1s.37-.72,1-2C179.6,144.21,177.54,147,177.54,147Z"/><path class="cls-5" d="M144,325.23c-6.72-3.86-9.06-7.71-13.09-14.43-2.39-4-4.61-7.32-6-9.37a4.67,4.67,0,0,1-.29-4.78c.06-.12.12-.24.19-.36,1.57-3,4.19-7.19,6.45-7.3l2.56,1.39,8.85,4.82s3.85,8.87,3.68,12.74c-.14,3.38,6.39,11.21,8.36,15.61a8.72,8.72,0,0,1,.4,1,4.38,4.38,0,0,1,.14.64C155.72,329,150.72,329.09,144,325.23Z"/><path class="cls-4" d="M144,325.23c-6.72-3.86-9.06-7.71-13.09-14.43-2.39-4-4.61-7.32-6-9.37a4.67,4.67,0,0,1-.29-4.78c.06-.12.12-.24.19-.36a19.58,19.58,0,0,0,3.72,7.72c3,3.52,7.45,11.45,8.51,13s8.54,8,13.26,8.93c3.82.78,4.52,0,4.81-1.31a4.38,4.38,0,0,1,.14.64C155.72,329,150.72,329.09,144,325.23Z"/><path class="cls-6" d="M144,325.23c-6.72-3.86-9.06-7.71-13.09-14.43-2.39-4-4.61-7.32-6-9.37a4.67,4.67,0,0,1-.29-4.78c.06-.12.12-.24.19-.36,1.57-3,4.19-7.19,6.45-7.3l2.56,1.39s-5,4.49-3.4,9.43,6.93,12.42,9.71,15.69,8.67,8.71,14.58,8.05a8.72,8.72,0,0,1,.4,1,4.38,4.38,0,0,1,.14.64C155.72,329,150.72,329.09,144,325.23Z"/><path class="cls-5" d="M141.57,348.08c-.15,4.45-3.32,8.55-10.31,7.35-7.87-1.34-10.07-7.88-11.92-11.91s-6.21-17.95-8-23.49a17.43,17.43,0,0,1-.22-8.69,21.6,21.6,0,0,1,.94-3.4l2.84.43,16.07,2.43a45.83,45.83,0,0,1,3.69,13.59c.58,6.18,4.71,14.19,6.31,19.53h0a15.64,15.64,0,0,1,.57,2.45A8.91,8.91,0,0,1,141.57,348.08Z"/><path class="cls-6" d="M141.57,348.08c-.15,4.45-3.32,8.55-10.31,7.35-7.87-1.34-10.07-7.88-11.92-11.91s-6.21-17.95-8-23.49a17.43,17.43,0,0,1-.22-8.69,21.6,21.6,0,0,1,.94-3.4l2.84.43c-.27,2.79.93,10.69,3.15,14.93,2.77,5.29,4.83,16.91,9.65,22.07s13.46,6.12,13.27-1.45a15.64,15.64,0,0,1,.57,2.45A8.91,8.91,0,0,1,141.57,348.08Z"/><path class="cls-4" d="M141.57,348.08c-.15,4.45-3.32,8.55-10.31,7.35-7.87-1.34-10.07-7.88-11.92-11.91s-6.21-17.95-8-23.49a17.43,17.43,0,0,1-.22-8.69,110.46,110.46,0,0,0,5,16.73c4,10.28,7.24,19.31,10,22.33S140,355.43,141.57,348.08Z"/><path class="cls-13" d="M59.24,91.77l6.3,2s-1.06,4.45-2.89,4.45S58.69,97.23,59.24,91.77Z"/><path class="cls-8" d="M144,251.58c1.22,3,.08,6.24-1.27,11.34,5.37-7.83,14.35-20.23,14.35-20.23l-26.17-8.08S142.66,248.22,144,251.58Z"/><path class="cls-4" d="M189.13,232.19a8.22,8.22,0,0,0-1.75-3.25c-2.71-3.12-10.71-11.38-26.76-21-20.47-12.24-24.33-11.24-34.56-18.79,0,0-35-3.93-49.37,10-.15.14-.3.29-.44.44a19.32,19.32,0,0,0-3.31,4.49s0,18.15,7.17,24.78,29.67,30.06,31.85,29.84c0,0,.17,3.64,2.85,3.81,0,0-3.69,14.94-2.18,21.31,0,0-2.35,5.37-1.17,9.23s-.34,7.72-.34,10.07,2,12.75,8.56,14.93,13.76-.17,14.26-5.87-.84-9.4-.33-12.59c.13-.86.73-3.4,1.55-6.75,2.41,1.51,6.22,2.65,7.51,2.39,1.67-.33,5.19-10.23,7.38-10.9s9.89-10.24,15.43-15.61C170.79,263.55,193.05,247,189.13,232.19Zm-58.21,2.42,26.17,8.07s-9,12.41-14.35,20.24c1.35-5.1,2.49-8.29,1.27-11.34C142.67,248.22,130.92,234.61,130.92,234.61Z"/><path class="cls-9" d="M77.45,200.65l-1,.17c-.09-.56-.16-1-.2-1.26.14-.15.29-.3.44-.44l.49-.07Z"/><path class="cls-9" d="M77.84,202.88l-1,.18c.2,1.09.4,2.18.62,3.24l1-.19C78.24,205.05,78,204,77.84,202.88Zm1.08,5.45-1,.21c.25,1.12.49,2.2.74,3.22l1-.24C79.4,210.51,79.16,209.44,78.92,208.33Zm1.28,5.39-1,.26c.31,1.14.61,2.21.92,3.18l1-.3C80.8,215.9,80.5,214.85,80.2,213.72ZM81.81,219l-.94.34a25.09,25.09,0,0,0,1.32,3.09l.89-.48A25.91,25.91,0,0,1,81.81,219Zm2.47,4.71-.72.7c.49.51,1.27,1.31,2.33,2.35l.71-.71C85.55,225,84.77,224.22,84.28,223.71Zm3.94,3.94-.7.71,2.36,2.3.7-.72Zm4,3.87-.7.73,2.38,2.28.69-.73Zm4,3.85-.69.73c.79.75,1.59,1.5,2.39,2.27l.69-.74Zm4,3.82-.69.74,2.41,2.25.68-.74Zm4.07,3.81-.68.73c.82.77,1.63,1.52,2.42,2.24l.68-.74Zm4.1,3.76-.67.75c.85.78,1.68,1.52,2.45,2.21l.67-.76C110.15,248.28,109.33,247.54,108.47,246.76Zm4.15,3.71-.66.76c1,.87,1.86,1.59,2.54,2.14l.63-.79C114.47,252.05,113.62,251.34,112.62,250.47Zm4.27,3.33-.4.92c.73.33,1.16,1,1.43,2.28l1-.21A3.83,3.83,0,0,0,116.89,253.8Zm2.36,5.29-1,.11a19.66,19.66,0,0,0,.58,3.32l1-.28A19,19,0,0,1,119.25,259.09Zm-.3,5.51a31.22,31.22,0,0,1-.45,3.2l1,.18a30.65,30.65,0,0,0,.46-3.3Zm-.88,5.43c-.17.83-.35,1.68-.53,2.55l-.14.67,1,.2.15-.66.53-2.56Zm-1.13,5.45c-.26,1.27-.45,2.3-.61,3.25l1,.16c.16-.93.35-1.95.6-3.21Zm0,5.64-1-.12a23.89,23.89,0,0,0-.21,2.9c0,.16,0,.31,0,.46l1,0v-.42A21.92,21.92,0,0,1,117,281.12Zm-.06,5.47-1,0c0,.56,0,1.14,0,1.73s0,1,0,1.52l1,0c0-.54,0-1.05,0-1.55S117,287.16,116.93,286.59Zm-1.09,5.55c0,.59-.07,1.18-.1,1.76s-.07,1-.1,1.52l1,.06.09-1.52c0-.58.07-1.17.11-1.76Zm.73,8.32c0-.52,0-1,0-1.63,0-.36,0-.73,0-1.1l-1,0c0,.38,0,.75,0,1.12,0,.6,0,1.15,0,1.68,0,.16,0,.33,0,.5h1C116.59,300.82,116.58,300.63,116.57,300.46Zm-1.12,2.76c-.1.95-.26,2-.48,3.22l1,.18c.22-1.21.39-2.32.49-3.29Zm-.92,5.43c-.22,1-.47,2.09-.75,3.19l1,.25c.28-1.12.53-2.2.75-3.22Z"/><path class="cls-9" d="M127,227.73l3.12,1,.33-1-3.13-1Z"/><path class="cls-9" d="M135.67,229.6l-3.11-1.06-.32,1,3.1,1.05Z"/><polygon class="cls-9" points="141.98 269.73 142.8 270.31 144.69 267.63 143.86 267.05 141.98 269.73"/><rect class="cls-9" x="138.5" y="272.71" width="3.28" height="1.01" transform="translate(-163.96 230.67) rotate(-54.88)"/><path class="cls-9" d="M137,276.73c0,.56.05,1.12.05,1.68l1.2-1.71-.82-.58Z"/><path class="cls-9" d="M140.92,231.38l-3.1-1-.33.95,3.11,1.06Z"/><path class="cls-9" d="M156.65,236.87l-3.09-1.11-.33,1,3.08,1.1Z"/><path class="cls-9" d="M146.17,233.19l-3.1-1.07-.32.95,3.09,1.07Z"/><path class="cls-9" d="M155.42,252l.74.68c.67-.74,1.45-1.59,2.2-2.44l-.76-.67C156.86,250.45,156.08,251.3,155.42,252Z"/><path class="cls-9" d="M159.08,247.89l.77.65c.82-1,1.49-1.83,2.05-2.6l-.82-.59C160.54,246.1,159.88,246.94,159.08,247.89Z"/><path class="cls-9" d="M161.87,238.83c-.73-.3-1.77-.7-3.08-1.18l-.35.95c1.3.48,2.33.87,3.05,1.17Z"/><path class="cls-9" d="M163.89,240.47l-.95.33a1.41,1.41,0,0,1,.07.47,5.09,5.09,0,0,1-.74,2.23l.88.48a5.82,5.82,0,0,0,.87-2.71A2.28,2.28,0,0,0,163.89,240.47Z"/><polygon class="cls-9" points="145.17 265.19 146 265.77 147.88 263.1 147.06 262.51 145.17 265.19"/><path class="cls-9" d="M151.71,256.18l.77.65c.56-.67,1.23-1.42,2.16-2.45l-.75-.67C153,254.74,152.28,255.5,151.71,256.18Z"/><path class="cls-9" d="M150,258.38l-1.6,2.28.82.58,1.6-2.27.29-.4-.81-.6Z"/><path class="cls-9" d="M148,234.88l3.09,1.08.34-1-3.1-1.08Z"/><path class="cls-14" d="M160.62,127.54c-1.18,5.25-6.16,10-10.12,13.12h0a49.27,49.27,0,0,1-5.14,3.54l-2.35-2-7.3-6.28-3.5,7.24c-3.51,7.23-2.54,25.73-2.94,31-.36,4.59,6.73,15.36,8.15,19a1.91,1.91,0,0,1,.22,1.12c-.59,1.51-18.1,3.78-29.49,0s-34.44,10-35.2,9.77-1.41-33.93-4.94-48.9,2.35-54.24,2.35-54.24l-4.74-1.5-2.14-.68c-6.21.34-4.23-7-4.23-7s.21,7.38,4,5.46c1.69-.86,1.62-5.88,1-11.15C63.51,79.61,62,72.74,62,72.64s1.21.32,3,.83c6,1.68,19.19,5.59,24.18,8.57,1.5.89,5.13,3.49,7.93,5.54,2.07,1.5,3.69,2.71,3.69,2.71,9.88,5.45,13,5.09,21.1,7.48l1.07.31c9.78,2.91,21,6.36,25.13,13.36,3.21,5.41,8.62,11.71,11.16,14.56C160.08,127,160.62,127.54,160.62,127.54Z"/><path class="cls-4" d="M65.61,99.41l-2.14-.68c-6.21.34-4.23-7-4.23-7s.21,7.38,4,5.46c1.69-.86,1.62-5.88,1-11.15C63.51,79.61,62,72.74,62,72.64s1.21.32,3,.83C66.46,79.49,69.14,92.84,65.61,99.41Z"/><path class="cls-4" d="M160.62,127.54c-1.18,5.25-6.16,10-10.12,13.12h0a49.27,49.27,0,0,1-5.14,3.54l-2.35-2c8-5.4,13.63-12.19,15.83-16.61C159.69,126.53,160.62,127.54,160.62,127.54Z"/><path class="cls-4" d="M121,97.54c-1.57,4.2-4,8-16.27,5-13.86-3.35-6.29-14-6.29-14,2.07,1.5,2.3,1.69,2.3,1.69,9.88,5.45,10.14,4.28,18.2,6.67Z"/><path class="cls-6" d="M150.49,140.66a49.27,49.27,0,0,1-5.14,3.54l-9.65-8.31-3.5,7.24c-3.51,7.23-2.54,25.73-2.94,31-6.92-16.44,5.18-46.57,5.18-46.57C137.94,134.35,150.29,140.51,150.49,140.66Z"/><path class="cls-6" d="M137.63,194.28c-.59,1.51-18.1,3.78-29.49,0s-34.44,10-35.2,9.77-1.41-33.93-4.94-48.9,2.35-54.24,2.35-54.24l-6.88-2.18c-6.21.34-4.23-7-4.23-7s.21,7.38,4,5.46c1.69-.86,1.62-5.88,1-11.15,0,0,12,8.63,18.86,10.64,0,0-1.93,12.33-3.77,28.4s-.67,27.1,3,38.34,11.93,22,23.37,23.19,22.58,9.17,31.69,6.51A1.91,1.91,0,0,1,137.63,194.28Z"/><path class="cls-4" d="M140.79,59.81h0c-.29.28-.48.43-.48.43L102.65,73.42S97,70.83,97.35,61a12.94,12.94,0,0,1,7.35-11.61,9.65,9.65,0,0,1-.82-.94.68.68,0,0,1,.52-1.1,8.05,8.05,0,0,1,1.25.06,10.26,10.26,0,0,1-.21-1.36.68.68,0,0,1,1-.63,6.22,6.22,0,0,1,1.65,1.38l.05,0a21,21,0,0,1,13.72-6.16c2.83-.17,6.29-.42,9.72-.8,6.59-.72,11.72.46,13.64-1.52C145.26,38.26,153.39,51.78,140.79,59.81Z"/><path class="cls-4" d="M140.06,57.41s3.85,9-2.53,14.39C137.53,71.8,136.58,61,140.06,57.41Z"/><path class="cls-2" d="M117.67,99.18l-.2.16a11.44,11.44,0,0,1-3.67,1.84c-3.27,1-10.49-2.16-13.63-3.68a1.81,1.81,0,0,1-.91-2.26,41.06,41.06,0,0,0,2.59-14.61A41,41,0,0,1,104.93,66c-.78,3.6.58,8.8,2.68,14A129.64,129.64,0,0,0,117.67,99.18Z"/><path class="cls-2" d="M135,76.28a13.67,13.67,0,0,1-2.45,7.88l-5,7.11a7.53,7.53,0,0,1-8.29,2.91,25.52,25.52,0,0,1-11.63-6.85c-6.56-7.18-3.62-19.19-3.62-19.19S107.72,56.13,119,54s20.2,5.84,20.2,5.84l-.93,8.81a12,12,0,0,1-.24,1.46,13.54,13.54,0,0,1-1.9,4.54Z"/><path class="cls-4" d="M129,65.25s-4.31-7-9.46-2.93l.39,1.46s4.81-2.47,8.32,3Z"/><path class="cls-3" d="M135,76.28a13.51,13.51,0,0,1-.71,4.42c-1-1.17-3.28-2.5-8.38-3,0,0,3.18-1.5,5.84-.89a1.08,1.08,0,0,0,1.32-1.14l-.35-4.89a3.15,3.15,0,0,1,2-.83,19.44,19.44,0,0,1,3.28.22,13.54,13.54,0,0,1-1.9,4.54Z"/><path class="cls-4" d="M138.09,68.7a14.85,14.85,0,0,0-3.62-.19l-.54,1.43a10.43,10.43,0,0,1,3.76.32.87.87,0,0,0,1.13-.61h0A.83.83,0,0,0,138.09,68.7Z"/><path class="cls-12" d="M131,82.76l-13.19-4.62s-.25,7.67,7,9.27C130.49,88.65,131,82.76,131,82.76Z"/><path class="cls-3" d="M118.56,93.74l-.6,5.18-.29.26-.2.16c-1.94-.89-10-5-10.86-10.92a15.6,15.6,0,0,1,1-8.4,9.21,9.21,0,0,1,1.22-2.16C110.45,90.63,118.56,93.74,118.56,93.74Z"/><path class="cls-2" d="M108,67s-1.35-5.48-5.6-4.22-4.92,12.84,1,12.1S108,67,108,67Z"/><path class="cls-4" d="M120.74,53.76s-2.49.26-2.79,3.4-.83,8.5-4.88,8.38-4.44,4.81-4.44,4.81l-2.89-.7s-.29-8.74,1.64-11.72S117.42,50.66,120.74,53.76Z"/><path class="cls-4" d="M120.28,67.57a4,4,0,0,1,6.77,2.82S125.5,66.51,120.28,67.57Z"/><path class="cls-4" d="M133.34,72.45a2.59,2.59,0,0,1,2.13-.16c1.14.45.72,1.94.72,1.94S135.93,72.31,133.34,72.45Z"/><rect class="cls-4" x="169.9" y="82.48" width="54.7" height="36.22" transform="translate(84.24 -89.81) rotate(32.29)"/><polygon class="cls-4" points="230.04 99.89 210.69 130.51 164.45 101.29 166.45 101.15 229.21 96.72 229.77 98.86 229.77 98.86 230.04 99.89"/><path class="cls-12" d="M229.77,98.86l-18.5,29.36-1.4-.88L197.2,98.07l32-1.35Z"/><rect class="cls-4" x="171.28" y="79.95" width="52.31" height="36.22" transform="translate(82.91 -90.3) rotate(32.29)"/><path class="cls-2" d="M214.84,84.52h0a3.36,3.36,0,0,0-2.05-1.58c0-.69-.68-1.34-1.51-1.7a2.36,2.36,0,0,0-1.53-.08c-.24-.84-1.14-1.5-1.74-1.32l-.39.09a1.86,1.86,0,0,0-.43-1h0a2.84,2.84,0,0,0-2.59-1.44s-5.75,1-7.11,5-3.11,8.59-1.08,8.31a3.61,3.61,0,0,0,1.93-1.47c-.72,2.42-1,4.28.34,4.1a4.73,4.73,0,0,0,2.43-2.15c-.55,2.06-.65,3.55.54,3.39s2.45-1.93,3.5-3.93c-.68,2.33-.9,4.1.39,3.93,1.58-.22,2.68-3.43,4.27-5.88,1.86-2.87,1.79-1.18,3.8-2l1.46.92A3.7,3.7,0,0,0,214.84,84.52Z"/><path class="cls-4" d="M98.46,88.6s1.6-13.29-3.91-14.37C83.86,72.13,72,88,65.54,104.44c-9.69,24.78,1.51,43.4,1.51,43.4l.2-9.5s-.88-20.64,8.68-37S92.16,80.65,93.55,81.79,95,86.08,95,86.08Z"/><path class="cls-4" d="M122.93,98.08s3.2-8.27,13.45-4.58c9,3.22,8,12.78,6.66,25.36s-13.57,43.71-13.57,43.71-.52-11,.86-17.51c0,0,8.39-27.66,5.37-38.61S126,99,126,99Z"/></g></g></svg>